<svg width="228" height="38" fill="none" xmlns="http://www.w3.org/2000/svg"><path opacity=".6" fill-rule="evenodd" clip-rule="evenodd" d="m206.388 7.588.165 7.588 5.435.171 5.435.17V0h-11.199l.164 7.588zm13.386-.149v5.654H228V1.785h-8.226V7.44zm-19.979 0v4.463H204.496V2.976H199.795v4.463zm-189.209.223C.452 11.029-3.26 23.254 3.232 31.875c2.182 2.898 7.284 5.22 11.465 5.22 4.876 0 10.137-2.487 11.761-5.56.521-.986.293-1.31-1.617-2.297l-2.223-1.149-1.616 1.408c-2.492 2.17-5.546 2.89-8.658 2.042-8.376-2.284-9.49-14.097-1.714-18.17 3.335-1.746 8.197-.843 10.733 1.995l1.074 1.202 2.156-1.249c1.185-.687 2.268-1.338 2.406-1.445.524-.41-3.287-3.916-5.522-5.078-2.532-1.32-8.47-1.936-10.89-1.132zm168.45.41c-8.04 2.603-12.084 13.047-8.108 20.94 1.515 3.007 5.202 6.35 8.078 7.324 2.962 1.003 7.131.997 10.162-.016 2.252-.753 2.505-.721 3.768.48 1.728 1.644 2.234 1.619 3.921-.2l1.381-1.488-1.297-1.397-1.295-1.397 1.58-3.086c2.83-5.524 2.015-12.337-2.015-16.855-4.06-4.551-10.292-6.21-16.175-4.305zm-18.61 14.245v14.58h5.289V7.738h-5.289v14.58zm28.438-8.47c1.259.73 2.779 2.262 3.378 3.402 1.588 3.023 1.376 8.485-.413 10.626-.092.11-1.145-.893-2.339-2.232-1.194-1.338-2.456-2.433-2.805-2.433-.348 0-1.379.723-2.289 1.606l-1.656 1.606 2.4 2.477 2.4 2.476-1.884.383c-6.064 1.228-12.049-4.872-10.895-11.102 1.248-6.74 8.333-10.16 14.103-6.81zM35.982 15.865c-.739.16-2.364 1.275-3.611 2.478-6.87 6.625-2.68 18.783 6.473 18.783 2.044 0 3.388-.38 4.624-1.305 2.142-1.604 2.377-1.616 2.377-.115 0 .992.392 1.19 2.35 1.19h2.351V16.069h-2.35c-1.97 0-2.35.195-2.35 1.208 0 1.199-.014 1.198-1.702-.066-1.698-1.27-5.56-1.907-8.162-1.344zm27.11.168c-.694.3-1.436.832-1.65 1.183-.57.934-1.494.776-1.494-.256 0-.644-.653-.893-2.35-.893h-2.351v20.83h4.7v-6.764c0-5.942.149-6.955 1.219-8.332 1.448-1.865 4.008-2.091 5.448-.48.793.889.972 2.43.972 8.366v7.278l2.498-.183 2.497-.183.294-7.34c.255-6.377.443-7.451 1.434-8.183 1.455-1.075 3.316-1.075 4.77 0 1.004.743 1.164 1.74 1.336 8.332l.194 7.489h4.605l-.002-7.886c-.002-6.77-.164-8.154-1.15-9.79-2.313-3.845-7.524-4.8-11.192-2.054-1.587 1.189-1.588 1.189-2.762 0-1.326-1.344-5.116-1.956-7.016-1.134zm30.919.778c-7.754 3.967-7.574 15.157.311 19.342 3.702 1.965 10.129.9 12.834-2.129 1.059-1.184 1.043-1.227-.788-2.186-1.737-.91-2.014-.907-3.95.023-2.803 1.348-5.908.81-7.755-1.342l-1.421-1.657 8.032-.165 8.032-.166v-2.085c0-8.263-8.057-13.338-15.295-9.635zm27.635-.638c-.808.309-2.064 1.127-2.791 1.819l-1.323 1.259v-1.626c0-1.535-.135-1.616-2.384-1.443l-2.385.183V36.6l2.385.183 2.384.183v-5.66c0-3.113.294-6.312.652-7.11.693-1.54 2.766-2.772 4.664-2.772.966 0 1.148-.417 1.148-2.642 0-3.033-.317-3.385-2.35-2.608zm9.096.129c-7.625 3.365-8.185 15.335-.918 19.633 2.697 1.595 7.224 1.532 9.447-.133 1.615-1.21 1.647-1.21 1.942-.068.237.914.814 1.163 2.706 1.163h2.405v-20.83h-2.644c-1.958 0-2.644.232-2.644.893 0 1.114.113 1.126-2.644-.298-2.646-1.365-5.109-1.482-7.65-.36zM43.864 22.09c2.698 2.567 2.15 7.767-1 9.474-2.877 1.56-6.92.464-8.118-2.2-.817-1.816-.84-4.688-.05-6.183 1.599-3.026 6.52-3.611 9.168-1.091zm58.605-.623c2.896 2.306 2.098 2.932-3.74 2.932-2.909 0-5.288-.228-5.288-.508s.648-1.217 1.44-2.083c1.834-2.004 5.305-2.16 7.588-.341zm37.245.862c1.657 1.931 1.81 6.098.294 7.964-2.197 2.7-7.495 2.563-9.31-.242-1.967-3.04-.752-7.937 2.292-9.245 2.089-.897 5.265-.177 6.724 1.523z" fill="#fff"/></svg>