<svg width="270" height="99" fill="none" xmlns="http://www.w3.org/2000/svg"><path fill-rule="evenodd" clip-rule="evenodd" d="M142.906 32.614c-3.201.436-6.806 2.323-9.256 4.845-3.268 3.364-4.94 7.673-4.951 12.76-.007 3.207.451 5.425 1.637 7.917 1.693 3.561 4.436 5.995 8.474 7.52 2.506.946 7.169 1.189 9.949.518 4.829-1.166 8.741-4.739 10.559-9.645l.532-1.434h-9.424l-.679.756c-1.829 2.035-5.589 2.725-8.033 1.474-2.452-1.255-3.557-3.806-3.374-7.789.133-2.884.823-4.73 2.365-6.329 2.569-2.664 7.28-2.747 9.867-.174l1.157 1.152h4.622c5.156 0 4.885.14 4.206-2.173-.882-3.004-3.679-6.227-6.712-7.735-3.073-1.527-7.265-2.165-10.939-1.663zm-114.557.732c-.064.198-.306 1.586-.538 3.087-.233 1.5-.645 4.112-.916 5.805l-.494 3.078-3.076.08-3.077.08-.484 3.016c-.763 4.758-1.017 4.306 2.416 4.306 3.416 0 3.194-.323 2.532 3.692a676.119 676.119 0 0 0-.853 5.352c-.245 1.58-.505 3.162-.577 3.518l-.132.646 11.98-.004c9.108-.002 12.315-.095 13.38-.387 4.908-1.346 7.548-4.686 7.521-9.515-.014-2.529-1.015-4.886-2.647-6.23l-1.103-.91.848-.364c1.632-.704 2.794-1.88 3.68-3.724.792-1.65.866-2.026.744-3.772-.306-4.354-2.94-7.052-7.642-7.831-2.633-.436-21.418-.369-21.562.077zm36.435.144c-.082.276-.414 2.246-.737 4.378s-.76 4.974-.971 6.317c-.211 1.342-.641 4.12-.955 6.173-.315 2.053-.896 5.8-1.291 8.326-.396 2.527-.795 5.208-.887 5.958l-.167 1.364h29.199l.148-.646c.08-.356.374-2.132.652-3.948l.505-3.302-10.02-.075c-7.81-.06-9.997-.154-9.91-.43.062-.196.258-1.293.436-2.438l.323-2.082h5.28c3.51 0 5.344-.105 5.47-.313.154-.256 1.23-6.767 1.24-7.51.003-.119-2.407-.216-5.354-.216h-5.358l.192-1.507c.105-.83.26-1.798.346-2.154l.155-.646h18.083l.312-1.794c.353-2.032.866-5.418.87-5.743 0-.118-6.166-.215-13.705-.215-12.81 0-13.716.033-13.856.502zm31.074-.144c-.112.357-1.27 7.466-1.27 7.795 0 .095 2.593.172 5.764.172h5.764l-.163.79c-.089.434-.602 3.697-1.14 7.25-.538 3.553-1.103 7.17-1.255 8.04a199.88 199.88 0 0 0-.709 4.593c-.238 1.658-.501 3.24-.585 3.517-.14.465.202.503 4.573.503h4.724l.645-4.235c.355-2.33.879-5.721 1.166-7.537.692-4.393 1.64-10.507 1.835-11.844l.157-1.077h5.699c5.183 0 5.712-.045 5.85-.502.083-.276.346-1.794.585-3.374.239-1.579.505-3.226.59-3.66l.157-.79h-16.138c-12.663 0-16.16.077-16.25.359zm71.438.287c-.071.355-.392 2.39-.714 4.522a4814.36 4814.36 0 0 1-2.395 15.505c-.996 6.395-1.812 11.79-1.813 11.987-.001.273 1.108.359 4.615.359 4.563 0 4.618-.008 4.745-.646.356-1.787 4.924-31.414 4.924-31.932 0-.379-.652-.44-4.616-.44-4.562 0-4.618.007-4.746.645zm13.72-.287c-.059.198-.309 1.78-.557 3.517-.248 1.737-.526 3.45-.618 3.804l-.167.646h5.775c3.176 0 5.775.114 5.775.252s-.246 1.785-.546 3.66c-1.186 7.4-2.8 17.845-2.979 19.273l-.189 1.508h9.246l.141-.79c.078-.434.943-5.987 1.922-12.34l1.78-11.551 5.746-.078 5.747-.077.609-3.589c.335-1.974.618-3.815.63-4.092.02-.472-.925-.502-16.094-.502-12.648 0-16.138.077-16.221.359zm33.214.287c.47.9 7.535 12.709 9.542 15.949.992 1.6 1.596 2.865 1.509 3.158-.139.468-1.032 6.174-1.581 10.107-.143 1.027-.327 2.157-.408 2.513l-.147.646h5.047c2.776 0 5.048-.11 5.048-.245 0-.134.449-3.2.999-6.813.994-6.533 1.005-6.575 2.031-7.862 1.016-1.275 6.606-8.09 11.628-14.178 1.412-1.711 2.669-3.294 2.792-3.517.19-.341-.64-.404-5.368-.404h-5.592l-2.322 2.8a252.232 252.232 0 0 1-3.458 4.09 75.617 75.617 0 0 0-1.997 2.377l-.86 1.083-3.024-5.175-3.023-5.175h-11.153l.337.646zM45.94 40.721c1.987.473 2.494 2.293 1.05 3.773l-.818.84H35.55l.386-2.082c.212-1.146.446-2.243.519-2.44.159-.43 7.757-.502 9.485-.091zm-1.488 12.392c1.216.267 1.499.46 1.88 1.277.573 1.233.238 2.566-.855 3.404-.728.558-1.213.61-6.396.697-5.321.089-5.6.067-5.457-.431.083-.288.298-1.59.478-2.893l.327-2.369h4.296c2.362 0 4.94.142 5.727.315z" fill="#fff" opacity=".6"/></svg>