<svg width="167" height="176" fill="none" xmlns="http://www.w3.org/2000/svg"><path d="M88.436 105.111a.839.839 0 0 1-.798-.586l-.112-.294a45.307 45.307 0 0 0-4.565-8.878c-.26-.41-.166-.958.205-1.232a.822.822 0 0 1 1.169.215c1.54 2.327 2.895 4.791 3.99 7.373.26.586.519 1.212.741 1.838.038.098.093.234.149.391.167.469-.074.978-.501 1.134a1.18 1.18 0 0 1-.278.039zm-40.414 62.656c-24.438 0-44.311-20.944-44.311-46.698 0-24.269 17.257-44.255 40.154-46.484h.056c.056 0 .111-.02.167-.02.464 0 .835.392.835.9 0 .47-.353.86-.78.88h-.11C22.007 78.477 5.381 97.7 5.381 121.069c0 24.776 19.112 44.919 42.622 44.919 13.88 0 26.943-7.177 34.922-19.165.037-.039.074-.098.11-.137.465-.489 1.448-.117 1.448.626a.974.974 0 0 1-.13.469.573.573 0 0 1-.092.137c-8.276 12.418-21.822 19.849-36.24 19.849z" fill="#fff"/><path d="M119.275 167.767c-14.418 0-27.963-7.431-36.258-19.868-.018-.039-.055-.059-.074-.098a.906.906 0 0 1-.148-.509c0-.743.983-1.114 1.428-.625.038.039.075.097.112.137 7.979 12.007 21.023 19.164 34.921 19.164 23.492 0 42.622-20.142 42.622-44.919 0-23.369-16.625-42.612-38.688-44.724h-.074c-.353 0-.668-.234-.798-.586-.148-.47.074-.978.52-1.135.13-.039.315-.058.464-.039.055 0 .092 0 .129.02 22.898 2.249 40.155 22.215 40.155 46.483 0 25.755-19.873 46.699-44.311 46.699zm-40.414-62.793a.868.868 0 0 1-.223-.039c-.427-.156-.705-.547-.556-.997.037-.118.092-.235.13-.352.204-.587.482-1.232.76-1.897a47.09 47.09 0 0 1 3.99-7.353.812.812 0 0 1 1.169-.215c.37.274.464.84.204 1.232a46.018 46.018 0 0 0-3.841 7.079c-.278.626-.52 1.232-.76 1.858-.13.391-.502.684-.873.684z" fill="#fff"/><path d="M123.172 76.443a.72.72 0 0 1-.353-.078c-.427-.216-.594-.724-.408-1.174l.018-.02a.55.55 0 0 1 .093-.234c2.487-5.808 3.748-12.007 3.748-18.46 0-24.777-19.112-44.92-42.622-44.92S41.026 31.7 41.026 56.477c0 6.433 1.262 12.632 3.748 18.44l.056.118a.898.898 0 0 1-.148 1.056c-.334.352-.873.352-1.188 0a.864.864 0 0 1-.148-.215c-.019-.04-.093-.176-.112-.216-2.598-6.062-3.896-12.515-3.896-19.183 0-25.755 19.873-46.7 44.31-46.7 24.438 0 44.311 20.945 44.311 46.7 0 6.746-1.336 13.239-3.952 19.32 0 .02-.019.04-.019.06-.018.038-.019.077-.037.097-.167.293-.464.489-.779.489zm-78.286-1.291a1.2 1.2 0 0 1 .037.254c0-.098-.019-.176-.037-.254zm45.572 27.436a.791.791 0 0 1-.594-.254c-.334-.352-.334-.919 0-1.251a.82.82 0 0 1 1.206 0 .906.906 0 0 1 0 1.251.893.893 0 0 1-.612.254zm-6.81.548c-1.354 0-2.69-.059-3.99-.195-.445-.04-.89-.079-1.354-.137a.872.872 0 0 1-.742-.978.86.86 0 0 1 .928-.782c.427.058.853.097 1.299.137a39 39 0 0 0 7.7 0c.464-.04.872.312.928.801.037.489-.297.919-.76.978a44.977 44.977 0 0 1-4.009.176z" fill="#fff"/><path d="M83.648 115.534a.874.874 0 0 1-.52-.176.91.91 0 0 1-.148-1.251 28.005 28.005 0 0 0 3.155-5.554 28.752 28.752 0 0 0 1.484-4.537 6.56 6.56 0 0 0 .13-.587c.111-.547.223-1.075.297-1.623a29.503 29.503 0 0 0 .315-6.512 29.68 29.68 0 0 0-.464-3.735 27.725 27.725 0 0 0-.519-2.23 28.21 28.21 0 0 0-4.398-9.132c-3.024-4.145-7.05-7.313-11.671-9.152a25.026 25.026 0 0 0-9.334-1.78c-6.346 0-12.506 2.406-17.312 6.806l-.074.078a.82.82 0 0 1-1.206 0 .907.907 0 0 1 0-1.251c.037-.04.13-.117.185-.157 5.233-4.713 11.709-7.235 18.426-7.235 3.414 0 6.754.645 9.927 1.897 4.917 1.955 9.204 5.319 12.414 9.738a29.895 29.895 0 0 1 4.676 9.72c.223.782.408 1.564.556 2.366.242 1.27.409 2.6.502 3.97.037.645.055 1.31.055 1.975 0 1.681-.13 3.344-.39 4.928-.074.567-.204 1.153-.315 1.72-.037.216-.093.431-.148.646a30.333 30.333 0 0 1-1.578 4.811 29.537 29.537 0 0 1-3.358 5.905c-.186.215-.427.352-.687.352z" fill="#fff"/><path d="M83.648 148.212c-.464 0-.853-.391-.853-.9v-32.384a29.179 29.179 0 0 1-3.21-5.749 30.15 30.15 0 0 1-1.56-4.752c-.036-.098-.073-.274-.11-.45a18.29 18.29 0 0 1-.371-1.916 30.18 30.18 0 0 1-.39-4.909c0-.665.018-1.33.056-1.975.092-1.389.26-2.718.5-3.97.168-.802.335-1.603.557-2.386a29.893 29.893 0 0 1 4.676-9.719c3.173-4.36 7.404-7.705 12.247-9.68a26.702 26.702 0 0 1 10.094-1.955c6.717 0 13.23 2.542 18.333 7.157a.893.893 0 0 1 .26.274.91.91 0 0 1-.074 1.251.802.802 0 0 1-1.188-.078c-4.88-4.42-11.004-6.805-17.331-6.805a25.55 25.55 0 0 0-9.5 1.838c-4.547 1.838-8.536 4.987-11.505 9.093a28.21 28.21 0 0 0-4.397 9.133 32.209 32.209 0 0 0-.52 2.23 32.876 32.876 0 0 0-.483 3.734 30.573 30.573 0 0 0-.055 1.858c0 1.584.13 3.129.37 4.635.094.626.224 1.232.353 1.818.019.137.038.235.075.333.39 1.603.872 3.109 1.484 4.537a27.796 27.796 0 0 0 3.173 5.632.947.947 0 0 1 .167.547v32.678a.814.814 0 0 1-.798.88z" fill="#fff"/><path d="M83.667 148.212c-.464 0-.854-.391-.854-.9 0-.411.26-.763.613-.86 9.055-3.11 15.846-11.128 17.739-20.944.352-1.8.538-3.677.538-5.574a29.12 29.12 0 0 0-1.503-9.289 27.968 27.968 0 0 0-5.4-9.504 25.411 25.411 0 0 0-2.227-2.288.909.909 0 0 1-.074-1.251c.316-.372.854-.41 1.188-.078a28.4 28.4 0 0 1 2.356 2.424 29.49 29.49 0 0 1 5.734 10.111 31.121 31.121 0 0 1 1.596 9.875c0 2.015-.186 4.009-.575 5.945-2.004 10.404-9.204 18.93-18.797 22.254a.606.606 0 0 1-.334.079zm-.019-54.756c-.093 0-.167-.02-.26-.039a24.148 24.148 0 0 0-2.022-.606 25.868 25.868 0 0 0-2.913-.548 26.212 26.212 0 0 0-7.534.157c-.445.097-.89-.235-.965-.724-.074-.489.223-.939.687-1.017 2.56-.47 5.362-.528 8.034-.176a25 25 0 0 1 3.1.587c.723.176 1.428.39 2.133.626a.887.887 0 0 1 .538 1.114.835.835 0 0 1-.798.626z" fill="#fff"/><path d="M83.667 148.212a.606.606 0 0 1-.334-.079c-9.612-3.304-16.811-11.831-18.834-22.254a31.597 31.597 0 0 1-.557-5.945c0-3.363.538-6.688 1.577-9.836a30.069 30.069 0 0 1 5.753-10.13c.723-.84 1.484-1.603 2.226-2.327a29.35 29.35 0 0 1 4.138-3.188.805.805 0 0 1 1.15.313c.242.43.112.978-.296 1.213a25.967 25.967 0 0 0-3.897 2.992 32.66 32.66 0 0 0-2.115 2.19 28.296 28.296 0 0 0-5.4 9.524 29.377 29.377 0 0 0-.946 14.823c1.892 9.816 8.702 17.854 17.757 20.944.149.039.26.137.372.254a.88.88 0 0 1 .24.606c0 .509-.37.9-.834.9zm-.019-54.756a.835.835 0 0 1-.797-.626c-.149-.469.11-.977.556-1.114a26.8 26.8 0 0 1 2.134-.626c.984-.254 2.023-.45 3.099-.587 2.598-.332 5.307-.293 7.849.137.464.078.78.528.705 1.017-.074.489-.52.821-.965.743a25.93 25.93 0 0 0-7.385-.137 25.56 25.56 0 0 0-2.895.548 24.09 24.09 0 0 0-2.022.606c-.112.02-.186.04-.279.04z" fill="#fff"/><path d="M70.585 111.643c-1.503 0-2.969-.118-4.397-.352-5.196-.861-10.058-3.246-14.066-6.903-6.16-5.652-9.704-13.826-9.704-22.411 0-2.249.241-4.478.705-6.649 0-.02 0-.04.019-.059a.797.797 0 0 1 .222-.41l.408.43h.223l.817.235c0 .02-.019.058-.019.078 0 .039 0 .078-.019.117a29.217 29.217 0 0 0-.668 6.258c0 8.076 3.322 15.762 9.111 21.061 3.767 3.442 8.332 5.671 13.212 6.493 3.395.567 7.088.41 10.484-.47a26.725 26.725 0 0 0 3.154-1.036c.427-.176.928.059 1.095.508.167.45-.056.978-.483 1.154-1.15.469-2.245.822-3.358 1.115a27.698 27.698 0 0 1-6.736.841zm25.959 0c-2.226 0-4.416-.274-6.55-.822a29.104 29.104 0 0 1-3.377-1.075.904.904 0 0 1-.5-1.154c.166-.469.649-.704 1.094-.528 1.058.411 2.134.763 3.173 1.017 3.433.88 7.162.997 10.447.411 4.88-.841 9.426-3.11 13.174-6.551 5.715-5.3 9-12.946 9-20.964 0-2.093-.223-4.185-.668-6.219v-.039c-.019-.039-.019-.098-.037-.137a.897.897 0 0 1 .482-1.134c.445-.176.928.078 1.095.528.018.04.055.176.074.274 0 .039.018.078.018.117.464 2.151.706 4.38.706 6.61 0 8.526-3.489 16.661-9.575 22.313-3.989 3.676-8.832 6.082-14.009 6.981-1.43.235-2.97.372-4.547.372z" fill="#fff"/><path d="M88.306 104.74a.775.775 0 0 1-.613-.294.907.907 0 0 1 .056-1.251c.093-.078.167-.157.26-.235a24.598 24.598 0 0 0 1.837-1.877c.946-1.056 1.8-2.19 2.579-3.383 1.318-2.015 2.357-4.205 3.136-6.493a.919.919 0 0 1 .371-.47l26.794-16.054a.827.827 0 0 1 1.151.332c.222.43.093.978-.316 1.213L97.045 92.126a30.627 30.627 0 0 1-3.21 6.59 30.07 30.07 0 0 1-4.676 5.574l-.26.235c-.185.136-.39.215-.593.215zm-9.446.097a.6.6 0 0 1-.407-.156c-.019-.02-.167-.157-.186-.176a31.019 31.019 0 0 1-2.245-2.249c-.928-1.036-1.818-2.21-2.653-3.442a29.71 29.71 0 0 1-3.266-6.668L43.55 76.228c-.408-.235-.538-.783-.316-1.213.223-.43.742-.587 1.15-.332l26.814 16.074a.765.765 0 0 1 .37.47 28.57 28.57 0 0 0 3.174 6.55 29.002 29.002 0 0 0 2.486 3.247 26.267 26.267 0 0 0 2.078 2.092c.353.313.483.939.204 1.311-.167.273-.408.41-.65.41zm-66.465 42.925a.44.44 0 0 1-.353-.196c-.13-.215-.074-.489.13-.606l53.923-36.921a.391.391 0 0 1 .575.137c.13.215.074.489-.13.606l-53.922 36.921a.425.425 0 0 1-.223.059zM83.648 80.1c-.24 0-.426-.196-.426-.45V10.638c0-.254.185-.45.426-.45.242 0 .427.196.427.45V79.65c0 .254-.186.45-.427.45zm71.254 67.662c-.075 0-.167-.02-.223-.078l-53.941-36.941a.441.441 0 0 1-.13-.606.41.41 0 0 1 .575-.137l53.941 36.96c.204.137.26.411.13.606-.074.137-.204.196-.352.196z" fill="#fff"/></svg>