<svg width="167" height="176" fill="none" xmlns="http://www.w3.org/2000/svg"><path d="M63.854 129.491a.807.807 0 0 1-.605-.273.923.923 0 0 1-.166-.939l26.592-68.464a.892.892 0 0 1 .33-.41l36.557-24.954a.77.77 0 0 1 .862-.02c.276.157.441.47.422.803l-1.578 71.495a.876.876 0 0 1-.569.821l-61.551 21.922c-.11.019-.202.019-.294.019zm27.252-68.757-25.784 66.411 59.276-21.101 1.523-69.207-35.015 23.897z" fill="#fff"/><path d="M62.588 175.427h-.018c-.46-.019-.826-.43-.808-.919l1.248-45.525-31.693-32.11a.941.941 0 0 1-.257-.567l-5.542-67.271c-.019-.313.11-.626.348-.802a.787.787 0 0 1 .826-.079l64.084 31.192c.422.195.606.743.404 1.173-.184.45-.698.645-1.101.43L27.316 30.384l5.377 65.433 31.73 32.149a.887.887 0 0 1 .257.665l-1.266 45.916c0 .489-.367.88-.826.88zm60.872-7.763h-.036c-.459-.02-.826-.43-.808-.919l1.945-60.095c.019-.371.239-.684.551-.801l34.978-13.435c.441-.176.918.078 1.065.528.165.47-.074.978-.496 1.134l-34.446 13.22-1.927 59.488c0 .508-.367.88-.826.88zm13.287-148.388h-.037L87.069 17.36a.553.553 0 0 1-.294-.078L56.55 3.67c-.422-.196-.624-.704-.44-1.173.183-.45.679-.665 1.1-.47L87.29 15.56l49.475 1.897c.459.02.826.43.808.919 0 .508-.367.9-.826.9z" fill="#fff"/><path d="M142.766 73.563a.815.815 0 0 1-.752-.529L126.378 35.86 87.032 17.4 26.51 29.817a.866.866 0 0 1-.936-.548l-4.9-13.141c-.165-.45.036-.978.459-1.154a.823.823 0 0 1 1.082.489l4.662 12.476L86.959 15.6a.735.735 0 0 1 .495.06l39.879 18.714a.823.823 0 0 1 .422.45l15.764 37.488c.183.45 0 .978-.422 1.173a.64.64 0 0 1-.331.079z" fill="#fff"/><path d="M62.588 175.427a.792.792 0 0 1-.66-.352L27.756 127.77l-14.04-1.31a.85.85 0 0 1-.752-.782l-5.542-53.23v-.059c0-.078 0-.156.037-.254L20.636 15.6a.894.894 0 0 1 .532-.626L56.624 2.048c.11-.04.22-.059.33-.04l39.878 2.914 40.172 12.633a.87.87 0 0 1 .587.744l5.983 54.012 17.434 20.357c.147.176.22.391.22.626l-1.064 41.028c0 .254-.11.488-.294.645l-35.877 32.482a.95.95 0 0 1-.441.215l-60.872 7.763h-.092zm-33.51-48.752 33.895 46.914 60.157-7.666 35.4-32.051 1.028-40.285-17.397-20.298a1.177 1.177 0 0 1-.221-.49l-5.945-53.718L96.538 6.663 57.01 3.769l-34.868 12.71L9.185 72.058l23.27 23.525a.89.89 0 0 1 .256.763l-3.633 30.33zm-14.535-1.916 12.92 1.212 3.542-29.392L9.33 74.677l5.212 50.082z" fill="#fff"/><path d="M63.212 152.332a.44.44 0 0 1-.367-.215L31.519 96.462a.484.484 0 0 1 .128-.606c.184-.137.422-.098.569.098l31.638 44.528a.46.46 0 0 1-.073.625c-.184.157-.44.118-.587-.078l-26.959-37.957 27.344 48.576c.11.215.055.489-.147.606a.336.336 0 0 1-.22.078z" fill="#fff"/><path d="M54.275 163.479a.416.416 0 0 1-.386-.293L31.5 96.384c-.073-.215.019-.47.22-.567.202-.098.44 0 .533.215l31.05 65.922a.44.44 0 0 1-.183.586c-.202.118-.459.02-.569-.195l-27.968-59.391 20.095 59.938c.074.235-.036.489-.257.567-.036.02-.091.02-.146.02z" fill="#fff"/><path d="M43.08 147.971a.418.418 0 0 1-.404-.352l-10.13-46.425 1.615 33.362a.433.433 0 0 1-.404.47c-.238-.02-.422-.176-.44-.431l-1.854-38.368a.442.442 0 0 1 .368-.469c.183-.02.422.117.458.333l11.195 51.294c.055.234-.092.489-.312.528-.018.058-.055.058-.092.058zm20.774-18.91a.45.45 0 0 1-.33-.156.453.453 0 0 1 .037-.607l62.395-59.703c.165-.156.441-.156.587.04.147.175.147.469-.036.625L69.91 123.43l55.808-42.866c.183-.156.44-.097.587.098a.483.483 0 0 1-.092.626l-62.139 47.715c-.055.02-.128.059-.22.059z" fill="#fff"/><path d="M64.808 128.553a.421.421 0 0 1-.367-.255.478.478 0 0 1 .166-.586l60.945-36.589a.408.408 0 0 1 .569.176.464.464 0 0 1-.165.607l-52.65 31.621 52.118-25.168c.22-.098.459 0 .551.215.091.215 0 .489-.202.587l-60.781 29.353c-.073.019-.129.039-.184.039zm41.053-39.679c-.055 0-.11-.02-.165-.039-.22-.097-.312-.352-.22-.586l21.141-53.23a.428.428 0 0 1 .514-.255.46.46 0 0 1 .275.528l-10.552 43.1c-.055.235-.276.392-.514.314-.22-.06-.349-.313-.294-.548l9.103-37.175-18.903 47.598c-.073.176-.22.293-.385.293z" fill="#fff"/><path d="M77.581 115.92a.39.39 0 0 1-.238-.078.506.506 0 0 1-.129-.626l49.403-80.276a.415.415 0 0 1 .569-.137c.202.118.257.392.147.587L94.777 99.552a.408.408 0 0 1-.57.176.464.464 0 0 1-.164-.606l27.876-54.932-44.007 71.515a.345.345 0 0 1-.33.215zm-13.727 13.141a.455.455 0 0 1-.22-.059.444.444 0 0 1-.129-.606l44.999-76.95-29.895 40.362c-.147.195-.404.234-.587.078a.46.46 0 0 1-.074-.626l34.556-46.64a.412.412 0 0 1 .569-.097.453.453 0 0 1 .11.606l-48.962 83.737a.47.47 0 0 1-.367.195z" fill="#fff"/><path d="M105.861 69.984c-.037 0-.073 0-.128-.02a.439.439 0 0 1-.276-.547l6.956-24.68c.055-.195.238-.351.44-.312.202.02.349.195.367.41l.936 11.831c.018.255-.147.47-.385.49-.257.038-.441-.157-.459-.411l-.734-9.524-6.332 22.43a.394.394 0 0 1-.385.333z" fill="#fff"/><path d="M118.983 48.649a.504.504 0 0 1-.184-.04l-6.166-3.343a.44.44 0 0 1-.22-.43.459.459 0 0 1 .293-.392l10.332-3.422a.396.396 0 0 1 .514.293c.073.235-.055.49-.275.548l-9.341 3.11 5.248 2.854a.464.464 0 0 1 .184.607.471.471 0 0 1-.385.215z" fill="#fff"/><path d="M85.307 73.797a.353.353 0 0 1-.293-.137.457.457 0 0 1 0-.626l27.509-28.492a.392.392 0 0 1 .587 0 .457.457 0 0 1 0 .626L85.6 73.66a.355.355 0 0 1-.293.137zm74.031 60.935a.401.401 0 0 1-.367-.254L143.06 99.962a.441.441 0 0 1 .183-.586.406.406 0 0 1 .551.195l14.369 31.152-7.12-33.948a.445.445 0 0 1 .312-.528c.22-.059.44.098.495.332l7.892 37.606a.427.427 0 0 1-.276.508c-.036.039-.091.039-.128.039z" fill="#fff"/><path d="M159.338 134.732a.419.419 0 0 1-.257-.098l-32.336-28.199a.457.457 0 0 1-.055-.625.393.393 0 0 1 .587-.059l29.198 25.481-21.27-28.141a.478.478 0 0 1 .055-.625.41.41 0 0 1 .588.058l23.802 31.485c.128.176.128.43-.037.586a.321.321 0 0 1-.275.137z" fill="#fff"/><path d="M159.338 134.732c-.037 0-.074 0-.11-.019l-34.501-9.407a.44.44 0 0 1-.294-.547c.055-.235.275-.391.514-.313l30.941 8.428-30.941-16.993a.465.465 0 0 1-.184-.607c.11-.215.367-.312.569-.195l34.208 18.793a.456.456 0 0 1 .202.547c-.074.196-.239.313-.404.313z" fill="#fff"/><path d="M124.231 143.61a.42.42 0 0 1-.404-.332c-.055-.235.092-.489.312-.528l31.932-8.076-31.528-.704a.417.417 0 0 1-.404-.45c0-.254.239-.47.422-.43l34.795.782c.202 0 .386.176.404.391.018.215-.11.43-.312.489l-35.107 8.878c-.055-.02-.073-.02-.11-.02z" fill="#fff"/><path d="M123.901 153.623a.42.42 0 0 1-.367-.254c-.11-.215-.019-.489.183-.587l35.437-18.891a.392.392 0 0 1 .551.196.441.441 0 0 1-.184.587l-35.437 18.89a.297.297 0 0 1-.183.059zm14.901-118.057c-.44 0-4.202-1.369-51.806-18.676a.474.474 0 0 1-.276-.547c.055-.235.257-.372.478-.313l50.613 10.795c.221.039.367.274.331.528-.037.234-.257.41-.496.352L93.254 18.24c13.525 4.908 45.126 16.407 45.475 16.524l-.129.41.239.373c0 .019 0 .019-.037.019zm.881 9.739a.354.354 0 0 1-.202-.059l-11.561-6.981a.464.464 0 0 1-.165-.607.408.408 0 0 1 .569-.176l11.561 6.982a.464.464 0 0 1 .165.606.4.4 0 0 1-.367.235zm1.266 11.361a.433.433 0 0 1-.293-.117l-9.029-9.347a.457.457 0 0 1 0-.626.392.392 0 0 1 .587 0l9.029 9.347a.457.457 0 0 1 0 .626.401.401 0 0 1-.294.117z" fill="#fff"/></svg>