<svg width="167" height="176" fill="none" xmlns="http://www.w3.org/2000/svg"><path d="M86.166 170.237a.782.782 0 0 1-.594-.274.925.925 0 0 1-.148-1.037l35.2-72.687a.744.744 0 0 1 .371-.392l33.752-17.873c.241-.137.52-.118.761 0a.88.88 0 0 1 .445.645l8.165 50.414c.055.391-.13.782-.464.939L86.537 170.1a.548.548 0 0 1-.371.137zm35.831-72.903-33.92 70.028 74.278-38.661-7.868-48.576-32.49 17.209zm-73.109 55.537a.884.884 0 0 1-.483-.156L4.076 119.823c-.278-.196-.408-.548-.352-.9l17.924-101.18a.885.885 0 0 1 .576-.685c.296-.098.612-.02.853.215l61.883 62.89a.93.93 0 0 1 .167 1.057L49.63 152.383a.82.82 0 0 1-.557.449.616.616 0 0 1-.185.039zM5.486 118.688l43.086 31.974 34.736-69.677-60.305-61.287-17.517 98.99z" fill="#fff"/><path d="M121.366 97.549a.81.81 0 0 1-.408-.118L98.672 84.525 84.2 81.689c-.464-.098-.76-.547-.668-1.036.093-.49.538-.822.983-.704l14.604 2.874c.092.02.167.06.26.098l22.396 12.985c.408.235.557.782.334 1.212a.845.845 0 0 1-.742.43zm-35.2 72.688a.872.872 0 0 1-.557-.215l-20.058-18.148-16.626.997c-.501.059-.854-.352-.89-.841-.02-.488.333-.919.797-.938l16.96-1.017a.804.804 0 0 1 .594.215l20.318 18.382c.353.313.39.88.093 1.252a.775.775 0 0 1-.631.313z" fill="#fff"/><path d="M65.848 151.855c-.13 0-.26-.04-.39-.098a.905.905 0 0 1-.353-1.193l33.122-67.29a.892.892 0 0 1 .427-.412l32.639-14.666c.427-.196.928.02 1.113.47.186.449-.018.977-.445 1.172l-32.36 14.55-32.974 66.997c-.186.293-.483.47-.78.47z" fill="#fff"/><path d="M155.137 79.675a.897.897 0 0 1-.315-.059l-23.529-9.778c-.074-.039-.13-.078-.204-.117L52.97 7.965 38.293 24.098a.772.772 0 0 1-.891.215L22.205 18.74c-.445-.157-.668-.665-.52-1.134.149-.47.631-.724 1.077-.548l14.696 5.378 14.825-16.29a.8.8 0 0 1 1.114-.098l78.638 62.148 23.417 9.739c.427.175.65.703.483 1.153-.148.372-.464.587-.798.587z" fill="#fff"/><path d="M98.97 84.564a.839.839 0 0 1-.576-.235L37.105 24.118a.926.926 0 0 1-.037-1.252c.315-.352.854-.391 1.188-.039l61.288 60.212c.335.332.353.9.038 1.251a.782.782 0 0 1-.613.274z" fill="#fff"/><path d="M55.92 152.011a.397.397 0 0 1-.24-.078.476.476 0 0 1-.112-.626l38.224-60.29-39.19 50.375a.402.402 0 0 1-.593.059.455.455 0 0 1-.056-.626l44.664-57.434a.416.416 0 0 1 .575-.079.45.45 0 0 1 .093.606l-43.03 67.878a.349.349 0 0 1-.335.215z" fill="#fff"/><path d="M61.84 151.639a.36.36 0 0 1-.204-.058.439.439 0 0 1-.149-.606L97.188 86.05l-29.355 28.864a.4.4 0 0 1-.594-.019.454.454 0 0 1 .019-.626L98.69 83.371a.407.407 0 0 1 .557-.02.468.468 0 0 1 .111.567l-37.111 67.526a.584.584 0 0 1-.408.195z" fill="#fff"/><path d="M76.628 96.766a.405.405 0 0 1-.37-.234.461.461 0 0 1 .166-.606l19.78-11.186-15.14 3.305c-.242.058-.446-.098-.502-.352a.442.442 0 0 1 .334-.528l17.999-3.93a.433.433 0 0 1 .483.273.454.454 0 0 1-.205.547l-22.34 12.633a.3.3 0 0 1-.205.078zm77.859 37.469a.364.364 0 0 1-.241-.078l-37.723-27.613a.454.454 0 0 1-.13-.586c.111-.196.352-.274.538-.176l46.537 23.036c.205.098.297.372.204.587a.419.419 0 0 1-.556.215l-41.991-20.788 33.604 24.601a.477.477 0 0 1 .111.626.45.45 0 0 1-.353.176z" fill="#fff"/><path d="M137.361 143.152a.444.444 0 0 1-.371-.215l-20.616-36.51a.45.45 0 0 1 .112-.587.408.408 0 0 1 .556.039l29.337 31.543a.454.454 0 0 1 0 .626.4.4 0 0 1-.594 0l-26.868-28.903 18.815 33.323c.111.215.056.489-.149.606a.34.34 0 0 1-.222.078z" fill="#fff"/><path d="M122.089 151.092c-.204 0-.389-.157-.426-.391l-5.344-44.47c-.019-.234.111-.43.315-.488.223-.059.427.078.501.293l12.841 40.558c.074.235-.037.489-.26.567-.223.078-.464-.059-.538-.274l-11.486-36.275 4.806 39.991a.423.423 0 0 1-.371.489h-.038z" fill="#fff"/><path d="M107.375 158.758h-.074a.436.436 0 0 1-.334-.528l9.389-52.135c.037-.235.204-.392.464-.352a.412.412 0 0 1 .371.449l-1.169 47.853c0 .254-.241.469-.427.43-.241 0-.408-.215-.408-.45l1.039-42.357-8.424 46.738c-.056.195-.223.352-.427.352z" fill="#fff"/><path d="M92.197 166.658a.507.507 0 0 1-.167-.039c-.223-.098-.316-.352-.223-.587l24.567-60.016c.093-.215.316-.332.539-.234.204.078.315.332.259.547l-17.442 56.32a.442.442 0 0 1-.538.293c-.223-.078-.334-.332-.278-.567l14.584-47.089-20.912 51.118c-.074.137-.222.254-.39.254zm66.781-39.131a.405.405 0 0 1-.371-.234l-19.799-39.835a.45.45 0 0 1 .186-.606c.204-.118.464-.04.575.195l17.832 35.865-11.004-39.56c-.074-.235.056-.49.279-.548a.412.412 0 0 1 .519.313l12.191 43.863c.056.215-.056.45-.241.528-.056 0-.111.019-.167.019z" fill="#fff"/><path d="M158.978 127.527c-.223 0-.39-.176-.427-.391l-5.381-47.48c-.037-.255.13-.47.371-.49.278 0 .445.137.464.392l5.066 44.723 1.633-8.507c.037-.234.278-.41.501-.352.222.04.371.274.334.529l-2.153 11.224a.424.424 0 0 1-.408.352z" fill="#fff"/><path d="M158.978 127.527a.397.397 0 0 1-.278-.117l-34.254-32.188a.473.473 0 0 1-.037-.626.417.417 0 0 1 .594-.04l30.839 28.982-23.807-32.423a.458.458 0 0 1 .074-.626c.186-.156.446-.117.594.078l26.609 36.237c.13.176.111.45-.037.606a.444.444 0 0 1-.297.117z" fill="#fff"/><path d="M158.477 127.058a.35.35 0 0 1-.223-.078l-38.985-26.087a.442.442 0 0 1-.13-.607c.13-.215.39-.273.575-.136l38.986 26.087c.204.137.259.41.13.606a.396.396 0 0 1-.353.215z" fill="#fff"/></svg>