<svg width="167" height="176" fill="none" xmlns="http://www.w3.org/2000/svg"><path d="M103.162 169.257c-.056 0-.093 0-.148-.019l-46.074-8.546a.844.844 0 0 1-.52-.332l-24.957-34.633L1.96 69.641a.971.971 0 0 1-.074-.684l9.816-36.197a.894.894 0 0 1 .352-.509l35.85-24.288c.148-.098.315-.156.464-.137l63.794 1.35c.074 0 .148.02.222.039l38.837 12.359c.278.078.482.313.575.606l11.523 42.729a.965.965 0 0 1-.055.645l-21.117 43.609-25.848 45.252-12.469 14.529c-.204.216-.427.313-.668.313zm-45.61-10.247 45.295 8.39 12.061-14.022 25.718-45.056 20.949-43.257-11.3-41.907-38.28-12.183-63.423-1.35-35.367 23.956-9.63 35.532 29.28 55.655 24.698 34.242z" fill="#fff"/><path d="M44.916 60.665a.754.754 0 0 1-.52-.195L11.963 33.718a.932.932 0 0 1-.149-1.252.824.824 0 0 1 1.188-.156L45.14 58.827l55.648-9.738 10.52-39.249c.13-.47.594-.744 1.039-.607.445.137.705.626.575 1.095l-10.651 39.796c-.092.332-.352.587-.668.645l-56.538 9.895h-.149z" fill="#fff"/><path d="M141.349 109.672a.857.857 0 0 1-.686-.372l-39.895-58.901a.894.894 0 0 1 .205-1.232.795.795 0 0 1 1.169.215l39.894 58.901c.278.411.186.958-.204 1.232a.757.757 0 0 1-.483.157zm-25.81 45.193a.83.83 0 0 1-.427-.118l-44.59-27.436a.875.875 0 0 1-.352-.431L44.137 60.098c-.186-.45.037-.977.464-1.154.427-.195.928.04 1.095.49l25.922 66.488 44.347 27.28a.902.902 0 0 1 .297 1.213.82.82 0 0 1-.723.45z" fill="#fff"/><path d="M70.95 127.448h-.019l-38.837-1.35c-.464-.019-.835-.43-.816-.919.018-.489.39-.86.872-.86l38.837 1.349c.464.02.835.43.816.919-.037.469-.408.861-.853.861zm50.452-82.29h-.018l-62.83-3.364c-.166 0-.315-.137-.37-.313L47.94 8.882a.467.467 0 0 1 .26-.567.416.416 0 0 1 .538.274l10.15 32.306 62.402 3.344 29.429-22.176a.424.424 0 0 1 .594.098c.13.195.093.488-.093.625l-29.54 22.255c-.112.078-.186.117-.279.117z" fill="#fff"/><path d="M22.093 90.527a.36.36 0 0 1-.297-.137L2.386 69.524a.453.453 0 0 1 0-.626.4.4 0 0 1 .595 0l19.075 20.514 36.183-48.36c.149-.196.408-.236.594-.08a.458.458 0 0 1 .074.627L22.427 90.35a.474.474 0 0 1-.316.176h-.018z" fill="#fff"/><path d="M57.07 160.262a.42.42 0 0 1-.39-.274l-11.096-27.886-23.862-41.79c-.112-.215-.056-.49.148-.607a.408.408 0 0 1 .575.157l23.9 41.849 11.115 27.945a.463.463 0 0 1-.223.586c-.056.02-.111.02-.167.02zm68.489-41.145c-.056 0-.093 0-.149-.039l-32.639-13.259a.4.4 0 0 1-.241-.254.46.46 0 0 1 .018-.352l28.483-60.7c.111-.216.353-.313.557-.196a.443.443 0 0 1 .185.587l-28.278 60.27 31.915 12.965 36.722-53.23c.13-.196.408-.254.593-.098.186.137.223.43.093.626l-36.907 53.504a.448.448 0 0 1-.352.176z" fill="#fff"/><path d="M103.162 168.808a.608.608 0 0 1-.185-.04c-.205-.097-.297-.371-.205-.586l22.397-49.691a.42.42 0 0 1 .557-.215c.204.098.297.372.204.587l-22.397 49.69c-.055.176-.222.255-.371.255zm-57.188-36.413a.405.405 0 0 1-.371-.235.461.461 0 0 1 .167-.606l46.927-26.537a.415.415 0 0 1 .575.176.462.462 0 0 1-.167.607l-46.927 26.536a.353.353 0 0 1-.204.059z" fill="#fff"/></svg>