<svg width="167" height="176" fill="none" xmlns="http://www.w3.org/2000/svg"><path d="M80.186 167.117c-.056 0-.112 0-.149-.02l-34.884-6.962a.522.522 0 0 1-.297-.137l-28.26-19.555c-.093-.059-.167-.157-.241-.254l-10.243-15.86a.963.963 0 0 1-.111-.782l10.02-32.15 2.709-25.852L3.81 36.446a.976.976 0 0 1-.056-.723.883.883 0 0 1 .483-.528L28.99 24.518 52.093 7.974a.818.818 0 0 1 .76-.098l22.935 8.878a.92.92 0 0 1 .353.254l7.849 9.895 49.079-2.014a.93.93 0 0 1 .334.059l30.505 12.594a.905.905 0 0 1 .446 1.232L149.213 70.59l-14.752 28.512-1.058 29.02a.819.819 0 0 1-.148.45l-9.278 14.725a.662.662 0 0 1-.223.235l-19.947 14.842c-.074.039-.13.079-.204.118l-23.139 8.545a.463.463 0 0 1-.278.079zm-34.55-8.703 34.494 6.904 22.824-8.429 19.724-14.667 9.055-14.373 1.058-28.981c0-.137.037-.274.111-.391l14.826-28.669 14.715-30.917-29.485-12.164-49.32 2.015a.822.822 0 0 1-.687-.313l-7.96-10.052-22.323-8.643L29.77 26.12 5.741 36.505l14.603 28.473a.994.994 0 0 1 .093.528l-2.783 26.302-9.928 31.915 9.909 15.351 28 19.34z" fill="#fff"/><path d="M80.186 167.117c-.446 0-.817-.372-.835-.841l-1.15-22c0-.078 0-.137.018-.215l7.18-40.754-4.471-40.5c-.037-.371.148-.743.464-.9l25.05-12.808 30.635-11.831c.093-.04.204-.04.297-.059l26.238.333c.463 0 .835.41.835.9a.87.87 0 0 1-.854.88h-.019l-26.089-.333-30.412 11.753-24.42 12.496 4.417 40.01v.274l-7.181 40.793 1.15 21.902c.019.489-.334.919-.798.939-.018-.039-.037-.039-.055-.039z" fill="#fff"/><path d="M81.763 63.57h-.056l-29.28-2.112a1.027 1.027 0 0 1-.427-.156L30.197 44.855 4.331 36.896c-.446-.137-.705-.626-.576-1.095.13-.47.594-.743 1.04-.606l25.996 8.018a.68.68 0 0 1 .26.137l21.728 16.387 29.04 2.093c.463.039.816.45.779.958a.834.834 0 0 1-.835.782z" fill="#fff"/><path d="M123.29 143.728c-.408 0-.76-.313-.835-.743l-5.919-37.234a.848.848 0 0 1 .019-.371l9.444-36.843 10.243-29.783-29.911-6.12-36.314-3.188a.81.81 0 0 1-.538-.274L51.963 9.362A.926.926 0 0 1 52 8.11a.816.816 0 0 1 1.188.04L70.48 27.705l36.072 3.168 30.97 6.336a.932.932 0 0 1 .575.43c.13.235.148.49.055.743l-10.558 30.683-9.37 36.589 5.882 37.057c.074.489-.241.939-.687 1.017h-.13z" fill="#fff"/><path d="M103.343 158.571h-.037c-.464-.02-.835-.43-.798-.939l1.299-31.171 1.206-38.525.928-37.155-26.368 1.31a.81.81 0 0 1-.426-.098l-25.57-13.708L28.954 26.16a.897.897 0 0 1-.408-1.173c.204-.45.705-.645 1.113-.43L54.301 36.7l25.402 13.63 27.054-1.35c.242.02.464.079.631.255.167.176.26.41.26.665l-.965 38.113-1.206 38.544-1.299 31.172c-.018.469-.39.841-.835.841z" fill="#fff"/><path d="M45.32 160.135c-.464 0-.835-.391-.854-.86l-.5-20.26a.96.96 0 0 1 .055-.332l13.601-37.293-5.975-40.675c-.055-.43.186-.841.575-.978l26.925-9.308 26.868-19.4a.836.836 0 0 1 .297-.136l26.609-5.926c.464-.117.909.216 1.002.685.092.489-.204.958-.65 1.056l-26.441 5.886L80 51.974c-.074.039-.13.078-.222.117L53.41 61.204l5.882 40.147a.913.913 0 0 1-.055.45l-13.62 37.351.5 20.084c.02.489-.352.899-.816.919l.019-.02z" fill="#fff"/><path d="M17.041 140.58a.95.95 0 0 1-.39-.098.905.905 0 0 1-.352-1.193l12.952-26.165 13.601-28.317-13.082-40.48a.983.983 0 0 1 .056-.723.861.861 0 0 1 .538-.43l24.308-5.945 14.974-9.465c.39-.254.928-.117 1.17.313.24.43.11.977-.298 1.232l-15.085 9.523a.902.902 0 0 1-.242.098l-23.528 5.769 12.896 39.874a.964.964 0 0 1-.037.684l-13.768 28.669-12.97 26.184a.846.846 0 0 1-.743.47z" fill="#fff"/><path d="M79.054 145.097h-.13l-34.235-5.221a.874.874 0 0 1-.594-.411l-14.807-25.461L16.113 92.18a.94.94 0 0 1 .26-1.232c.39-.274.91-.137 1.17.274l13.174 21.843 14.603 25.129 33.53 5.124 25.18-17.424 12.617-20.749a.924.924 0 0 1 .409-.352l16.273-6.707a.83.83 0 0 1 1.095.508c.167.45-.038.978-.483 1.154l-16.013 6.61-12.581 20.67a.771.771 0 0 1-.241.254L79.499 144.98a.897.897 0 0 1-.445.117z" fill="#fff"/><path d="M86.254 104.206h-.056l-27.76-1.857a.838.838 0 0 1-.575-.294L42.945 84.827 19.1 66.073c-.371-.293-.445-.86-.167-1.251a.823.823 0 0 1 1.187-.176l23.956 18.851 14.807 17.072 27.11 1.819 19.353-15.156 20.912-19.184a.796.796 0 0 1 .612-.215l21.655 1.467c.464.039.816.45.779.939-.037.488-.445.86-.89.82l-21.302-1.446L106.405 88.6l-19.65 15.39a.68.68 0 0 1-.501.215zM62.057 163.03a.391.391 0 0 1-.334-.176l-15.086-20.671 7.85 18.617c.092.235 0 .489-.223.587a.413.413 0 0 1-.557-.235l-9.278-22.019a.45.45 0 0 1 .167-.567.417.417 0 0 1 .557.117l17.238 23.603a.457.457 0 0 1-.074.626c-.093.098-.167.118-.26.118z" fill="#fff"/><path d="M76.215 165.865a.428.428 0 0 1-.26-.098l-25.328-21.335 18.258 19.145a.454.454 0 0 1 0 .626.4.4 0 0 1-.593 0l-23.77-24.914c-.167-.156-.167-.43-.018-.606a.414.414 0 0 1 .575-.059l31.396 26.439a.477.477 0 0 1 .074.626.442.442 0 0 1-.334.176z" fill="#fff"/><path d="M80.019 163.303c-.075 0-.167-.019-.223-.078l-35.218-23.877a.483.483 0 0 1-.149-.587c.111-.215.353-.293.557-.176l34.884 17.541c.204.098.297.372.204.587a.419.419 0 0 1-.556.215l-28.873-14.51 29.615 20.064c.204.137.26.411.13.606a.471.471 0 0 1-.371.215z" fill="#fff"/><path d="M79.35 150.475c-.036 0-.073 0-.13-.02l-34.55-11.049a.437.437 0 0 1-.278-.547c.074-.235.297-.372.52-.293l34.55 11.048a.438.438 0 0 1 .278.548.405.405 0 0 1-.39.313zm-6.828-6.805c-.055 0-.092 0-.148-.02-.223-.078-.334-.332-.26-.567l11.505-33.44-16.18 32.971c-.112.215-.372.312-.576.195a.467.467 0 0 1-.186-.606l19.168-39.072a.392.392 0 0 1 .538-.196c.204.098.297.333.223.567l-13.731 39.894c-.019.156-.186.274-.353.274z" fill="#fff"/><path d="M61.519 141.988a.398.398 0 0 1-.241-.078.476.476 0 0 1-.112-.626l20.782-32.13L55.6 140.873a.387.387 0 0 1-.594.039.474.474 0 0 1-.037-.626l30.95-37.272a.413.413 0 0 1 .576-.059.471.471 0 0 1 .092.606l-24.734 38.212a.388.388 0 0 1-.334.215z" fill="#fff"/><path d="M49.05 140.071a.422.422 0 0 1-.316-.137c-.148-.176-.148-.469.019-.625l31.563-30.8-33.567 26.204a.42.42 0 0 1-.594-.098c-.149-.195-.093-.469.093-.625l39.746-31.016a.417.417 0 0 1 .575.079.448.448 0 0 1-.037.606l-37.204 36.315a.487.487 0 0 1-.279.097z" fill="#fff"/><path d="M49.346 126.95a.447.447 0 0 1-.37-.216c-.112-.215-.056-.488.148-.606l32.008-20.122-28.501 12.339a.44.44 0 0 1-.557-.235.463.463 0 0 1 .223-.586l33.77-14.628a.416.416 0 0 1 .539.215c.093.215.037.47-.167.587l-36.888 23.193a.36.36 0 0 1-.205.059z" fill="#fff"/><path d="M54.71 112.244a.44.44 0 0 1-.41-.333c-.055-.234.075-.489.298-.547l26.256-7.06-24.104 2.425c-.222.059-.445-.156-.464-.411-.018-.254.149-.469.371-.488l29.522-2.973a.434.434 0 0 1 .464.372.44.44 0 0 1-.315.508l-31.526 8.487c-.019.02-.056.02-.093.02zm62.661-6.199a.39.39 0 0 1-.334-.176.472.472 0 0 1 .056-.607l24.419-22.469a.417.417 0 0 1 .594.04.473.473 0 0 1-.037.625l-19.539 17.991 14.696-10.306c.185-.136.463-.078.593.118a.48.48 0 0 1-.111.626l-20.077 14.079a.753.753 0 0 1-.26.079z" fill="#fff"/><path d="M117.371 106.045a.43.43 0 0 1-.26-.098.471.471 0 0 1-.074-.606l23.955-35.865c.13-.215.39-.254.594-.117.186.136.241.41.112.625l-20.319 30.429 26.813-30.507c.167-.176.427-.196.594-.02.167.157.185.45.018.626l-31.099 35.376c-.111.098-.223.157-.334.157z" fill="#fff"/><path d="M117.371 106.045a.637.637 0 0 1-.185-.039c-.205-.098-.297-.372-.204-.587l16.273-36.393a.419.419 0 0 1 .556-.215c.205.098.297.371.205.587l-16.274 36.392a.404.404 0 0 1-.371.255z" fill="#fff"/></svg>