<svg width="270" height="99" fill="none" xmlns="http://www.w3.org/2000/svg"><path fill-rule="evenodd" clip-rule="evenodd" d="M157.972 15.132c-10.536 1.337-19.209 8.496-22.033 18.187-.267.913-.558 2.18-.649 2.816-.327 2.305-.322 2.294-.532 1.11-.41-2.317-1.566-4.95-3.002-6.843-1.046-1.378-3.276-3.397-4.742-4.296-1.482-.907-3.152-1.6-5.171-2.145l-1.425-.385-10.449-.046-10.45-.046.103 1.126c.23 2.533.943 4.842 2.128 6.885 2.674 4.61 7.235 7.607 12.885 8.466.606.092 9.732.145 25.138.145 26.461.002 25.72.023 29.201-.848 9.292-2.326 16.557-9.43 18.851-18.433.326-1.282.746-4.212.746-5.208v-.642l-14.824.018c-8.153.01-15.252.073-15.775.14zm21.522 7.01c0 .243-1.292 2.356-2.045 3.345-2.296 3.017-5.445 5.245-9.133 6.462-2.946.972-2.907.97-14.114 1.036-6.07.036-10.139.007-10.139-.072 0-.206 1.043-2.025 1.749-3.05.922-1.339 3.088-3.414 4.663-4.469 2.324-1.555 5.288-2.711 7.79-3.038.684-.09 1.409-.185 1.61-.213.664-.093 19.619-.093 19.619 0zM83.555 34.339c-.305.073-.742.23-.971.347-.614.313-1.546 1.421-1.743 2.072-.113.37-.173 1.837-.173 4.215 0 3.407-.017 3.642-.256 3.569a56.36 56.36 0 0 1-1.317-.455c-4.908-1.743-10.629-.382-14.328 3.41-1.479 1.515-2.517 3.276-3.164 5.365-.31 1.004-.323 1.308-.376 8.552-.04 5.439-.006 7.787.122 8.513.88 4.995 4.545 8.892 9.745 10.364.982.278 1.509.327 3.498.33 1.998.003 2.525-.046 3.578-.33 4.24-1.143 7.601-4.05 9.092-7.865.905-2.313.882-1.782.839-19.535-.037-15.15-.055-16.206-.298-16.644-.807-1.457-2.665-2.292-4.248-1.908zm101.429-.06c-.923.222-1.36.44-1.949.974-1.293 1.17-1.192-.346-1.195 17.806-.003 13.263.032 16.243.204 17.126.776 4.001 3.626 7.549 7.461 9.286 2.054.931 3.123 1.146 5.728 1.15 2.753.004 3.979-.254 6.149-1.291 3.371-1.612 5.647-4.21 6.901-7.878l.419-1.228v-8.088c0-8.027-.002-8.098-.339-9.244-.186-.636-.68-1.806-1.098-2.6-.648-1.235-.982-1.666-2.296-2.965-1.259-1.245-1.789-1.654-2.928-2.26-2.332-1.24-4.165-1.694-6.808-1.686-1.865.005-3.561.316-4.954.905-.389.165-.768.3-.841.3-.078 0-.135-1.525-.135-3.63 0-2.387-.059-3.827-.174-4.204-.225-.741-1.28-1.895-1.99-2.175-.635-.25-1.723-.401-2.155-.298zm19.708.119c-.916.29-1.734 1.13-2.01 2.065-.37 1.256.096 2.468 1.234 3.212 2.535 1.656 5.786-.854 4.633-3.577-.604-1.428-2.324-2.185-3.857-1.7zm2.039.836c1.175.585 1.61 1.855 1.024 2.989-.759 1.467-2.461 1.742-3.703.6-.525-.483-.6-.637-.659-1.34-.097-1.157.455-2.039 1.503-2.4.687-.237 1.13-.2 1.835.15zm-2.25.349c-.054.053-.098.832-.098 1.733 0 1.54.018 1.637.293 1.637.254 0 .293-.096.293-.722 0-.97.346-.969.989.002.308.465.581.72.769.72.38 0 .368-.11-.085-.768l-.376-.547.376-.292c.384-.297.511-.994.254-1.393-.23-.357-2.132-.65-2.415-.37zm1.728.677c.468.337.182.67-.577.67-.639 0-.663-.015-.663-.433 0-.394.044-.433.484-.433.267 0 .607.088.756.196zm-103.012 7.169c-5.433.666-9.88 4.332-11.423 9.416-.288.95-.327 1.459-.378 5.03l-.058 3.972.412.793c.458.883 1.346 1.636 2.209 1.872.352.097 4.205.15 10.867.15 6.661 0 10.515-.053 10.867-.15.861-.236 1.751-.989 2.2-1.861l.402-.784v-3.519c0-3.98-.144-5.02-.949-6.875-.727-1.672-1.342-2.607-2.558-3.89-1.193-1.258-2.734-2.36-4.235-3.032-2.064-.923-5.145-1.393-7.356-1.122zm29.666.076c-3.016.477-5.305 1.626-7.478 3.753-1.539 1.507-2.213 2.499-3.01 4.429-.859 2.084-.859 2.078-.857 14.667l.001 11.526.346.722c.645 1.346 1.848 2.088 3.385 2.088 1.456 0 2.665-.703 3.344-1.944.314-.574.316-.635.389-12.205l.073-11.627.464-.965c.648-1.351 1.481-2.188 2.818-2.833 1.066-.514 1.172-.536 2.648-.536 1.422 0 1.61.035 2.515.458 1.361.636 2.209 1.455 2.868 2.769l.546 1.091.074 11.636c.08 12.803.011 11.878.977 13.01.951 1.116 2.916 1.48 4.375.81.892-.41 1.725-1.327 1.957-2.155.126-.447.159-3.758.124-12.452-.046-11.757-.049-11.852-.371-12.885-1.42-4.55-4.98-7.911-9.606-9.07-1.804-.45-3.876-.557-5.582-.287zm30.654-.076c-5.822.714-10.436 4.822-11.622 10.348-.153.712-.214 1.994-.216 4.541l-.003 3.55.403.783c.449.872 1.338 1.625 2.2 1.861.352.097 4.206.15 10.867.15 6.661 0 10.515-.053 10.867-.15.863-.236 1.751-.989 2.209-1.872l.411-.793-.057-3.972c-.052-3.596-.088-4.075-.385-5.056-1.046-3.457-3.695-6.53-6.988-8.105-2.201-1.053-5.324-1.575-7.686-1.285zm-86.186 7.704c1.318.626 2.151 1.463 2.8 2.816l.464.965.048 6.644c.033 4.717-.003 6.875-.125 7.439-.498 2.293-2.42 4.062-4.87 4.483-3.095.531-6.186-1.496-6.834-4.483-.123-.564-.16-2.722-.126-7.439l.048-6.644.463-.965c.589-1.225 1.426-2.122 2.519-2.697 1.166-.613 1.776-.741 3.258-.685 1.091.04 1.409.117 2.355.566zm30.038-.056c.542.255 1.224.67 1.515.923 1.242 1.074 1.997 2.892 1.915 4.606l-.044.908H98.896l-.044-.908c-.113-2.35 1.124-4.42 3.254-5.448 1.159-.56 1.594-.645 3.023-.592 1.052.04 1.415.123 2.24.511zm60.442.056c2.017.957 3.191 2.724 3.311 4.982.05.929.018 1.243-.137 1.34-.111.07-2.739.126-5.839.126-3.1 0-5.728-.056-5.839-.126-.155-.097-.187-.411-.138-1.34.052-.973.156-1.407.524-2.181.75-1.582 2.299-2.866 3.952-3.278.302-.075 1.117-.116 1.811-.09 1.092.042 1.409.118 2.355.567zm30.179 0a6.013 6.013 0 0 1 2.836 2.814l.41.822v14.444l-.452.94c-.83 1.727-2.496 2.971-4.45 3.32-2.93.525-5.889-1.252-6.751-4.053-.279-.905-.291-1.294-.25-7.73l.044-6.776.467-.974c.764-1.592 2.313-2.876 3.961-3.283.302-.075 1.12-.12 1.817-.099 1.127.034 1.391.098 2.368.574zM94.65 68.1c-1.518.517-2.405 1.615-2.53 3.127-.076.94.324 2.007 1.314 3.502 4.634 7.004 15.038 8.032 21.07 2.081 1.125-1.11 2.322-2.849 2.772-4.029.599-1.57.108-3.259-1.207-4.153-2.064-1.403-4.442-.782-5.746 1.501-1.119 1.96-2.538 3.01-4.526 3.352-2.622.45-5.153-.889-6.54-3.46-.57-1.056-1.28-1.641-2.388-1.966-.932-.273-1.311-.265-2.22.045zm60.613-.133c-.746.193-1.308.546-1.936 1.22-1.334 1.426-1.212 3.065.408 5.514 1.939 2.93 5.068 5.011 8.628 5.738 1.805.369 4.612.296 6.37-.165 1.5-.394 3.531-1.381 4.812-2.34 2.055-1.54 4.143-4.522 4.301-6.146.099-1.023-.181-1.853-.88-2.601-.884-.946-1.577-1.256-2.82-1.262-1.342-.006-2.411.536-3.071 1.558-1.323 2.05-1.666 2.483-2.308 2.92-1.17.795-2.207 1.114-3.621 1.114-1.415 0-2.452-.32-3.621-1.114-.645-.439-1.063-.969-2.309-2.932-.734-1.157-2.577-1.859-3.953-1.504z" fill="#fff" opacity=".6"/></svg>