<svg width="270" height="99" fill="none" xmlns="http://www.w3.org/2000/svg"><path fill-rule="evenodd" clip-rule="evenodd" d="M24.758 33.322v6.7L23.43 38.77c-2.272-2.142-4.555-2.95-8.27-2.93-2.63.014-4.32.41-6.638 1.557C3.256 40 0 45.579 0 51.996S3.256 63.99 8.522 66.595c2.318 1.146 4.008 1.543 6.637 1.557 3.716.02 6-.789 8.271-2.931l1.328-1.251v3.428h7.892V26.622h-7.894v6.7zm118.225-1.714v4.985h-5.202v5.698h5.188l.052 9.66c.052 9.591.055 9.667.462 10.667a7.736 7.736 0 0 0 4.317 4.277c.93.367 1.367.406 5.275.466l4.261.066v-6.795h-2.378c-2.707-.002-3.251-.189-3.783-1.3-.271-.568-.297-1.457-.255-8.791l.047-8.16 2.915-.05 2.915-.049v-5.689h-5.92v-9.971h-7.894v4.986zm-93.199 4.286c-6.913.911-12.592 6.13-13.979 12.845-.363 1.757-.363 4.756 0 6.514 1.283 6.21 6.142 11.08 12.591 12.618 1.935.461 5.277.381 7.446-.18 1.966-.507 4.226-1.56 5.665-2.638 2.124-1.592 4.164-4.081 5.14-6.273l.445-.997h-4.214c-2.52 0-4.214.067-4.214.168 0 .092-.44.64-.979 1.217-1.715 1.84-3.826 2.654-6.445 2.486-3.756-.24-6.22-2.42-7.545-6.676l-.124-.4h23.884v-1.826c-.004-8.646-4.692-15.126-12.017-16.61-1.64-.332-4.172-.443-5.654-.248zm36.15-.027c-2.626.368-4.67 1.316-6.389 2.964l-1.146 1.1v-3.338h-7.894V77.37h7.894V64.06l1.146 1.1c2.171 2.081 4.702 3.011 8.183 3.006 6.145-.008 11.184-3.225 13.799-8.81 1.165-2.486 1.532-4.249 1.532-7.361 0-2.22-.071-2.942-.418-4.274-1.275-4.892-4.51-8.841-8.774-10.713-2.11-.926-5.741-1.449-7.933-1.142zm33.907.011c-1.769.22-3.344.672-4.965 1.424-1.876.87-2.899 1.567-4.429 3.02-3.3 3.132-5.015 7.124-5.015 11.674s1.715 8.542 5.015 11.674c1.532 1.454 2.551 2.148 4.451 3.032 4.26 1.981 9.392 1.981 13.652 0 4.272-1.987 7.331-5.452 8.747-9.91 2.134-6.715-.502-14.196-6.427-18.242-2.963-2.024-7.472-3.116-11.029-2.672zm142.579.72c-2.162.541-4.017 2.261-4.642 4.304-.754 2.462-.07 5.269 1.662 6.822 2.209 1.98 5.749 2.255 8.02.622 1.372-.987 2.54-3.317 2.54-5.07v-.807h-6.817v2.137h2.063c1.135 0 2.063.053 2.063.118s-.205.466-.456.89c-.594 1.007-1.525 1.485-2.889 1.485-2.482 0-4.216-2.028-3.93-4.598.373-3.36 3.792-4.885 6.412-2.858.587.453.807.512 1.929.512.696 0 1.266-.068 1.266-.152 0-.272-1-1.527-1.709-2.144a7.022 7.022 0 0 0-1.481-.95c-.907-.398-3.031-.563-4.031-.312zm-90.373 6.419v6.245l3.632-.057c3.397-.054 3.689-.086 4.497-.48 1.067-.522 1.711-1.439 1.854-2.642.127-1.06-.136-1.965-.764-2.638l-.451-.484.361-.382c1.589-1.678 1-4.488-1.146-5.471-.622-.285-1.203-.33-4.351-.333l-3.632-.004v6.246zm12.378-.013v6.232h2.512v-4.808h1.923l1.844 2.404 1.844 2.404h1.5c.825 0 1.499-.06 1.498-.134-.001-.073-.802-1.17-1.778-2.435l-1.776-2.302.843-.388c2.034-.935 2.757-3.21 1.675-5.265-.404-.768-.681-1.044-1.455-1.445l-.956-.496h-7.674v6.233zm16.898-5.929c-.313.601-5.237 11.938-5.237 12.057 0 .066.576.096 1.28.067l1.28-.052.592-1.336.592-1.335 2.806-.05 2.805-.049.654 1.43.654 1.429h1.319c1.182 0 1.308-.033 1.217-.317-.056-.174-1.26-2.958-2.677-6.187l-2.575-5.872-1.272-.052c-1.074-.044-1.298-.002-1.438.267zm9.474 5.929v6.232h2.506l.048-4.294.048-4.293 3.05 4.29 3.049 4.29 1.391.004 1.39.003V36.77h-2.512v4.195c0 2.536-.065 4.155-.166 4.093-.092-.056-1.478-1.944-3.08-4.195l-2.914-4.093h-2.81v6.233zm14.353.006v6.266l3.094-.08c3.818-.099 4.667-.357 6.244-1.9 1.403-1.37 1.846-2.552 1.748-4.663-.119-2.558-1.236-4.236-3.53-5.303-.954-.444-1.184-.473-4.282-.528l-3.274-.059v6.267zm13.275-.006v6.232h2.512V36.77h-2.512v6.233zm5.382 0v6.232h2.505l.049-4.316.048-4.317 3.054 4.272 3.054 4.272 1.386.052 1.386.052V36.77h-2.512v8.593l-3.063-4.296-3.063-4.297h-2.844v6.233zm-64.639-3.485c.348.402.422.637.337 1.065-.196.98-.66 1.165-2.929 1.17l-2.018.003v-1.306c0-.718.061-1.367.135-1.441.074-.075 1.01-.107 2.081-.07 1.89.062 1.961.08 2.394.58zm12.563-.255c.888.574.936 1.84.095 2.496-.396.31-.73.353-2.671.353h-2.218v-3.242l2.198.068c1.514.047 2.321.148 2.596.325zm39.712.127c1.547.68 2.425 2.164 2.281 3.855-.208 2.42-1.776 3.65-4.673 3.667l-1.39.008v-8.063l1.495.093c.908.056 1.806.228 2.287.44zm-27.806 2.864.837 1.906-1.706.051c-.937.028-1.741.016-1.785-.028-.044-.044.309-.961.786-2.038.476-1.077.903-1.922.948-1.878.045.044.459.938.92 1.986zm-185.248.278c2.753.73 4.785 2.755 5.79 5.769.398 1.192.461 1.693.464 3.694.004 2.07-.048 2.465-.491 3.74-.602 1.73-1.284 2.822-2.426 3.883-3.075 2.854-8.083 2.786-11.045-.15-4.323-4.284-3.478-13.25 1.523-16.158 1.635-.951 4.277-1.283 6.185-.778zm35.521 0c2.598.69 4.597 2.583 5.625 5.33.212.566.385 1.067.385 1.112 0 .046-3.641.083-8.092.083h-8.093l.115-.49c.063-.27.407-1.087.765-1.816 1.04-2.125 2.785-3.61 4.904-4.175 1.244-.332 3.23-.352 4.391-.044zm35.01.007c2.728.72 4.75 2.732 5.748 5.717.417 1.247.476 1.711.476 3.739 0 2.008-.06 2.497-.46 3.694-1.263 3.788-4.17 6.01-7.853 6.004-3.236-.006-5.83-1.608-7.253-4.478-2.503-5.049-.83-11.943 3.403-14.027 1.82-.895 4.075-1.142 5.94-.65zm34.964.026c2.876.739 5.063 3.106 5.909 6.396.411 1.595.363 4.68-.098 6.331-1.121 4.015-4.097 6.407-7.971 6.407-4.961 0-8.394-3.969-8.394-9.704 0-2.055.333-3.56 1.164-5.253.647-1.32 2.196-2.965 3.337-3.543 1.764-.893 4.093-1.138 6.053-.634zm54.795 1.734c.711.357 1.012 1.038.743 1.683-.32.766-.868.938-2.989.938h-1.875v-2.849l1.839.003c1.11.001 2.015.09 2.282.225zm10.577 10.51c-1.859.523-3.251 1.712-4.095 3.499-.405.858-.467 1.222-.467 2.772 0 1.654.043 1.87.585 2.963 1.043 2.102 2.94 3.34 5.352 3.495 1.964.124 3.111-.296 4.492-1.647 1.252-1.226 1.809-2.436 1.986-4.318l.106-1.128-3.39.048-3.39.049-.053 1.113-.054 1.113h2.055c2.356 0 2.413.064 1.261 1.4-.746.865-1.564 1.157-2.96 1.056-3.916-.28-4.923-6.119-1.359-7.881 1.154-.571 2.397-.598 3.488-.074.432.208.881.529.996.713.177.28.435.334 1.607.334h1.395l-.347-.676c-.457-.888-1.814-2.115-2.836-2.563-1.027-.451-3.24-.587-4.372-.268zm39.352.128c-.824.267-1.393.616-2.171 1.33-4.237 3.895-1.854 10.908 3.83 11.27 2.308.147 4.407-.799 5.59-2.519.327-.476.595-.936.595-1.023 0-.088-.593-.159-1.318-.159-1.121 0-1.369.057-1.659.381-.902 1.006-3.066 1.352-4.358.698-1.414-.716-2.241-2.133-2.241-3.839 0-3.591 3.776-5.48 6.462-3.232.495.414.721.472 1.839.472.701 0 1.274-.06 1.274-.133-.001-.275-.707-1.27-1.358-1.916-1.536-1.525-4.199-2.07-6.485-1.33zm-52.529.002c-.373.599-5.405 12.283-5.324 12.363.201.2 2.327.091 2.496-.127.095-.123.406-.766.692-1.43l.519-1.205 2.841.048 2.84.05.581 1.335.58 1.335 1.292.053c.964.038 1.291-.006 1.29-.178 0-.127-1.196-2.955-2.657-6.285l-2.656-6.054-1.185-.053c-.736-.032-1.231.024-1.309.148zm23.237 6.137v6.327l4.44-.047 4.44-.048.053-1.113.054-1.113h-6.476v-2.849h6.279V59.92h-6.279v-2.85h6.476l-.054-1.113-.053-1.113-4.44-.048-4.44-.047v6.327zM210.7 54.98c-.048.123-.066 2.947-.04 6.276l.048 6.053h2.511l.09-4.18.09-4.181 2.979 4.18 2.979 4.181 1.372.052 1.371.052V54.755h-2.506l-.048 4.294-.048 4.294-3.049-4.29-3.05-4.291-1.307-.003c-.885-.002-1.334.069-1.392.22zm26.469-.117c0 .067 1.09 1.903 2.422 4.08l2.422 3.96v4.495h2.512l.001-2.181v-2.181l2.421-4.007c1.331-2.203 2.421-4.066 2.421-4.14 0-.073-.593-.133-1.318-.133h-1.32l-1.674 2.762c-.921 1.52-1.741 2.696-1.822 2.616-.082-.08-.859-1.304-1.728-2.718l-1.58-2.571-1.378-.052c-.758-.029-1.379.003-1.379.07zm-59.203 4.879c.318.734.691 1.596.83 1.914l.252.578h-3.572l.633-1.38a97.45 97.45 0 0 0 .89-1.986c.14-.333.285-.573.322-.534.037.04.327.673.645 1.407z" fill="#fff" opacity=".4"/></svg>