<svg width="270" height="99" fill="none" xmlns="http://www.w3.org/2000/svg"><path fill-rule="evenodd" clip-rule="evenodd" d="M54.846 3.53c-.729.298-1.38 1.119-2.603 3.284-3.755 6.643-10.215 13.008-16.983 16.731-1.153.635-2.345 1.446-2.65 1.803-1.714 2.013-.29 5.08 2.358 5.078 1.442-.002 2.331-.672 3.466-2.614 4.7-8.047 10.444-13.714 18.432-18.186 1.612-.903 2.318-1.716 2.511-2.896.17-1.038-.493-2.411-1.44-2.982-.752-.455-2.255-.56-3.091-.218zm11.562.919c-1.035.624-1.938 1.788-3.255 4.194-2.12 3.873-5.403 7.81-11.732 14.07-6.373 6.303-10.347 9.54-14.252 11.605-2.672 1.413-4.046 2.66-4.408 3.999-.735 2.721 1.541 5.115 4.425 4.652 1.585-.255 2.359-1.139 5.086-5.808 1.669-2.856 4.948-6.775 9.62-11.495 6.625-6.694 11.012-10.347 15.48-12.888 1.3-.739 2.65-1.543 2.997-1.788 1.682-1.18 2.177-3.797 1.013-5.357-1.167-1.565-3.444-2.107-4.974-1.184zm-20.694.703c-.314.244-1.152 1.424-1.864 2.622-1.687 2.839-4.4 5.579-6.93 7-2.811 1.578-3.464 2.193-3.464 3.265 0 .713.15 1.014.752 1.516 1.245 1.036 2.577.512 3.56-1.403 1.922-3.736 5.017-6.834 8.886-8.894 2.26-1.203 2.782-2.571 1.474-3.865-.8-.792-1.603-.872-2.414-.24zM77.286 8.19c-1.27.57-2.333 1.842-3.864 4.625-5.813 10.564-21.407 25.97-32.047 31.661-3.844 2.056-5.373 4.019-4.93 6.328.587 3.056 3.976 4.746 6.711 3.347 1.043-.533 2.205-2.009 3.706-4.706 3.932-7.066 11.934-16.1 21.22-23.955 4.314-3.65 6.746-5.365 10.714-7.556 2.904-1.604 3.982-2.492 4.562-3.754 1.741-3.79-2.236-7.714-6.072-5.99zm4.472 11.697c-.932.562-1.614 1.468-3.064 4.07-2.288 4.107-6.328 8.884-12.888 15.24-5.874 5.69-9.49 8.544-13.739 10.845-1.008.546-2.193 1.328-2.633 1.738-2.038 1.902-1.54 5.181.954 6.272 2.33 1.02 4.408-.125 6.125-3.376 2.214-4.192 6.035-8.868 12.268-15.015 6.16-6.074 10.538-9.607 14.647-11.82 3.158-1.702 4.153-2.864 4.153-4.854 0-1.08-.73-2.256-1.873-3.017-1.028-.685-2.886-.724-3.95-.083zm2.137 12.384c-1.004.454-1.166.665-3.447 4.468-3.56 5.938-9.96 12.098-15.912 15.312-2.89 1.562-3.66 2.397-3.66 3.975-.002 2.348 2.422 3.863 4.487 2.806.83-.424 1.46-1.248 2.954-3.858 3.227-5.637 10.324-12.68 15.718-15.598 3.411-1.845 4.252-2.704 4.254-4.344.002-2.32-2.245-3.733-4.394-2.76zm-.27 10.436c-.283.196-1.119 1.38-1.857 2.63-1.725 2.92-4.607 5.79-7.317 7.282-1.033.57-2.112 1.24-2.398 1.49-.712.625-.892 1.61-.45 2.457.41.784.793.98 1.913.98.925 0 1.513-.599 2.791-2.846 1.791-3.148 4.529-5.816 7.78-7.583 2.074-1.128 2.596-1.692 2.596-2.812 0-1.57-1.767-2.493-3.058-1.598zm147.739 16.485c-1.816.356-3.366 1.181-4.444 2.367-1.356 1.492-1.878 3.028-1.729 5.086.195 2.697 1.41 4.462 3.909 5.678 1.5.73 1.72.77 4.187.77 1.959 0 2.882-.106 3.727-.428l1.123-.429v-2.085c0-1.146-.037-2.084-.082-2.084-.044 0-.709.214-1.477.476-2.212.755-3.828.84-5.13.27-2.61-1.142-2.711-4.17-.178-5.3 1.304-.581 3.73-.4 5.53.416l1.337.605v-4.352l-1.005-.374c-2.218-.825-3.823-.996-5.768-.616zM90.931 60.41c-.143.675-.795 3.647-1.45 6.605-.654 2.957-1.19 5.508-1.19 5.67-.001.211.577.291 2.106.291h2.108l.236-1.11c.13-.611.582-2.9 1.004-5.085.58-3.004.812-3.832.951-3.39.102.321.46 2.478.796 4.793.336 2.314.658 4.34.715 4.5.078.219 1.123.292 4.137.292 3.022 0 4.054-.073 4.119-.292.048-.16.372-2.186.722-4.5.349-2.315.713-4.468.809-4.784.127-.422.379.485.941 3.39.421 2.18.875 4.465 1.007 5.076l.24 1.11h2.226c1.224 0 2.225-.078 2.225-.175-.001-.097-.377-1.911-.836-4.033-.97-4.488-1.999-9.379-1.999-9.5 0-.047-1.629-.085-3.618-.085h-3.618l-.899 4.734c-.495 2.604-.975 4.993-1.067 5.31-.178.613-.233.38-1.568-6.713l-.627-3.331h-7.21l-.26 1.227zm24.066 5.666v6.9h11.818V69.47h-7.8v-1.636h7.564v-3.508h-7.564v-1.391l3.841-.064 3.841-.065V59.3l-5.85-.063-5.85-.063v6.902zm13-4.906v1.987h4.481l.064 4.851.064 4.852 2.068.067 2.068.068v-9.838h4.49v-3.974h-13.235v1.987zm17.255-1.461c-.612 1.434-4.965 12.89-4.965 13.065 0 .111.936.202 2.08.202h2.081l.425-1.169.425-1.169h6.06l.392 1.17.393 1.168h2.226c1.224 0 2.226-.07 2.226-.157 0-.086-.253-.796-.562-1.578-.309-.781-1.495-3.814-2.636-6.74l-2.074-5.318H148.4c-2.808 0-2.932.02-3.148.526zm19.852.292v.818l-1.95.003c-1.543.001-2.197.115-3.132.546-3.106 1.431-3.866 5.903-1.449 8.533.959 1.045 2.252 1.516 4.463 1.626l2.068.104v1.345h4.254v-1.345l2.068-.104c3.891-.195 5.805-1.991 5.805-5.448 0-1.616-.43-2.758-1.394-3.703-1.129-1.107-1.961-1.411-4.233-1.547l-2.128-.127-.074-.76-.074-.76h-4.224v.819zm14.181 6.06v6.915h4.018v-3.273h1.879c3.549 0 5.357-.796 6.4-2.819.968-1.875.489-4.885-.988-6.213-1.398-1.256-1.914-1.367-6.759-1.448l-4.55-.076v6.915zm18.304-6.064c-.19.449-1.1 2.79-2.023 5.202a5120.76 5120.76 0 0 1-2.244 5.854c-.311.806-.565 1.57-.565 1.695 0 .131.884.228 2.08.228h2.081l.425-1.169.425-1.169h5.987l.419 1.17.42 1.168h2.236c1.229 0 2.235-.036 2.235-.08 0-.077-.917-2.475-3.099-8.102a914.41 914.41 0 0 1-1.553-4.033l-.602-1.578h-5.878l-.344.815zm13.131 6.082v6.916l2.068-.068 2.068-.068.063-2.22c.114-3.99-.144-3.93 2.613-.605l2.44 2.942h2.583c1.42 0 2.582-.063 2.582-.14 0-.078-1.265-1.69-2.812-3.58l-2.812-3.439.848-1.037c.465-.571 1.624-1.956 2.575-3.078.951-1.121 1.729-2.147 1.729-2.28 0-.147-.891-.24-2.321-.24h-2.321l-2.463 3.023c-1.354 1.663-2.497 2.989-2.539 2.947-.042-.042-.097-1.376-.121-2.964l-.044-2.888-2.068-.068-2.068-.068v6.915zm-61.465-1.246c.397 1.115.722 2.088.722 2.163 0 .075-.744.136-1.654.136-.91 0-1.655-.08-1.656-.176-.004-.493 1.558-4.457 1.7-4.315.091.09.491 1.078.888 2.192zm52.365-.156.772 2.162c.079.217-.331.293-1.574.293-.924 0-1.681-.08-1.683-.176-.008-.46 1.542-4.471 1.671-4.321.081.094.447 1.013.814 2.042zm-14.299-1.286c.26.257.473.73.473 1.052 0 1.105-.743 1.52-2.718 1.52h-1.773v-3.04h1.773c1.457 0 1.856.084 2.245.468zm-22.217 2.688v1.754h-1.162c-1.507 0-1.853-.147-2.284-.97-.692-1.326.465-2.527 2.441-2.533l1.005-.004v1.754zm7.323-1.172c.651.583.631 1.83-.041 2.45-.386.355-.836.476-1.772.476h-1.256v-3.565l1.297.106c.798.066 1.479.27 1.772.533zm-83.32 17.01c-.064.165-.087 3.297-.053 6.96l.063 6.66h4.018l.064-4.968.064-4.968h7.336l-.069-1.929-.068-1.928-5.62-.063c-4.395-.05-5.644.002-5.734.237zm12.891 6.707v7.048l2.068-.067 2.068-.068v-3.273l2.6-.117c3.157-.142 4.311-.651 5.39-2.378 1.246-1.995.862-5.117-.82-6.67-1.222-1.127-2.16-1.322-6.874-1.425l-4.432-.098v7.048zm13.237-6.714c.001.166.559 1.143 1.241 2.171 2.645 3.99 4.194 6.468 4.194 6.705 0 .272-1.485 2.786-2.169 3.672-.838 1.085-.632 1.22 1.752 1.147l2.182-.068 3.251-5.143a1068.06 1068.06 0 0 1 4.303-6.767c.578-.893.998-1.709.934-1.812-.147-.235-3.901-.244-4.235-.01-.135.095-.932 1.25-1.772 2.569-.84 1.318-1.581 2.394-1.646 2.392-.065-.003-.863-1.133-1.773-2.513l-1.654-2.51-2.305-.066c-1.756-.051-2.304.004-2.303.233zm16.652.008c-.064.164-.088 3.296-.053 6.96l.063 6.66h4.018l.063-4.969.064-4.968h5.181l.064 4.968.064 4.968h4.018l-.048-6.897-.048-6.897-6.635-.062c-5.215-.048-6.66.002-6.751.237zm16.688.04c-.212.253-.265 2.045-.209 6.96l.075 6.62h4.018l.064-4.969.064-4.968h5.181l.063 4.968.064 4.968h4.018V81.743l-6.527-.062c-5.471-.052-6.572-.007-6.811.278zm-38.765 3.766c.924.473 1.026 1.494.229 2.302-.566.576-3.489.845-3.818.352-.205-.308-.232-2.47-.035-2.835.173-.322 2.909-.185 3.624.181z" fill="#fff" opacity=".6"/></svg>