<svg width="270" height="99" fill="none" xmlns="http://www.w3.org/2000/svg"><path fill-rule="evenodd" clip-rule="evenodd" d="M204.732 11.741c-.167.065-2.432 2.263-5.032 4.884-3.898 3.93-4.727 4.865-4.727 5.334 0 .427.315.877 1.271 1.817.699.687 1.485 1.313 1.746 1.392.419.126 1.06-.448 5.363-4.794 3.854-3.895 4.887-5.05 4.887-5.466 0-.386-.386-.906-1.425-1.923-1.435-1.404-1.527-1.459-2.083-1.244zm.61 19.917c-.056.056-.742.156-1.525.22-2.216.184-3.14.337-4.676.772-3.933 1.114-6.241 2.457-9.065 5.275-3.628 3.62-5.119 6.695-5.994 12.36-.368 2.386-.363 4.156.02 6.747.651 4.402 1.914 7.47 4.294 10.436 3.547 4.416 7.993 6.921 13.592 7.658 3.722.49 12.752.399 13.282-.133.075-.075.168-.958.208-1.962.054-1.406-.002-1.938-.248-2.314l-.319-.489-5.547-.103c-5.748-.106-7.646-.24-7.976-.56-.107-.103-.391-.188-.633-.188-1.26 0-4.89-1.993-6.67-3.662-1.077-1.01-2.684-3.299-3.234-4.608-.476-1.134-1.164-3.756-1.164-4.437 0-.552.028-.566 1.169-.57.643-.004 6.109-.062 12.146-.13 9.761-.112 11.006-.162 11.237-.455.329-.416.229-4.008-.121-4.36-.175-.176-3.378-.24-12.283-.248l-12.046-.01.04-.889c.056-1.215.79-3.573 1.533-4.923 1.718-3.12 3.953-5.113 7.271-6.486 3.297-1.363 5.455-1.688 11.2-1.688 2.841 0 4.84-.084 5.079-.212.349-.188.393-.444.393-2.323 0-1.658-.068-2.168-.315-2.374-.228-.19-1.584-.288-4.931-.355-2.538-.05-4.661-.046-4.717.01zm-86.002.535c-2.586.537-4.394 1.14-6.188 2.065-7.54 3.89-12.081 11.507-11.94 20.028.127 7.69 3.951 14.27 10.707 18.42 1.57.965 4.14 2.038 5.693 2.376.671.147 1.54.346 1.931.444 1.173.294 5.85.212 7.487-.132 5.503-1.152 10.013-4.033 13.417-8.57 1.069-1.423 2.605-4.366 3.092-5.921.14-.45.328-1 .416-1.225.329-.832.438-1.92.531-5.295.083-3.028.041-3.686-.338-5.309-1.678-7.17-6.234-12.678-12.812-15.491-3.686-1.576-8.445-2.127-11.996-1.39zm-57.226.173c-1.708.71-2.32 1.84-2.736 5.055-.131 1.01-.32 2.435-.42 3.165-.1.73-.284 2.108-.407 3.063a221.86 221.86 0 0 1-.405 2.96c-.1.674-.281 2.053-.405 3.063-.123 1.011-.308 2.39-.41 3.063-.102.674-.285 2.007-.405 2.961a668.43 668.43 0 0 1-.417 3.216l-.407 3.063a651.245 651.245 0 0 1-1.015 7.198c-.107.73-.236 1.74-.285 2.246-.05.505-.154 1.445-.233 2.089-.204 1.676-.06 1.79 2.263 1.79 1.041 0 2.105-.08 2.364-.18.587-.224.83-1.085 1.275-4.516.182-1.404.372-2.828.422-3.165a1724 1724 0 0 0 1.325-9.597c.119-.898.3-2.23.401-2.96.383-2.755 1-7.525 1.215-9.393.372-3.233.688-5.23.758-4.799.037.225.155.73.263 1.123 1.947 7.092 3.03 10.9 3.98 13.992.381 1.238.693 2.404.693 2.591 0 .188.091.398.203.467.112.07.203.346.203.615 0 .27.087.7.192.958.106.258.39 1.158.631 2 .242.843.51 1.762.597 2.042.087.281.365 1.2.618 2.042 1.049 3.484 2.254 6.991 2.568 7.472.569.872 1.294 1.104 3.442 1.104 3.246 0 3.602-.429 5.161-6.227.091-.337.496-1.716.901-3.063a437.1 437.1 0 0 0 1.147-3.88c.51-1.774 1.401-4.73 1.634-5.411.096-.28.908-3.13 1.805-6.33.897-3.2 1.715-6.095 1.818-6.432.103-.337.303-1.118.446-1.736.366-1.585.538-1.656.682-.278.07.658.215 1.91.323 2.78.52 4.177.618 4.965.818 6.534.119.926.303 2.282.41 3.012.495 3.383 1.05 7.306 1.432 10.107.23 1.685.455 3.247.502 3.471.12.575.417 2.466.577 3.676.267 2.013.583 3.368.834 3.578.155.129 1.172.19 2.565.155l2.31-.058.069-.714c.038-.394-.034-1.404-.16-2.247a288.053 288.053 0 0 1-.81-5.819c-.407-3.155-.654-4.917-.942-6.738-.16-1.011-.705-4.916-1.21-8.678-.505-3.763-1.01-7.484-1.122-8.27a422.26 422.26 0 0 1-.403-2.91c-.678-5.016-.826-5.549-1.829-6.556-.952-.956-2.307-1.228-4.568-.917-.727.1-1.158.316-1.735.868-.655.628-.876 1.091-1.513 3.185-1.216 3.991-1.372 4.475-1.559 4.847-.098.195-.178.47-.178.612 0 .142-.28 1.177-.624 2.3-.345 1.123-.723 2.41-.842 2.859a60.982 60.982 0 0 1-.944 3.267 515.665 515.665 0 0 0-2.47 8.27c-.11.393-.375 1.312-.588 2.042-.213.73-.587 2.108-.833 3.062-.245.955-.529 1.947-.63 2.205a3.069 3.069 0 0 0-.189.919c-.002.247-.084.578-.183.736-.203.322-.153.477-2.171-6.616l-1.511-5.31c-.475-1.662-.642-2.288-.736-2.756a6.117 6.117 0 0 0-.27-.919c-.247-.6-.523-1.459-.986-3.063-.226-.786-.703-2.394-1.058-3.573-.356-1.179-.813-2.695-1.015-3.369-1.845-6.144-2.515-7.982-3.136-8.605-1.08-1.084-3.432-1.426-5.087-.738zm87.508.246c-1.386.422-2.04 1.057-2.521 2.446-.274.79-.314 3.333-.314 20.045 0 10.528.056 19.286.124 19.464.103.27.523.323 2.534.323 2.173 0 2.432-.039 2.621-.394.142-.266.172-5.945.091-17.611-.115-16.768-.108-17.201.255-16.586.869 1.47 1.898 3.1 3.474 5.503.922 1.406 1.677 2.593 1.677 2.638 0 .045.641 1.053 1.423 2.24.783 1.185 1.424 2.24 1.424 2.344 0 .103.075.218.168.256.093.037.663.849 1.267 1.804a96.986 96.986 0 0 0 1.247 1.94c.082.112 2.493 3.741 5.358 8.065 2.864 4.324 5.544 8.168 5.954 8.543 1.225 1.12 1.77 1.32 3.309 1.21 2.263-.163 3.391-1.14 3.844-3.335.164-.793.211-6.492.165-19.903-.058-16.434-.104-18.816-.371-18.986-.457-.29-4.543-.252-4.839.045-.186.187-.245 4.336-.248 17.408l-.005 17.162-.909-1.43c-1.93-3.03-5.622-8.703-8.79-13.503-1.817-2.753-3.304-5.09-3.304-5.195a.19.19 0 0 0-.19-.19c-.104 0-.247-.182-.318-.406a2.034 2.034 0 0 0-.411-.691c-.156-.156-.447-.564-.648-.905-.33-.563-3.913-5.982-4.278-6.471a83.719 83.719 0 0 1-1.155-1.736c-1.535-2.346-2.47-3.385-3.469-3.857-.924-.436-2.198-.532-3.165-.237zm-23.433 4.89c.874.213 1.862.495 2.195.626 5.629 2.212 9.532 7.048 10.475 12.98 1.186 7.454-2.473 14.596-9.139 17.84-.717.348-1.464.633-1.662.633-.197 0-.408.082-.47.182-.061.1-.456.25-.876.334-1.026.205-6.459.213-7.457.011-1.187-.24-3.767-1.382-5.016-2.221-1.898-1.274-4.119-3.568-4.984-5.146-1.797-3.281-2.314-4.988-2.467-8.14-.231-4.751 1.524-9.266 4.934-12.699 3.853-3.879 9.527-5.604 14.467-4.4z" fill="#fff" opacity=".6"/></svg>