<svg width="210" height="47" fill="none" xmlns="http://www.w3.org/2000/svg"><g clip-path="url(#a)"><path d="m175.877 5.056-4.532 17.881.115.053c.429-.57.818-1.151 1.284-1.7 2.066-2.526 4.552-4.45 7.886-5.056 5.084-.926 10.581 1.002 11.959 7.678 1.493 7.216-2.221 15.88-8.532 19.874-3.116 1.972-6.511 2.73-10.155 1.852-3.207-.77-5.015-2.967-5.792-6.014-.282-1.102-.364-2.257-.544-3.412-.082.092-.2.2-.299.329-2.045 2.73-4.11 5.44-6.102 8.203-.47.65-.961.942-1.742.826-.193-.028-.409 0-.667-.032.339-1.36.667-2.674.998-4.01l8.998-35.726c.143-.573.336-.802.998-.802 2.008.092 4.021.056 6.127.056zm9.919 20.848c-.066-.717-.094-1.41-.201-2.096-.646-4.206-4.433-6.235-8.405-4.503-1.755.762-3.059 2.049-4.168 3.54a22.245 22.245 0 0 0-3.894 9.446c-.384 2.125-.564 4.266 0 6.39 1.068 4.01 4.872 5.614 8.549 3.5a10.19 10.19 0 0 0 2.417-1.907c3.738-4.07 5.317-8.997 5.702-14.354v-.016zM87.416 46.999l2.095-8.315 6.48-25.635c.553-2.175 1.094-4.36 1.664-6.518.054-.2.287-.502.443-.506 2.172-.032 4.349-.024 6.612-.024-1.546 6.111-3.075 12.14-4.644 18.333.733-.985 1.319-1.861 1.992-2.668 3.279-3.964 8.362-5.504 13.063-4.005 3.144 1.002 5.066 3.439 5.398 6.775.226 2.266-.286 4.425-.844 6.584a3805.224 3805.224 0 0 0-4.005 15.543c-.032.126-.082.248-.135.407h-6.829c.246-.994.484-1.96.726-2.925 1.315-5.215 2.644-10.422 3.931-15.64a9.241 9.241 0 0 0 .037-4.714 4.602 4.602 0 0 0-1.583-2.512 4.649 4.649 0 0 0-2.795-1.033c-3.066-.228-5.329 1.186-7.182 3.447-1.988 2.445-2.955 5.337-3.689 8.336a1334.546 1334.546 0 0 1-3.689 14.548c-.049.2-.287.502-.443.502-2.164.028-4.336.02-6.603.02zM149.672 46.527c-.662-3.005-1.315-5.948-2.01-9.091-.185.363-.3.575-.411.792-1.767 3.56-4.201 6.478-8.056 7.907-3.075 1.139-6.207 1.224-9.232-.172-3.025-1.396-4.196-3.923-4.352-7.054-.107-2.106.472-4.11.982-6.123 1.28-5.048 2.559-10.1 3.839-15.153.078-.319.107-.629.596-.62 2.055.024 4.11 0 6.165 0 .115.011.229.032.341.06-.271 1.066-.534 2.103-.801 3.14-1.295 5.07-2.623 10.132-3.86 15.214a12.829 12.829 0 0 0-.3 3.544c.132 3.216 2.508 5.204 5.755 4.947 2.556-.2 4.463-1.523 6.021-3.42 1.977-2.401 2.984-5.234 3.699-8.206 1.201-4.931 2.466-9.85 3.7-14.774.078-.31.143-.522.538-.518h6.165c.104.014.206.037.305.07-.329 1.347-.646 2.67-.975 3.992-2.014 8.145-4.03 16.29-6.05 24.432-.308 1.225-.066.971-1.278 1.004l-.781.029zM36.172 7.338c-3.416 0-5.122.87-5.12 2.608v30.24c0 1.74 1.707 2.607 5.12 2.605V46h-19.09v-3.21c3.45 0 5.176-.867 5.176-2.603V9.946c0-1.736-1.726-2.605-5.177-2.608V4h19.091v3.338zM65.534 4c2.31-.015 4.616.165 6.893.539 1.895.29 3.71.945 5.336 1.925a9.35 9.35 0 0 1 3.419 3.76c.804 1.585 1.208 3.602 1.21 6.049.003 2.447-.4 4.52-1.21 6.218a9.955 9.955 0 0 1-3.424 3.988 14.396 14.396 0 0 1-5.335 2.118 35.211 35.211 0 0 1-6.901.626h-9.08v10.956c0 1.741 2.178 2.612 6.533 2.612V46H42.201v-3.21c3.49 0 5.237-.867 5.24-2.603V9.947c0-1.736-1.747-2.606-5.24-2.608V4h23.333zm-9.092 4.755v15.83h8.061c3.179 0 5.454-.7 6.826-2.098 1.372-1.399 2.058-3.46 2.058-6.186 0-2.383-.686-4.238-2.058-5.564-1.372-1.327-3.647-1.987-6.826-1.982h-8.061z" fill="#fff"/><path d="M199.646 8.998c.319.289.688.521 1.089.687a4.24 4.24 0 0 0 2.144.215c.375-.044.743-.13 1.096-.257a16.29 16.29 0 0 1-4.52 7.357 11.713 11.713 0 0 0 6.131-2.185c2.449-1.803 4.78-5.134 4.366-8.734-.07-.587-.458-3.41-2.542-4.922-1.35-.981-2.969-1.34-4.857-1.074-1.554.218-2.753.827-3.602 1.816-.85.988-1.162 2.246-.939 3.757.216 1.444.76 2.557 1.634 3.34zM10.354 8.998c-.32.289-.688.521-1.09.687a4.237 4.237 0 0 1-2.143.215 4.923 4.923 0 0 1-1.096-.257c.809 2.8 2.37 5.34 4.52 7.357a11.712 11.712 0 0 1-6.13-2.185C1.964 13.012-.367 9.681.047 6.081c.07-.587.458-3.41 2.542-4.922C3.94.178 5.56-.18 7.447.085 9.001.303 10.2.912 11.049 1.9c.85.988 1.162 2.246.939 3.757-.216 1.444-.76 2.557-1.634 3.34z" fill="#DA4533"/></g><defs><clipPath id="a"><path fill="#fff" d="M0 0h210v47H0z"/></clipPath></defs></svg>