<svg width="150" height="33" fill="none" xmlns="http://www.w3.org/2000/svg"><g clip-path="url(#a)"><path d="m125.627 3.55-3.237 12.555.082.037c.306-.4.584-.808.917-1.194 1.475-1.773 3.252-3.125 5.633-3.55 3.631-.65 7.558.704 8.542 5.391 1.067 5.067-1.586 11.15-6.094 13.954-2.226 1.385-4.651 1.917-7.254 1.3-2.291-.54-3.582-2.082-4.137-4.222-.202-.774-.26-1.585-.389-2.395-.058.064-.143.14-.213.23-1.461 1.918-2.936 3.82-4.359 5.76-.336.456-.686.662-1.244.58-.138-.02-.292 0-.477-.023.243-.954.477-1.877.713-2.815l6.428-25.084c.102-.403.239-.563.713-.563 1.434.064 2.871.04 4.376.04zm7.085 14.638c-.047-.504-.068-.99-.144-1.472-.461-2.953-3.166-4.377-6.003-3.161-1.254.535-2.186 1.438-2.977 2.485a15.461 15.461 0 0 0-2.782 6.633c-.274 1.492-.403 2.995 0 4.487.763 2.815 3.48 3.94 6.106 2.457a7.254 7.254 0 0 0 1.727-1.34c2.67-2.857 3.798-6.317 4.073-10.078v-.01zM62.44 33l1.497-5.839 4.629-17.999c.395-1.527.781-3.06 1.188-4.577.038-.14.205-.351.316-.354 1.552-.023 3.107-.017 4.723-.017-1.104 4.29-2.196 8.524-3.317 12.872.524-.692.943-1.307 1.423-1.874 2.342-2.783 5.972-3.864 9.33-2.812 2.246.704 3.62 2.415 3.857 4.758.16 1.59-.205 3.106-.603 4.622-.963 3.639-1.916 7.277-2.86 10.913-.024.089-.06.175-.098.286h-4.877c.175-.698.345-1.376.518-2.053.94-3.662 1.888-7.318 2.808-10.982.3-1.083.309-2.223.026-3.31a3.224 3.224 0 0 0-1.13-1.764 3.355 3.355 0 0 0-1.997-.725c-2.19-.16-3.806.833-5.13 2.42-1.42 1.717-2.11 3.748-2.634 5.853a923.707 923.707 0 0 1-2.636 10.215c-.035.14-.204.352-.316.352-1.546.02-3.097.014-4.717.014zM106.909 32.668c-.473-2.11-.94-4.177-1.436-6.384-.132.256-.214.405-.293.556-1.263 2.5-3.001 4.55-5.755 5.552-2.196.8-4.433.86-6.594-.12-2.16-.98-2.997-2.754-3.109-4.953-.076-1.479.338-2.886.702-4.3l2.742-10.639c.056-.223.076-.441.426-.435 1.468.017 2.936 0 4.403 0 .083.008.164.022.244.043-.194.748-.382 1.476-.572 2.204-.925 3.56-1.874 7.114-2.757 10.682a8.844 8.844 0 0 0-.215 2.488c.094 2.259 1.791 3.655 4.11 3.474 1.827-.14 3.189-1.07 4.302-2.402 1.412-1.685 2.131-3.674 2.642-5.761.857-3.462 1.762-6.916 2.642-10.373.056-.218.103-.367.385-.364h4.404c.074.01.146.026.217.049-.235.946-.461 1.874-.696 2.803-1.438 5.72-2.879 11.437-4.321 17.154-.221.86-.047.683-.913.706l-.558.02zM25.837 5.152c-2.44 0-3.658.61-3.656 1.831v21.233c0 1.221 1.219 1.83 3.656 1.828v2.254H12.201v-2.254c2.465 0 3.698-.609 3.698-1.828V6.983c0-1.219-1.233-1.829-3.698-1.83V2.808h13.636v2.343zM46.81 2.81c1.65-.012 3.297.115 4.923.377 1.354.204 2.65.663 3.812 1.352a6.607 6.607 0 0 1 2.442 2.64c.574 1.113.863 2.529.865 4.247.002 1.718-.287 3.173-.865 4.366a7.025 7.025 0 0 1-2.445 2.8 10.386 10.386 0 0 1-3.811 1.487 25.575 25.575 0 0 1-4.93.44h-6.486v7.692c0 1.222 1.556 1.834 4.667 1.834v2.253H30.144v-2.254c2.492 0 3.74-.609 3.742-1.828V6.985c0-1.219-1.248-1.83-3.742-1.831V2.809H46.81zm-6.495 3.337v11.115h5.759c2.27 0 3.895-.491 4.875-1.473.98-.982 1.47-2.43 1.47-4.344 0-1.673-.49-2.975-1.47-3.906-.98-.932-2.605-1.396-4.875-1.392h-5.759z" fill="#fff"/><path d="M142.604 6.318c.228.203.492.366.779.482a3.075 3.075 0 0 0 1.531.15c.267-.03.53-.09.783-.18a11.405 11.405 0 0 1-3.229 5.166 8.459 8.459 0 0 0 4.379-1.534c1.75-1.266 3.415-3.604 3.119-6.132-.05-.412-.327-2.395-1.816-3.456-.964-.69-2.121-.94-3.469-.755-1.11.154-1.966.582-2.573 1.276-.607.693-.83 1.576-.67 2.638.153 1.013.542 1.795 1.166 2.345zM7.396 6.318a2.69 2.69 0 0 1-.779.482 3.076 3.076 0 0 1-1.53.15 3.567 3.567 0 0 1-.784-.18 11.407 11.407 0 0 0 3.23 5.166 8.457 8.457 0 0 1-4.38-1.534C1.403 9.136-.262 6.798.034 4.27.084 3.858.361 1.875 1.85.814c.964-.69 2.12-.94 3.469-.755 1.11.154 1.966.582 2.573 1.276.607.693.83 1.576.67 2.638-.153 1.013-.542 1.795-1.166 2.345z" fill="#DA4533"/></g><defs><clipPath id="a"><path fill="#fff" d="M0 0h150v33H0z"/></clipPath></defs></svg>