<svg width="209" height="47" fill="none" xmlns="http://www.w3.org/2000/svg"><g clip-path="url(#a)"><path d="m175.024 5.534-4.558 18.092.115.053c.432-.576.823-1.164 1.292-1.72 2.078-2.555 4.579-4.503 7.931-5.115 5.114-.937 10.643 1.014 12.029 7.768 1.502 7.302-2.233 16.068-8.581 20.108-3.135 1.996-6.549 2.763-10.215 1.874-3.225-.778-5.043-3.001-5.825-6.084-.284-1.116-.366-2.284-.547-3.452-.082.093-.202.202-.3.332-2.057 2.763-4.135 5.505-6.138 8.3-.473.657-.967.953-1.753.836-.193-.029-.411 0-.67-.033l1.003-4.056 9.051-36.148c.144-.58.337-.811 1.004-.811 2.02.093 4.044.056 6.162.056zM185 26.628c-.066-.726-.094-1.428-.201-2.121-.65-4.256-4.46-6.308-8.454-4.556-1.765.77-3.077 2.073-4.192 3.582a22.575 22.575 0 0 0-3.917 9.557c-.386 2.15-.567 4.316 0 6.466 1.074 4.057 4.9 5.68 8.598 3.542a10.249 10.249 0 0 0 2.432-1.931c3.76-4.118 5.348-9.103 5.734-14.523v-.016zM87.4 46.368l2.102-8.28 6.504-25.523c.555-2.167 1.098-4.34 1.67-6.49.053-.2.288-.5.444-.504 2.18-.032 4.365-.024 6.636-.024-1.551 6.085-3.086 12.088-4.661 18.254.736-.981 1.324-1.854 1.999-2.657 3.291-3.947 8.392-5.48 13.111-3.987 3.155.997 5.085 3.423 5.418 6.746.226 2.255-.288 4.405-.848 6.555a3623.319 3623.319 0 0 0-4.019 15.476c-.033.125-.082.247-.136.405h-6.853c.247-.99.485-1.951.728-2.912 1.32-5.193 2.653-10.377 3.945-15.573a9.13 9.13 0 0 0 .037-4.694 4.576 4.576 0 0 0-1.588-2.5 4.69 4.69 0 0 0-2.806-1.029c-3.077-.227-5.348 1.18-7.207 3.432-1.995 2.434-2.966 5.314-3.702 8.3-1.207 4.835-2.441 9.663-3.703 14.485-.05.2-.288.5-.444.5-2.172.028-4.353.02-6.628.02zM148.737 46.53c-.662-2.986-1.317-5.911-2.012-9.035-.185.361-.3.573-.411.788-1.769 3.537-4.205 6.437-8.063 7.857-3.077 1.132-6.212 1.217-9.24-.17-3.028-1.388-4.2-3.899-4.357-7.01-.106-2.093.474-4.085.984-6.085l3.842-15.058c.078-.316.107-.624.597-.616 2.056.024 4.113 0 6.17 0 .115.012.23.032.342.06-.272 1.06-.535 2.09-.802 3.12-1.296 5.038-2.625 10.068-3.863 15.119a12.633 12.633 0 0 0-.301 3.52c.132 3.197 2.51 5.173 5.76 4.917 2.559-.198 4.467-1.513 6.026-3.4 1.979-2.384 2.987-5.2 3.703-8.153 1.201-4.9 2.468-9.788 3.702-14.68.079-.309.144-.52.539-.515h6.171c.104.013.205.036.304.069-.329 1.338-.645 2.652-.974 3.967-2.016 8.094-4.035 16.187-6.056 24.278-.309 1.217-.066.965-1.279.998l-.782.028zM36.17 7.254c-3.445 0-5.166.879-5.163 2.637v30.578c0 1.758 1.72 2.635 5.163 2.632v3.246H16.917V43.1c3.48 0 5.22-.877 5.22-2.632V9.89c0-1.755-1.74-2.634-5.22-2.637V3.879H36.17v3.375zM65.246 3.879a39.274 39.274 0 0 1 6.792.543c1.868.294 3.656.956 5.258 1.948a9.371 9.371 0 0 1 3.369 3.8c.792 1.604 1.19 3.643 1.193 6.118.003 2.474-.395 4.57-1.193 6.287a9.999 9.999 0 0 1-3.374 4.033 13.98 13.98 0 0 1-5.257 2.141c-2.239.44-4.518.652-6.8.633h-8.948v11.079c0 1.76 2.146 2.64 6.438 2.64v3.246h-20.47V43.1c3.44 0 5.16-.877 5.163-2.632V9.89c0-1.755-1.721-2.634-5.163-2.637V3.879h22.992zm-8.96 4.807v16.007h7.944c3.132 0 5.374-.707 6.726-2.122 1.352-1.414 2.028-3.5 2.028-6.255 0-2.41-.676-4.285-2.028-5.626-1.352-1.342-3.594-2.01-6.726-2.004h-7.944z" fill="#fff"/><path d="M198.981 8.895c.309.286.666.515 1.055.679.66.252 1.376.325 2.074.212a4.691 4.691 0 0 0 1.061-.254 16.162 16.162 0 0 1-4.375 7.273 11.178 11.178 0 0 0 5.932-2.16c2.371-1.782 4.626-5.074 4.225-8.633-.067-.58-.443-3.372-2.46-4.866-1.306-.97-2.872-1.325-4.699-1.062-1.504.215-2.663.818-3.485 1.795-.822.977-1.125 2.22-.908 3.714.208 1.427.735 2.528 1.58 3.302zM10.019 8.895c-.31.286-.666.515-1.055.679a4.018 4.018 0 0 1-2.074.212 4.678 4.678 0 0 1-1.06-.254 16.162 16.162 0 0 0 4.374 7.273 11.181 11.181 0 0 1-5.932-2.16C1.902 12.863-.354 9.571.047 6.012c.067-.58.443-3.372 2.46-4.866C3.813.176 5.379-.179 7.206.084 8.71.299 9.869.902 10.69 1.879c.822.977 1.125 2.22.908 3.714-.208 1.427-.735 2.528-1.58 3.302z" fill="#DA4533"/></g><defs><clipPath id="a"><path fill="#fff" d="M0 0h209v47H0z"/></clipPath></defs></svg>