<svg width="297" height="97" fill="none" xmlns="http://www.w3.org/2000/svg"><path d="M295.636 32.732c.64 6.01-2.718 12.258-9.567 18.427-6.838 6.16-17.076 12.165-29.975 17.676-25.793 11.019-62.117 20.02-102.857 24.374-40.74 4.355-78.142 3.234-105.673-2.085-13.769-2.661-25.04-6.366-33.021-10.942-7.994-4.584-12.59-9.98-13.23-15.99-.64-6.011 2.717-12.258 9.566-18.427 6.839-6.16 17.077-12.165 29.976-17.676 25.792-11.02 62.117-20.02 102.857-24.375C184.451-.64 221.853.48 249.385 5.8c13.769 2.66 25.04 6.366 33.021 10.942 7.994 4.583 12.59 9.98 13.23 15.99z" stroke="#fff"/></svg>