<svg width="65" height="99" fill="none" xmlns="http://www.w3.org/2000/svg"><path fill-rule="evenodd" clip-rule="evenodd" d="M-180.243 33.321v6.7l-1.327-1.251c-2.272-2.142-4.555-2.951-8.271-2.931-2.629.014-4.319.41-6.637 1.557-5.266 2.603-8.522 8.182-8.522 14.599s3.256 11.996 8.522 14.6c2.318 1.146 4.008 1.542 6.637 1.556 3.716.02 5.999-.789 8.271-2.93l1.327-1.252v3.428h7.894V26.621h-7.894v6.7zm118.226-1.714v4.986h-5.202v5.698h5.188l.052 9.66c.052 9.59.055 9.667.462 10.666a7.737 7.737 0 0 0 4.317 4.278c.93.367 1.367.405 5.275.465l4.26.066V60.63h-2.377c-2.707-.001-3.251-.188-3.783-1.3-.271-.567-.297-1.457-.255-8.791l.047-8.16 2.915-.05 2.915-.048v-5.689h-5.92V26.62h-7.894v4.986zm-93.199 4.287c-6.913.91-12.592 6.129-13.979 12.844-.363 1.757-.363 4.757 0 6.514 1.283 6.21 6.142 11.08 12.591 12.618 1.935.462 5.277.381 7.446-.18 1.966-.507 4.226-1.56 5.665-2.638 2.124-1.592 4.164-4.081 5.141-6.273l.444-.997h-4.214c-2.52 0-4.214.068-4.214.168 0 .092-.44.64-.979 1.218-1.715 1.839-3.826 2.653-6.445 2.486-3.756-.24-6.221-2.421-7.545-6.676l-.125-.401H-137.545l-.001-1.825c-.003-8.647-4.691-15.127-12.016-16.61-1.639-.333-4.172-.444-5.654-.248zm36.15-.027c-2.626.367-4.67 1.315-6.389 2.964l-1.146 1.099V36.593h-7.894v40.776h7.894V64.06l1.146 1.1c2.171 2.081 4.702 3.011 8.183 3.007 6.145-.009 11.184-3.226 13.799-8.81 1.165-2.487 1.532-4.25 1.532-7.362 0-2.219-.071-2.942-.418-4.273-1.275-4.893-4.509-8.842-8.774-10.714-2.11-.926-5.741-1.449-7.933-1.142zm33.907.01c-1.77.221-3.344.673-4.965 1.424-1.876.87-2.899 1.568-4.43 3.02-3.3 3.132-5.014 7.124-5.014 11.674s1.715 8.542 5.015 11.674c1.532 1.454 2.55 2.148 4.451 3.032 4.26 1.982 9.392 1.982 13.653 0 4.271-1.987 7.33-5.452 8.746-9.91 2.134-6.714-.502-14.196-6.427-18.242-2.963-2.023-7.472-3.116-11.03-2.672zm142.579.72c-2.162.542-4.017 2.262-4.642 4.304-.754 2.462-.07 5.269 1.662 6.822 2.209 1.98 5.749 2.255 8.02.622 1.372-.987 2.54-3.317 2.54-5.07v-.806h-6.817v2.136h2.063c1.135 0 2.063.053 2.063.118s-.205.466-.456.891c-.594 1.006-1.525 1.484-2.889 1.484-2.482 0-4.216-2.028-3.93-4.598.373-3.36 3.792-4.885 6.412-2.858.587.453.807.512 1.929.512.696 0 1.266-.068 1.266-.152 0-.272-1-1.527-1.71-2.144a7.038 7.038 0 0 0-1.48-.95c-.907-.398-3.03-.562-4.031-.312zm-90.374 6.419v6.245l3.633-.057c3.397-.054 3.69-.085 4.497-.48 1.067-.522 1.71-1.438 1.854-2.641.127-1.06-.136-1.966-.764-2.639l-.451-.483.361-.383c1.589-1.678 1-4.488-1.146-5.47-.622-.286-1.203-.33-4.35-.333l-3.633-.004v6.245zm12.38-.013v6.232h2.511v-4.808h1.923l1.844 2.404 1.844 2.404h1.5c.825 0 1.5-.06 1.498-.133-.001-.074-.802-1.17-1.778-2.436l-1.777-2.302.844-.388c2.034-.935 2.757-3.21 1.675-5.265-.404-.768-.681-1.043-1.455-1.445l-.956-.495h-7.674v6.232zm16.897-5.928c-.313.6-5.237 11.938-5.237 12.057 0 .065.576.095 1.28.066l1.28-.052.592-1.335.592-1.336 2.806-.049 2.805-.05.654 1.43.655 1.43h1.318c1.182 0 1.308-.034 1.217-.317-.056-.174-1.26-2.959-2.677-6.188L-.967 36.86l-1.272-.053c-1.074-.043-1.298-.002-1.438.268zm9.474 5.928v6.232h2.506l.048-4.293.048-4.294 3.05 4.29 3.05 4.291 1.39.003 1.39.003V36.771h-2.512v4.195c0 2.536-.065 4.154-.166 4.092-.092-.056-1.478-1.944-3.08-4.195l-2.914-4.092h-2.81v6.232zm14.352.006v6.267l3.095-.08c3.818-.1 4.667-.358 6.244-1.9 1.403-1.371 1.846-2.553 1.748-4.664-.12-2.557-1.236-4.235-3.53-5.303-.954-.444-1.184-.473-4.282-.528l-3.274-.059v6.267zm13.276-.006v6.232h2.512V36.771h-2.512v6.232zm5.382 0v6.232h2.505l.049-4.316.048-4.317 3.054 4.272 3.054 4.272 1.386.052 1.386.052V36.77h-2.512v8.594l-3.063-4.297-3.063-4.296h-2.844v6.232zm-64.639-3.484c.348.401.422.636.337 1.065-.196.979-.66 1.164-2.929 1.168l-2.018.004v-1.305c0-.719.06-1.367.135-1.442.074-.075 1.01-.106 2.081-.07 1.89.062 1.96.08 2.394.58zm12.563-.256c.887.574.936 1.84.095 2.496-.396.31-.73.354-2.67.354h-2.22V38.87l2.199.067c1.514.047 2.321.148 2.596.325zm39.712.127c1.547.68 2.425 2.164 2.28 3.855-.207 2.42-1.774 3.651-4.671 3.667l-1.39.008V38.857l1.494.093c.908.056 1.806.229 2.287.44zm-27.806 2.864.837 1.906-1.706.052c-.937.028-1.74.015-1.785-.03-.044-.043.31-.96.786-2.037.476-1.076.903-1.921.948-1.878.045.044.46.938.92 1.987zm-185.248.279c2.753.73 4.785 2.754 5.791 5.768.397 1.192.46 1.693.463 3.694.004 2.07-.048 2.466-.491 3.74-.602 1.73-1.284 2.822-2.426 3.883-3.075 2.854-8.083 2.787-11.045-.15-4.323-4.284-3.478-13.25 1.523-16.158 1.635-.95 4.277-1.283 6.185-.777zm35.521 0c2.598.688 4.597 2.582 5.625 5.329.212.567.385 1.067.385 1.113 0 .045-3.641.082-8.092.082h-8.093l.115-.49c.063-.27.407-1.086.765-1.816 1.04-2.125 2.785-3.61 4.904-4.175 1.244-.331 3.23-.351 4.391-.043zm35.011.006c2.727.72 4.749 2.732 5.747 5.717.417 1.248.476 1.711.476 3.739.001 2.008-.06 2.498-.459 3.694-1.264 3.788-4.172 6.011-7.854 6.004-3.236-.006-5.83-1.607-7.253-4.478-2.503-5.048-.83-11.942 3.403-14.026 1.82-.896 4.075-1.143 5.94-.65zm34.963.026c2.876.739 5.063 3.106 5.91 6.396.41 1.595.362 4.68-.1 6.331-1.12 4.015-4.096 6.407-7.97 6.407-4.96 0-8.394-3.969-8.394-9.704 0-2.055.333-3.559 1.164-5.253.647-1.32 2.196-2.965 3.337-3.542 1.764-.894 4.093-1.138 6.053-.635zM-26.32 44.3c.711.357 1.012 1.038.743 1.683-.32.766-.868.938-2.989.938h-1.875v-2.849l1.839.003c1.11.002 2.015.09 2.282.225zm10.577 10.51c-1.86.524-3.25 1.713-4.095 3.5-.405.857-.467 1.22-.467 2.771 0 1.654.043 1.87.585 2.963 1.043 2.103 2.94 3.341 5.353 3.495 1.963.125 3.11-.295 4.49-1.647 1.253-1.226 1.81-2.436 1.987-4.317l.106-1.129-3.39.048-3.39.05-.053 1.112-.053 1.113h2.054c2.356 0 2.413.064 1.26 1.4-.745.865-1.563 1.157-2.959 1.057-3.916-.281-4.923-6.12-1.36-7.882 1.155-.571 2.398-.597 3.489-.073.432.207.88.528.996.712.177.28.436.334 1.607.334h1.395l-.347-.675c-.457-.889-1.814-2.115-2.836-2.564-1.027-.451-3.24-.587-4.372-.268zm39.352.129c-.824.266-1.393.615-2.17 1.33-4.238 3.894-1.855 10.907 3.829 11.269 2.308.147 4.407-.799 5.59-2.518.327-.476.595-.937.595-1.024 0-.087-.593-.159-1.318-.159-1.12 0-1.369.057-1.66.382-.9 1.005-3.065 1.351-4.357.697-1.414-.716-2.241-2.132-2.241-3.839 0-3.59 3.776-5.48 6.462-3.232.495.414.721.472 1.839.472.701 0 1.274-.06 1.274-.133-.001-.274-.707-1.27-1.358-1.916-1.536-1.524-4.199-2.07-6.485-1.33zm-52.529.001c-.373.6-5.405 12.283-5.324 12.363.2.2 2.327.092 2.496-.127.095-.122.406-.765.692-1.429l.52-1.206 2.84.049 2.84.049.58 1.335.581 1.335 1.292.053c.964.039 1.29-.006 1.29-.178 0-.127-1.196-2.955-2.657-6.285l-2.656-6.054-1.185-.052c-.736-.033-1.231.023-1.309.147zm23.237 6.137v6.328l4.44-.048 4.44-.048.053-1.112.054-1.113h-6.476v-2.849h6.28v-2.315h-6.28V57.07h6.476l-.054-1.113-.053-1.113-4.44-.047-4.44-.048v6.327zM5.7 54.98c-.048.123-.066 2.947-.04 6.277l.048 6.052h2.511l.09-4.18.09-4.181 2.979 4.18 2.98 4.181 1.37.052 1.372.052V54.755h-2.505l-.049 4.293-.048 4.294-3.05-4.29-3.05-4.291-1.306-.003c-.885-.002-1.334.07-1.392.22zm26.47-.117c0 .067 1.09 1.903 2.421 4.08l2.422 3.96v4.495h2.512v-2.18l.001-2.182 2.42-4.006c1.332-2.204 2.422-4.067 2.422-4.14 0-.074-.593-.134-1.318-.134h-1.32l-1.674 2.762c-.921 1.52-1.741 2.697-1.822 2.616-.081-.08-.859-1.303-1.728-2.718l-1.58-2.571-1.378-.052c-.758-.029-1.379.003-1.379.07zm-59.204 4.879c.318.734.691 1.596.83 1.914l.252.579h-3.572l.633-1.38c.349-.76.75-1.653.89-1.986.14-.334.285-.574.322-.535.037.04.327.673.645 1.408z" fill="#fff" opacity=".4"/></svg>