<svg width="270" height="99" fill="none" xmlns="http://www.w3.org/2000/svg"><path fill-rule="evenodd" clip-rule="evenodd" d="M54.846 3.53c-.729.298-1.38 1.119-2.603 3.284-3.755 6.643-10.215 13.008-16.983 16.732-1.153.634-2.345 1.445-2.65 1.803-1.714 2.012-.29 5.08 2.358 5.077 1.442-.001 2.331-.672 3.466-2.614 4.7-8.047 10.444-13.714 18.432-18.186 1.612-.902 2.318-1.716 2.511-2.896.17-1.037-.493-2.411-1.44-2.982-.752-.454-2.255-.56-3.091-.218zm11.562.92c-1.035.624-1.938 1.787-3.255 4.193-2.12 3.873-5.403 7.81-11.732 14.07-6.373 6.304-10.347 9.54-14.252 11.605-2.672 1.413-4.046 2.66-4.408 4-.735 2.72 1.541 5.114 4.425 4.651 1.585-.254 2.359-1.138 5.086-5.807 1.669-2.857 4.948-6.775 9.62-11.496 6.625-6.694 11.012-10.346 15.48-12.887 1.3-.74 2.65-1.544 2.997-1.788 1.682-1.18 2.177-3.797 1.013-5.357-1.167-1.565-3.444-2.107-4.974-1.185zm-20.694.703c-.314.243-1.152 1.423-1.864 2.621-1.687 2.84-4.4 5.58-6.93 7-2.811 1.578-3.464 2.193-3.464 3.265 0 .714.15 1.015.752 1.516 1.245 1.037 2.577.512 3.56-1.402 1.922-3.737 5.017-6.834 8.886-8.894 2.26-1.203 2.782-2.572 1.474-3.866-.8-.791-1.603-.871-2.414-.24zM77.286 8.19c-1.27.571-2.333 1.842-3.864 4.626-5.813 10.563-21.407 25.97-32.047 31.66-3.844 2.056-5.373 4.019-4.93 6.329.587 3.055 3.976 4.746 6.711 3.347 1.043-.534 2.205-2.01 3.706-4.706 3.932-7.066 11.934-16.1 21.22-23.955 4.314-3.65 6.746-5.366 10.714-7.557 2.904-1.604 3.982-2.491 4.562-3.754 1.741-3.79-2.236-7.713-6.072-5.99zm4.472 11.697c-.932.563-1.614 1.469-3.064 4.07-2.288 4.107-6.328 8.885-12.888 15.24-5.874 5.69-9.49 8.545-13.739 10.845-1.008.546-2.193 1.328-2.633 1.739-2.038 1.902-1.54 5.18.954 6.272 2.33 1.02 4.408-.126 6.125-3.377 2.214-4.192 6.035-8.868 12.268-15.015 6.16-6.073 10.538-9.606 14.647-11.82 3.158-1.701 4.153-2.863 4.153-4.853 0-1.08-.73-2.256-1.873-3.018-1.028-.685-2.886-.724-3.95-.083zm2.137 12.385c-1.004.453-1.166.664-3.447 4.467-3.56 5.939-9.96 12.098-15.912 15.313-2.89 1.561-3.66 2.397-3.66 3.975-.002 2.347 2.422 3.862 4.487 2.806.83-.425 1.46-1.248 2.954-3.858 3.227-5.638 10.324-12.681 15.718-15.599 3.411-1.844 4.252-2.703 4.254-4.343.002-2.32-2.245-3.733-4.394-2.761zm-.27 10.435c-.283.197-1.119 1.38-1.857 2.63-1.725 2.921-4.607 5.79-7.317 7.282-1.033.57-2.112 1.24-2.398 1.491a1.989 1.989 0 0 0-.45 2.456c.41.784.793.98 1.913.98.925 0 1.513-.598 2.791-2.846 1.791-3.147 4.529-5.816 7.78-7.583 2.074-1.128 2.596-1.692 2.596-2.812 0-1.57-1.767-2.492-3.058-1.598zm147.739 16.486c-1.816.355-3.366 1.18-4.444 2.367-1.356 1.49-1.878 3.027-1.729 5.085.195 2.697 1.41 4.462 3.909 5.678 1.5.73 1.72.77 4.187.77 1.959 0 2.882-.106 3.727-.428l1.123-.428v-2.085c0-1.147-.037-2.085-.082-2.085-.044 0-.709.215-1.477.476-2.212.755-3.828.84-5.13.27-2.61-1.142-2.711-4.17-.178-5.3 1.304-.581 3.73-.399 5.53.416l1.337.605v-4.352l-1.005-.374c-2.218-.825-3.823-.996-5.768-.615zM90.931 60.41c-.143.674-.795 3.647-1.45 6.604-.654 2.957-1.19 5.509-1.19 5.67-.001.212.577.292 2.106.292h2.108l.236-1.11c.13-.612.582-2.9 1.004-5.086.58-3.004.812-3.831.951-3.39.102.322.46 2.479.796 4.793.336 2.315.658 4.34.715 4.5.078.219 1.123.293 4.137.293 3.022 0 4.054-.074 4.119-.293.048-.16.372-2.185.722-4.5.349-2.314.713-4.467.809-4.784.127-.422.379.486.941 3.39.421 2.181.875 4.465 1.007 5.076l.24 1.11h2.226c1.224 0 2.225-.078 2.225-.175-.001-.096-.377-1.91-.836-4.032-.97-4.489-1.999-9.38-1.999-9.501 0-.047-1.629-.085-3.618-.085h-3.618l-.899 4.734c-.495 2.604-.975 4.994-1.067 5.31-.178.613-.233.38-1.568-6.712l-.627-3.332h-7.21l-.26 1.227zm24.066 5.665v6.9h11.818V69.47h-7.8v-1.637h7.564V64.326h-7.564v-1.391l3.841-.064 3.841-.064V59.3l-5.85-.063-5.85-.062v6.9zm13-4.906v1.987h4.481l.064 4.852.064 4.85 2.068.068 2.068.068v-9.837h4.49v-3.975h-13.235v1.987zm17.255-1.46c-.612 1.433-4.965 12.889-4.965 13.064 0 .112.936.203 2.08.203h2.081l.425-1.17.425-1.168h6.06l.392 1.169.393 1.169h2.226c1.224 0 2.226-.07 2.226-.157s-.253-.797-.562-1.578c-.309-.782-1.495-3.815-2.636-6.74l-2.074-5.319H148.4c-2.808 0-2.932.02-3.148.526zm19.852.291v.819l-1.95.002c-1.543.002-2.197.116-3.132.547-3.106 1.43-3.866 5.903-1.449 8.533.959 1.044 2.252 1.515 4.463 1.626l2.068.103v1.346h4.254V71.63l2.068-.103c3.891-.195 5.805-1.992 5.805-5.448 0-1.616-.43-2.759-1.394-3.704-1.129-1.107-1.961-1.41-4.233-1.546l-2.128-.127-.074-.76-.074-.76h-4.224v.818zm14.181 6.061v6.915h4.018V69.704h1.879c3.549 0 5.357-.797 6.4-2.82.968-1.875.489-4.885-.988-6.212-1.398-1.256-1.914-1.367-6.759-1.448l-4.55-.077v6.915zm18.304-6.064c-.19.448-1.1 2.789-2.023 5.202-.924 2.413-1.933 5.047-2.244 5.853-.311.807-.565 1.57-.565 1.695 0 .132.884.229 2.08.229h2.081l.425-1.17.425-1.168h5.987l.419 1.169.42 1.169h2.236c1.229 0 2.235-.037 2.235-.081 0-.077-.917-2.474-3.099-8.102a910.111 910.111 0 0 1-1.553-4.033l-.602-1.578h-5.878l-.344.815zm13.131 6.082v6.915l2.068-.068 2.068-.067.063-2.221c.114-3.99-.144-3.93 2.613-.605l2.44 2.943h2.583c1.42 0 2.582-.064 2.582-.141 0-.078-1.265-1.689-2.812-3.58l-2.812-3.438.848-1.038c.465-.57 1.624-1.956 2.575-3.077.951-1.122 1.729-2.148 1.729-2.28 0-.148-.891-.24-2.321-.24h-2.321l-2.463 3.023c-1.354 1.662-2.497 2.988-2.539 2.946-.042-.042-.097-1.376-.121-2.964l-.044-2.888-2.068-.068-2.068-.067v6.915zm-61.465-1.246c.397 1.114.722 2.088.722 2.162 0 .075-.744.136-1.654.136-.91 0-1.655-.079-1.656-.175-.004-.493 1.558-4.458 1.7-4.316.091.091.491 1.078.888 2.193zm52.365-.157.772 2.163c.079.216-.331.292-1.574.292-.924 0-1.681-.079-1.683-.175-.008-.46 1.542-4.472 1.671-4.322.081.095.447 1.014.814 2.042zm-14.299-1.286c.26.258.473.73.473 1.052 0 1.105-.743 1.52-2.718 1.52h-1.773v-3.04h1.773c1.457 0 1.856.084 2.245.468zm-22.217 2.689v1.753h-1.162c-1.507 0-1.853-.147-2.284-.97-.692-1.325.465-2.526 2.441-2.533l1.005-.004v1.754zm7.323-1.172c.651.583.631 1.83-.041 2.449-.386.355-.836.476-1.772.476h-1.256V64.27l1.297.106c.798.065 1.479.27 1.772.533zm-83.32 17.01c-.064.165-.087 3.296-.053 6.96l.063 6.66h4.018l.064-4.968.064-4.969h7.336l-.069-1.928-.068-1.93-5.62-.062c-4.395-.049-5.644.003-5.734.237zm12.891 6.707v7.048l2.068-.068 2.068-.068v-3.272l2.6-.117c3.157-.142 4.311-.652 5.39-2.378 1.246-1.996.862-5.118-.82-6.67-1.222-1.128-2.16-1.322-6.874-1.426l-4.432-.098v7.049zm13.237-6.714c.001.165.559 1.142 1.241 2.17 2.645 3.991 4.194 6.468 4.194 6.705 0 .273-1.485 2.786-2.169 3.673-.838 1.084-.632 1.219 1.752 1.146l2.182-.068 3.251-5.143c1.788-2.829 3.724-5.874 4.303-6.767.578-.893.998-1.709.934-1.812-.147-.235-3.901-.243-4.235-.01-.135.095-.932 1.251-1.772 2.569s-1.581 2.395-1.646 2.392c-.065-.002-.863-1.133-1.773-2.513l-1.654-2.51-2.305-.066c-1.756-.051-2.304.005-2.303.234zm16.652.007c-.064.165-.088 3.296-.053 6.96l.063 6.66h4.018l.063-4.968.064-4.969h5.181l.064 4.969.064 4.968h4.018l-.048-6.897-.048-6.897-6.635-.062c-5.215-.049-6.66.002-6.751.236zm16.688.041c-.212.252-.265 2.044-.209 6.959l.075 6.62h4.018l.064-4.968.064-4.969h5.181l.063 4.969.064 4.968h4.018V81.743l-6.527-.062c-5.471-.052-6.572-.007-6.811.277zm-38.765 3.765c.924.473 1.026 1.494.229 2.303-.566.575-3.489.845-3.818.352-.205-.309-.232-2.47-.035-2.836.173-.321 2.909-.184 3.624.181z" fill="#fff" opacity=".6"/></svg>