<svg width="65" height="99" fill="none" xmlns="http://www.w3.org/2000/svg"><path fill-rule="evenodd" clip-rule="evenodd" d="M135.307 18.553c-10.959 1.018-20.188 2.985-28.822 6.144-11.615 4.25-20.95 9.917-28.802 17.485l-2.497 2.406-.45-.625c-1.009-1.398-3.953-4.161-5.54-5.199-3.238-2.117-7.175-3.72-10.828-4.407-2.644-.498-6.232-.458-8.553.095-1.733.413-3.379 1.068-3.61 1.437-.198.316 1.292 3.095 2.553 4.763 1.247 1.652 3.27 3.544 5.156 4.823 1.138.773 4.93 2.672 5.73 2.87.724.18.736.429.027.604-1.02.253-4.45 1.97-6.072 3.04-1.888 1.245-4.131 3.347-5.403 5.063-1.055 1.425-2.218 3.777-2.064 4.174.14.36 1.637 1.05 3.225 1.488 1.919.529 6.31.64 8.75.222 6.826-1.172 14.21-5.47 16.751-9.753.255-.429.55-.78.658-.78.107-.002 1.39 1.15 2.851 2.558 3.126 3.013 5.327 4.852 8.742 7.306 8.884 6.383 20.272 11.639 31.618 14.591 17.5 4.555 37.419 5.079 55.339 1.456 12.58-2.543 24.491-7.385 34.422-13.992 3.775-2.512 5.968-4.223 9.887-7.719 1.576-1.406 5.332-5.42 5.502-5.88.154-.416-3.184-4.425-5.978-7.18-10.021-9.883-23.265-17.125-39.186-21.425-5.174-1.398-11.74-2.562-19.115-3.39-4.19-.47-19.898-.583-24.291-.175zm-19.966 9.343c.416.132.849.458 1 .754.279.544.364 2.875.135 3.718-.126.465-.192.481-1.317.334-3.31-.435-4.011.216-4.094 3.803l-.048 2.04 3.168.105 3.169.104v1.598c0 1.416-.061 1.663-.528 2.163-.832.888-1.68 1.135-3.901 1.135h-2.014v9.063c0 10.87.301 9.896-3.052 9.896-1.226 0-2.447-.107-2.746-.242l-.538-.241V43.65l-1.109-.024c-.61-.014-1.19-.01-1.289.007-.099.017-.358-.024-.574-.092-1.013-.317-1.118-4.316-.13-4.936.138-.086.892-.158 1.676-.16l1.426-.003.001-1.198c.003-1.931.543-4.933 1.083-6.016.641-1.286 1.877-2.511 3.049-3.023 1.751-.764 4.756-.904 6.633-.309zm9.877-.07c.632.395 1.115 1.651 1.101 2.86-.029 2.384-.918 3.172-3.579 3.172-2.814 0-3.738-.957-3.532-3.657.176-2.287.954-2.858 3.743-2.744 1.066.043 1.987.193 2.267.368zm65.882 9.9c2.194.446 3.686 1.193 5.132 2.57 2.005 1.908 2.903 4.288 3.116 8.26.321 5.984-1.942 10.589-6.144 12.499-2.18.991-3.662 1.216-7.166 1.089l-2.995-.11-.408.86c-.237.498-1.42 1.842-2.807 3.188-1.318 1.28-2.323 2.363-2.231 2.408.091.044 1.449.106 3.017.138 1.569.03 2.93.131 3.027.223.305.29.41 1.805.158 2.27-.238.439-.339.447-5.579.447-3.869 0-5.406-.069-5.59-.25-.14-.138-.253-.801-.253-1.479v-1.228l2.614-2.636c1.437-1.45 2.783-2.965 2.99-3.366.517-1 .523-2.34.013-2.895-.581-.633-2.21-.593-3.699.091-1.398.642-1.602.505-1.602-1.079 0-1 .078-1.219.58-1.645.319-.27 1.103-.654 1.743-.853.639-.2 1.162-.462 1.16-.584-.001-.123-.138-.726-.305-1.342-.473-1.754-.603-4.123-.343-6.233.42-3.401 1.393-5.615 3.268-7.436 1.203-1.168 1.915-1.613 4.021-2.516 1.713-.733 5.683-.921 8.283-.392zm-48.814.829c1.941.495 3.033 1.085 3.201 1.729.284 1.087.173 3.349-.183 3.7-.301.297-.394.298-.96.01-2.298-1.173-5.33-1.696-6.886-1.19-2.194.715-2.174 3.265.035 4.37.424.212 1.77.784 2.989 1.272 3.749 1.497 5.527 3.023 6.147 5.276.348 1.26.128 4.034-.399 5.043-1.519 2.907-4.666 4.464-9.022 4.462-3.115 0-6.706-1.007-7.264-2.035-.374-.69-.507-2.583-.248-3.53.193-.708.337-.886.714-.886.261 0 .664.131.896.292.824.57 3.175 1.392 4.515 1.58 3.366.472 5.656-1.247 4.592-3.448-.425-.879-.86-1.155-3.554-2.256-3.051-1.247-3.884-1.697-4.97-2.684-1.683-1.531-2.332-3.575-1.931-6.089.431-2.706 2.204-4.508 5.455-5.545 1.511-.482 5.119-.52 6.873-.071zm-17.078.548.489.453v11.2c0 12.57.115 11.717-1.617 11.973-1.23.182-4.055-.043-4.434-.354-.234-.19-.283-2.104-.268-10.469.01-5.63.087-10.786.173-11.46.21-1.662.438-1.796 3.057-1.796 1.877 0 2.165.05 2.6.453zm29.923.363c.564.091 1.116.297 1.227.456.117.169.175 1.994.137 4.353l-.066 4.063 3.492.057 3.491.057.06-4.224c.034-2.408.149-4.313.268-4.432.306-.307 4.353-.396 5.298-.117l.804.238v11.346c0 11.068-.01 11.356-.422 11.763-.372.366-.704.416-2.736.416-1.296 0-2.549-.105-2.848-.24l-.534-.24-.057-4.556-.056-4.558-3.38-.024-3.38-.025-.056 4.599-.057 4.598-.758.247c-1 .325-4.764.184-5.229-.197-.307-.251-.341-1.422-.339-11.556.002-6.203.085-11.404.184-11.559.368-.571 2.858-.805 4.957-.465zm31.166 2.726c-1.909.323-2.771 1.065-3.874 3.333-.423.87-.586 1.596-.679 3.021-.244 3.789.695 6.922 2.431 8.102 2.068 1.406 5.39 1.106 7.03-.635 1.424-1.511 1.968-3.58 1.82-6.922-.117-2.642-.503-3.986-1.52-5.302-1.013-1.31-3.108-1.952-5.208-1.597z" fill="#fff" opacity=".6"/></svg>