<svg width="270" height="99" fill="none" xmlns="http://www.w3.org/2000/svg"><path fill-rule="evenodd" clip-rule="evenodd" d="M204.732 11.74c-.167.065-2.432 2.263-5.032 4.884-3.898 3.93-4.727 4.865-4.727 5.334 0 .428.315.877 1.271 1.817.699.687 1.485 1.314 1.746 1.392.419.126 1.06-.448 5.363-4.794 3.854-3.895 4.887-5.049 4.887-5.466 0-.385-.386-.905-1.425-1.922-1.435-1.404-1.527-1.46-2.083-1.244zm.61 19.917c-.056.057-.742.156-1.525.221-2.216.183-3.14.336-4.676.77-3.933 1.115-6.241 2.458-9.065 5.276-3.628 3.621-5.119 6.696-5.994 12.36-.368 2.386-.363 4.157.02 6.748.651 4.402 1.914 7.47 4.294 10.435 3.547 4.416 7.993 6.922 13.592 7.658 3.722.49 12.752.4 13.282-.132.075-.075.168-.958.208-1.962.054-1.407-.002-1.938-.248-2.315l-.319-.488-5.547-.103c-5.748-.107-7.646-.24-7.976-.561-.107-.103-.391-.188-.633-.188-1.26 0-4.89-1.993-6.67-3.662-1.077-1.01-2.684-3.298-3.234-4.607-.476-1.135-1.164-3.756-1.164-4.438 0-.551.028-.565 1.169-.57.643-.003 6.109-.062 12.146-.13 9.761-.111 11.006-.162 11.237-.455.329-.416.229-4.007-.121-4.359-.175-.176-3.378-.241-12.283-.248l-12.046-.01.04-.89c.056-1.215.79-3.573 1.533-4.922 1.718-3.12 3.953-5.114 7.271-6.486 3.297-1.364 5.455-1.69 11.2-1.69 2.841 0 4.84-.082 5.079-.21.349-.188.393-.445.393-2.324 0-1.657-.068-2.168-.315-2.374-.228-.19-1.584-.288-4.931-.355-2.538-.05-4.661-.046-4.717.011zm-86.002.535c-2.586.537-4.394 1.14-6.188 2.066-7.54 3.89-12.081 11.506-11.94 20.028.127 7.69 3.951 14.27 10.707 18.42 1.57.964 4.14 2.037 5.693 2.376.671.146 1.54.346 1.931.444 1.173.293 5.85.211 7.487-.132 5.503-1.153 10.013-4.034 13.417-8.57 1.069-1.423 2.605-4.367 3.092-5.922.14-.449.328-1 .416-1.225.329-.831.438-1.92.531-5.294.083-3.029.041-3.686-.338-5.31-1.678-7.17-6.234-12.678-12.812-15.49-3.686-1.576-8.445-2.128-11.996-1.39zm-57.226.173c-1.708.71-2.32 1.84-2.736 5.055-.131 1.011-.32 2.435-.42 3.165-.1.73-.284 2.109-.407 3.063-.124.955-.306 2.287-.405 2.961-.1.674-.281 2.052-.405 3.063-.123 1.01-.308 2.389-.41 3.063-.102.674-.285 2.006-.405 2.96-.121.955-.309 2.402-.417 3.217l-.407 3.062a651.245 651.245 0 0 1-1.015 7.198c-.107.73-.236 1.74-.285 2.246-.05.506-.154 1.446-.233 2.09-.204 1.675-.06 1.79 2.263 1.79 1.041 0 2.105-.081 2.364-.18.587-.224.83-1.085 1.275-4.516.182-1.404.372-2.829.422-3.165.144-.978 1.087-7.807 1.325-9.597.119-.899.3-2.231.401-2.961.383-2.755 1-7.524 1.215-9.393.372-3.232.688-5.23.758-4.798.037.224.155.73.263 1.122 1.947 7.092 3.03 10.901 3.98 13.992.381 1.238.693 2.404.693 2.592 0 .187.091.397.203.467.112.069.203.346.203.614 0 .27.087.7.192.958.106.258.39 1.159.631 2 .242.843.51 1.762.597 2.043.087.28.365 1.2.618 2.042 1.049 3.483 2.254 6.99 2.568 7.471.569.872 1.294 1.105 3.442 1.105 3.246 0 3.602-.43 5.161-6.228.091-.337.496-1.715.901-3.063s.921-3.093 1.147-3.88c.51-1.774 1.401-4.73 1.634-5.41.096-.282.908-3.13 1.805-6.33.897-3.201 1.715-6.096 1.818-6.433.103-.337.303-1.118.446-1.735.366-1.586.538-1.656.682-.279.07.659.215 1.91.323 2.78.52 4.178.618 4.966.818 6.534.119.927.303 2.282.41 3.012.495 3.384 1.05 7.307 1.432 10.108.23 1.684.455 3.246.502 3.47.12.575.417 2.467.577 3.676.267 2.014.583 3.369.834 3.578.155.129 1.172.19 2.565.156l2.31-.058.069-.715c.038-.393-.034-1.404-.16-2.246-.295-1.974-.546-3.78-.81-5.82-.407-3.154-.654-4.917-.942-6.738-.16-1.01-.705-4.916-1.21-8.678-.505-3.762-1.01-7.484-1.122-8.27-.112-.786-.294-2.095-.403-2.91-.678-5.016-.826-5.548-1.829-6.555-.952-.957-2.307-1.229-4.568-.918-.727.1-1.158.316-1.735.868-.655.628-.876 1.092-1.513 3.185-1.216 3.991-1.372 4.475-1.559 4.847-.098.195-.178.47-.178.612 0 .142-.28 1.177-.624 2.3-.345 1.124-.723 2.41-.842 2.86a61.009 61.009 0 0 1-.944 3.266c-.491 1.56-2.103 6.958-2.47 8.27-.11.393-.375 1.312-.588 2.042-.213.73-.587 2.108-.833 3.063-.245.954-.529 1.947-.63 2.204a3.069 3.069 0 0 0-.189.92c-.002.247-.084.578-.183.735-.203.322-.153.477-2.171-6.616l-1.511-5.309c-.475-1.663-.642-2.288-.736-2.756a6.117 6.117 0 0 0-.27-.92c-.247-.6-.523-1.458-.986-3.062-.226-.786-.703-2.394-1.058-3.573l-1.015-3.37c-1.845-6.143-2.515-7.981-3.136-8.604-1.08-1.085-3.432-1.427-5.087-.739zm87.508.246c-1.386.423-2.04 1.057-2.521 2.447-.274.789-.314 3.332-.314 20.045 0 10.527.056 19.286.124 19.464.103.27.523.323 2.534.323 2.173 0 2.432-.04 2.621-.394.142-.267.172-5.945.091-17.612-.115-16.767-.108-17.201.255-16.586.869 1.47 1.898 3.1 3.474 5.503.922 1.406 1.677 2.593 1.677 2.639 0 .045.641 1.052 1.423 2.239.783 1.186 1.424 2.241 1.424 2.344 0 .104.075.219.168.256.093.038.663.85 1.267 1.804a96.986 96.986 0 0 0 1.247 1.94c.082.112 2.493 3.742 5.358 8.065 2.864 4.324 5.544 8.169 5.954 8.544 1.225 1.12 1.77 1.32 3.309 1.209 2.263-.163 3.391-1.14 3.844-3.334.164-.793.211-6.492.165-19.904-.058-16.433-.104-18.816-.371-18.985-.457-.29-4.543-.253-4.839.045-.186.186-.245 4.336-.248 17.407l-.005 17.162-.909-1.429c-1.93-3.03-5.622-8.704-8.79-13.503-1.817-2.753-3.304-5.091-3.304-5.195a.19.19 0 0 0-.19-.19c-.104 0-.247-.183-.318-.407a2.035 2.035 0 0 0-.411-.69c-.156-.157-.447-.564-.648-.906-.33-.563-3.913-5.982-4.278-6.47a83.719 83.719 0 0 1-1.155-1.736c-1.535-2.346-2.47-3.386-3.469-3.858-.924-.436-2.198-.531-3.165-.237zm-23.433 4.89c.874.213 1.862.495 2.195.626 5.629 2.212 9.532 7.048 10.475 12.98 1.186 7.455-2.473 14.597-9.139 17.84-.717.348-1.464.634-1.662.634-.197 0-.408.081-.47.181-.061.1-.456.25-.876.334-1.026.205-6.459.213-7.457.011-1.187-.24-3.767-1.382-5.016-2.22-1.898-1.275-4.119-3.569-4.984-5.147-1.797-3.281-2.314-4.988-2.467-8.14-.231-4.75 1.524-9.266 4.934-12.698 3.853-3.88 9.527-5.605 14.467-4.4z" fill="#fff" opacity=".6"/></svg>