<svg width="167" height="176" fill="none" xmlns="http://www.w3.org/2000/svg"><path d="M83.098 34.965c-.463 0-.835-.39-.835-.9V8.723c0-.49.371-.9.835-.9.464 0 .854.391.854.9v25.344c0 .489-.39.9-.854.9zM83.098 138.317c-.463 0-.835-.392-.835-.9v-18.245c0-.489.371-.9.835-.9.464 0 .854.391.854.9v18.245c0 .508-.39.9-.854.9zM34.557 167.063a.828.828 0 0 1-.501-.176.932.932 0 0 1-.185-1.251l14.139-20.495c.278-.391.798-.489 1.187-.195a.932.932 0 0 1 .186 1.251l-14.14 20.495a.858.858 0 0 1-.686.371zM131.64 167.063a.859.859 0 0 1-.687-.371l-14.139-20.495a.935.935 0 0 1 .185-1.251c.372-.294.91-.196 1.188.195l14.139 20.495a.934.934 0 0 1-.185 1.251.829.829 0 0 1-.501.176zM138.765 77.597a.84.84 0 0 1-.798-.607c-.148-.47.093-.977.538-1.114l22.879-7.842a.817.817 0 0 1 1.058.567c.148.47-.093.978-.538 1.115l-22.879 7.841c-.093.02-.167.04-.26.04zM45.505 109.531a.84.84 0 0 1-.798-.606c-.149-.47.093-.978.538-1.115l16.459-5.632a.816.816 0 0 1 1.057.567c.149.469-.092.978-.538 1.115l-16.459 5.632a1.07 1.07 0 0 1-.26.039zM70.035 77.714a.857.857 0 0 1-.686-.372L59.18 62.578a.936.936 0 0 1 .186-1.252c.371-.293.91-.195 1.187.196l10.169 14.764a.935.935 0 0 1-.186 1.252.826.826 0 0 1-.5.176zM96.162 77.714a.826.826 0 0 1-.502-.176.933.933 0 0 1-.185-1.252l10.168-14.764c.279-.391.798-.49 1.188-.196.371.294.464.841.186 1.252L96.848 77.342a.857.857 0 0 1-.686.372zM120.692 109.531c-.093 0-.167-.02-.26-.039l-16.459-5.632a.888.888 0 0 1-.538-1.115c.149-.469.631-.724 1.058-.567l16.459 5.632a.888.888 0 0 1 .538 1.115.842.842 0 0 1-.798.606zM27.432 77.597c-.093 0-.167-.02-.26-.04l-22.88-7.841a.887.887 0 0 1-.537-1.115c.148-.47.612-.724 1.057-.567l22.88 7.842a.887.887 0 0 1 .538 1.114.824.824 0 0 1-.798.607z" fill="#fff"/><path d="M83.098 120.071a.828.828 0 0 1-.5-.176l-21.135-16.172a.929.929 0 0 1-.316-.998l8.072-26.184a.84.84 0 0 1 .798-.607h26.126c.371 0 .686.255.798.606l8.071 26.185a.927.927 0 0 1-.315.998l-21.135 16.172a.629.629 0 0 1-.464.176zm-20.151-17.404 20.151 15.409 20.152-15.409-7.7-24.953H70.647l-7.701 24.953z" fill="#fff"/><path d="M131.64 167.063H34.557a.847.847 0 0 1-.798-.606L3.755 69.168a.928.928 0 0 1 .315-.997L82.597 8.037a.8.8 0 0 1 1.002 0l78.546 60.134a.926.926 0 0 1 .315.997l-30.004 97.289c-.13.352-.445.606-.816.606zm-96.452-1.779h95.839l29.615-96.077-77.544-59.37-77.543 59.37 29.633 96.077z" fill="#fff"/><path d="M117.5 146.569c-.055 0-.13 0-.185-.02l-34.217-8.193-34.216 8.193a.799.799 0 0 1-.687-.156.97.97 0 0 1-.352-.645l-3.173-36.823-17.962-31.759a.899.899 0 0 1-.074-.723.84.84 0 0 1 .464-.548l32.25-14.569L82.448 33.5c.315-.391.946-.391 1.28 0l23.102 27.827 32.25 14.57a.84.84 0 0 1 .463.547.887.887 0 0 1-.074.723l-17.962 31.759-3.173 36.823a.897.897 0 0 1-.352.645.706.706 0 0 1-.483.176zm-34.402-10.032c.056 0 .13 0 .186.019l33.456 8.018 3.098-36.021c.019-.137.056-.254.112-.372l17.572-31.073-31.545-14.237a.897.897 0 0 1-.296-.235L83.08 35.416l-22.6 27.22a.899.899 0 0 1-.298.235L28.638 77.108 46.21 108.18a.671.671 0 0 1 .111.372l3.1 36.021 33.455-8.018c.093-.019.167-.019.222-.019z" fill="#fff"/><path d="M46.581 149.17c-.186 0-.353-.137-.408-.333l-19.15-72.023c-.055-.234.075-.489.297-.547.223-.078.464.078.52.313l19.15 72.023c.055.234-.075.489-.298.547-.037.02-.074.02-.111.02z" fill="#fff"/><path d="M41.98 155.877a.424.424 0 0 1-.409-.352l-14.529-78.71a.473.473 0 0 1 .334-.529c.26-.058.445.118.501.352l14.529 78.711a.473.473 0 0 1-.334.528h-.093z" fill="#fff"/><path d="M37.006 163.054a.443.443 0 0 1-.426-.391l-9.575-85.907c-.019-.255.13-.47.371-.49.223-.058.445.157.464.392l9.575 85.907c.018.255-.13.47-.372.489h-.037z" fill="#fff"/><path d="M29.658 150.715c-.222 0-.408-.196-.426-.43l-2.227-73.569c0-.254.167-.45.408-.45h.019c.222 0 .408.196.427.43l2.226 73.569a.41.41 0 0 1-.427.45c.019 0 .019 0 0 0z" fill="#fff"/><path d="M23.498 130.709h-.037a.43.43 0 0 1-.39-.469l3.953-53.543c.018-.254.222-.45.445-.41.241.019.408.234.39.469l-3.953 53.543c0 .234-.185.41-.408.41z" fill="#fff"/><path d="M19.694 118.37h-.074c-.223-.039-.371-.274-.334-.528l6.661-35.435-8.87 25.892a.415.415 0 0 1-.537.273c-.223-.078-.334-.332-.26-.567L27.042 76.56a.416.416 0 0 1 .798.235l-7.756 41.223a.406.406 0 0 1-.39.352z" fill="#fff"/><path d="M14.109 100.281a.476.476 0 0 1-.223-.059.46.46 0 0 1-.148-.606l11.82-20.514-13.639 13.044c-.167.156-.445.156-.594-.04-.148-.175-.148-.469.038-.625l15.79-15.117a.408.408 0 0 1 .557-.02.444.444 0 0 1 .093.568L14.48 100.046c-.093.157-.223.235-.371.235z" fill="#fff"/><path d="M9.618 85.692a.431.431 0 0 1-.39-.254c-.092-.234 0-.489.205-.587l15.902-7.626-18.166.567H7.15c-.222 0-.408-.195-.426-.43 0-.254.167-.45.408-.45l20.263-.645c.167-.02.37.137.426.352a.467.467 0 0 1-.24.508L9.766 85.673c-.037.02-.093.02-.149.02z" fill="#fff"/><path d="M47.472 131.785a.42.42 0 0 1-.39-.293l-20.021-54.62a.426.426 0 0 1 .24-.566.393.393 0 0 1 .539.254L47.86 131.18a.426.426 0 0 1-.24.567c-.056.019-.112.039-.15.039z" fill="#fff"/></svg>