<svg width="167" height="176" fill="none" xmlns="http://www.w3.org/2000/svg"><path d="M90.658 174.978H77.78a.647.647 0 0 1-.334-.078l-15.364-7.079a.753.753 0 0 1-.204-.137l-38.243-33.557a.57.57 0 0 1-.186-.235l-4.564-8.174-7.181-11.694a1.574 1.574 0 0 1-.13-.313l-7.85-43.668a.68.68 0 0 1 0-.274l1.93-16.27 1.615-9.23c.037-.196.13-.372.26-.509l17.275-16.368.167-.117 44.33-25.05a1.04 1.04 0 0 1 .26-.098L81.397.015a.502.502 0 0 1 .242 0l12.562 1.681c.093.02.185.04.278.079l45.201 24.033.167.118 14.084 12.476 4.027 3.911a.92.92 0 0 1 .241.391l2.486 8.35 1.633 17.21c0 .097 0 .175-.018.273l-8.48 43.335a.96.96 0 0 1-.112.294l-12.005 20.064a.683.683 0 0 1-.148.176l-35.2 34.222c-.056.059-.13.098-.186.137l-15.123 8.096a.751.751 0 0 1-.39.117zm-12.71-1.779h12.506l14.844-7.94 35.033-34.066 11.857-19.829 8.424-43.042-1.596-16.896-2.375-7.94-3.841-3.715-13.972-12.379L93.849 3.476 81.547 1.833 69.968 3.887 25.862 28.8 8.865 44.875l-1.54 8.898-1.893 16.074 7.793 43.375 7.107 11.577 4.51 8.076 38.038 33.381 15.067 6.943z" fill="#fff"/><path d="M105.78 166.882a.828.828 0 0 1-.426-.117.922.922 0 0 1-.316-1.213l3.99-7.255 4.212-43.276-2.839-18.01L99.527 77.67 37.07 32.34l-11.95-3.422a.903.903 0 0 1-.593-1.095c.13-.47.593-.743 1.039-.626l12.08 3.461c.092.02.185.078.26.118L100.621 76.3c.093.078.186.176.241.274l11.041 19.653a.895.895 0 0 1 .111.313l2.876 18.304a.492.492 0 0 1 0 .235l-4.249 43.589a1.141 1.141 0 0 1-.111.352l-4.083 7.411c-.092.294-.371.45-.668.45z" fill="#fff"/><path d="M77.78 174.978a.85.85 0 0 1-.78-.547l-2.727-7.079a.933.933 0 0 1-.056-.313l-.723-43.668 3.451-18.323c.019-.098.056-.176.093-.255l7.31-14.001a.73.73 0 0 1 .186-.235l15.104-14.158 43.847-33.577 9.111-4.85a.834.834 0 0 1 1.132.391c.204.43.037.978-.371 1.193l-8.999 4.791-43.68 33.46-14.919 14.001-7.162 13.748-3.415 17.991.724 43.316 2.653 6.922c.168.45-.037.978-.463 1.154-.112.02-.223.039-.316.039z" fill="#fff"/><path d="M90.658 174.978a.95.95 0 0 1-.39-.098.929.929 0 0 1-.371-1.192l3.433-7.001 2.06-43.472-2.821-16.955-14.826-.156a.582.582 0 0 1-.315-.079l-18.166-8.174L13.578 64.04a1.215 1.215 0 0 1-.167-.157l-7.608-9.7a.924.924 0 0 1-.093-.997l7.608-14.862a.828.828 0 0 1 .52-.43.892.892 0 0 1 .668.098l9.11 5.925L70.154 76.3l15.438 14.236c.074.059.111.137.167.215l7.83 13.494 17.146-8.311 42.01-34.927 6.698-10.599a.831.831 0 0 1 1.169-.254c.39.274.501.822.241 1.232l-6.772 10.717a.613.613 0 0 1-.186.195L111.7 97.382l-.167.117-17.331 8.389L97.059 123a.69.69 0 0 1 .019.195L95 166.96a.844.844 0 0 1-.093.372l-3.526 7.177a.8.8 0 0 1-.723.469zm-12.71-70.674 13.823.157-7.348-12.672-15.253-14.08-46.426-32.306-8.331-5.417L7.51 53.5l7.163 9.133 45.424 33.655 17.85 8.017z" fill="#fff"/><path d="M74.329 124.212a.829.829 0 0 1-.316-.059l-18.555-8.096a.375.375 0 0 1-.186-.117l-44.57-35.16a.664.664 0 0 1-.186-.216L3.873 70.356c-.26-.41-.167-.958.223-1.232a.81.81 0 0 1 1.169.235l6.569 10.09L56.2 114.454l18.314 7.978 21.58-.156 17.573-8.057 40.506-35.67 6.588-10.677c.259-.41.779-.528 1.169-.254a.916.916 0 0 1 .241 1.232l-6.662 10.795c-.055.078-.111.137-.167.196l-40.692 35.825a.76.76 0 0 1-.204.137l-17.85 8.174c-.112.039-.223.079-.335.079l-21.932.156c.018 0 .018 0 0 0z" fill="#fff"/><path d="M62.416 167.88c-.352 0-.668-.235-.798-.587l-2.338-6.864c-.018-.078-.037-.137-.055-.215l-4.287-44.919c0-.098 0-.196.019-.274l3.84-18.206c.02-.078.038-.157.075-.235l10.113-19.986c.055-.097.13-.195.222-.273l14.01-11.93 45.814-34.398a.719.719 0 0 1 .167-.097l9.778-4.127a.835.835 0 0 1 1.095.49c.167.449-.037.977-.464 1.153l-9.686 4.087-45.702 34.3-13.824 11.793-9.983 19.712-3.785 17.952 4.267 44.664 2.32 6.747c.167.469-.074.978-.5 1.134a.609.609 0 0 1-.298.079z" fill="#fff"/><path d="M75.052 167.88a.694.694 0 0 1-.334-.079l-14.993-6.864c-.074-.039-.13-.078-.204-.117l-40.21-34.457a.944.944 0 0 1-.296-.508l-8.647-45.623a.998.998 0 0 1 0-.333l2.876-16.779c.018-.078.037-.175.074-.254l9.11-18.636c.057-.098.112-.196.186-.254l14.233-13.161L79.97 5.803 69.504 3.848c-.464-.079-.76-.548-.686-1.037a.851.851 0 0 1 .983-.723l12.655 2.366 11.412-2.777c.482-.117.909.195 1.02.665a.9.9 0 0 1-.63 1.075l-9.315 2.269 44.923 24.249c.055.039.111.058.148.117l14.455 12.77c.074.078.148.156.204.254l9.445 18.089a.839.839 0 0 1 .092.352l1.392 17.541v.235l-6.754 40.793a1.08 1.08 0 0 1-.223.469l-7.329 8.037-30.877 30.605c-.055.059-.13.098-.204.137l-15.68 8.35a.807.807 0 0 1-.37.098l-19.113.098zm-14.547-8.507 14.714 6.727 18.742-.078 15.401-8.194 30.765-30.487 7.125-7.822 6.699-40.422-1.355-17.228-9.278-17.796-14.269-12.593-46.5-25.09-44.682 25.872-13.972 12.926-8.981 18.363-2.84 16.485 8.555 45.134 39.876 34.203z" fill="#fff"/><path d="M75.052 167.449c-.037 0-.074 0-.13-.019a.48.48 0 0 1-.296-.528l9.073-43.668a.427.427 0 0 1 .501-.332.444.444 0 0 1 .316.528l-7.98 38.426 14.752-38.817a.432.432 0 0 1 .557-.255c.223.098.316.352.241.587l-16.644 43.805a.43.43 0 0 1-.39.273z" fill="#fff"/><path d="M75.052 167.449a.432.432 0 0 1-.26-.097.472.472 0 0 1-.11-.587l20.837-36.197c.112-.216.371-.274.575-.157.205.137.26.411.149.606l-18.89 32.815 17.554-19.067a.4.4 0 0 1 .594 0 .454.454 0 0 1 0 .626l-20.152 21.902a.38.38 0 0 1-.297.156z" fill="#fff"/><path d="M75.052 167.449a.43.43 0 0 1-.39-.254.457.457 0 0 1 .168-.567l19.724-12.711c.204-.117.464-.059.575.156a.44.44 0 0 1-.148.607l-16.83 10.833 16.18-5.299c.223-.078.465.058.539.293a.459.459 0 0 1-.279.567l-19.409 6.356c-.037 0-.093.019-.13.019z" fill="#fff"/></svg>