<svg width="167" height="176" fill="none" xmlns="http://www.w3.org/2000/svg"><path d="M103.162 169.257c-.056 0-.093 0-.148-.019l-46.074-8.546a.846.846 0 0 1-.52-.333l-24.957-34.633L1.96 69.641a.971.971 0 0 1-.074-.684l9.816-36.198a.894.894 0 0 1 .352-.508l35.85-24.288c.148-.098.315-.157.464-.137l63.794 1.35c.074 0 .148.019.222.038l38.837 12.36c.278.078.482.313.575.606l11.523 42.729a.965.965 0 0 1-.055.645l-21.117 43.609-25.848 45.251-12.469 14.53c-.204.215-.427.313-.668.313zm-45.61-10.247 45.295 8.389 12.061-14.021 25.718-45.056 20.949-43.257-11.3-41.907-38.28-12.184-63.423-1.349-35.367 23.956-9.63 35.532 29.28 55.655 24.698 34.242z" fill="#fff"/><path d="M44.916 60.665a.754.754 0 0 1-.52-.195L11.963 33.718a.932.932 0 0 1-.149-1.252.824.824 0 0 1 1.188-.156l32.138 26.517 55.648-9.739L111.308 9.84c.13-.47.594-.743 1.039-.606.445.137.705.626.575 1.095l-10.651 39.796c-.092.332-.352.586-.668.645l-56.538 9.895h-.149z" fill="#fff"/><path d="M141.349 109.671a.858.858 0 0 1-.686-.371l-39.895-58.902a.894.894 0 0 1 .205-1.232.795.795 0 0 1 1.169.216l39.894 58.901c.278.411.186.958-.204 1.232a.756.756 0 0 1-.483.156zM115.539 154.864a.83.83 0 0 1-.427-.117l-44.59-27.437a.869.869 0 0 1-.352-.43L44.137 60.098c-.186-.45.037-.978.464-1.154.427-.195.928.04 1.095.49l25.922 66.488 44.347 27.28a.9.9 0 0 1 .297 1.212.818.818 0 0 1-.723.45z" fill="#fff"/><path d="M70.95 127.447h-.019l-38.837-1.349c-.464-.02-.835-.43-.816-.919.018-.489.39-.861.872-.861l38.837 1.35c.464.019.835.43.816.919-.037.469-.408.86-.853.86zM121.402 45.158h-.018l-62.83-3.364c-.166 0-.315-.137-.37-.313L47.94 8.882a.467.467 0 0 1 .26-.567.416.416 0 0 1 .538.274l10.15 32.306 62.402 3.343 29.429-22.175a.424.424 0 0 1 .594.097c.13.196.093.49-.093.626l-29.54 22.254c-.112.078-.186.118-.279.118z" fill="#fff"/><path d="M22.093 90.526a.36.36 0 0 1-.297-.136L2.386 69.524a.453.453 0 0 1 0-.626.4.4 0 0 1 .595 0l19.075 20.514L58.239 41.05c.149-.196.408-.235.594-.078.185.156.223.43.074.626L22.427 90.35a.473.473 0 0 1-.316.175h-.018z" fill="#fff"/><path d="M57.07 160.262a.42.42 0 0 1-.39-.274l-11.096-27.886-23.862-41.79c-.112-.216-.056-.49.148-.607a.408.408 0 0 1 .575.157l23.9 41.848 11.115 27.945a.464.464 0 0 1-.223.587c-.056.02-.111.02-.167.02zM125.559 119.117c-.056 0-.093 0-.149-.039l-32.639-13.259a.4.4 0 0 1-.241-.254.459.459 0 0 1 .018-.352l28.483-60.7c.111-.216.353-.314.557-.196a.443.443 0 0 1 .185.586l-28.278 60.271 31.915 12.965 36.722-53.23c.13-.196.408-.255.593-.098.186.137.223.43.093.626l-36.907 53.504a.448.448 0 0 1-.352.176z" fill="#fff"/><path d="M103.162 168.807a.606.606 0 0 1-.185-.039c-.205-.098-.297-.371-.205-.586l22.397-49.691c.093-.215.353-.313.557-.215.204.098.297.371.204.586l-22.397 49.691c-.055.176-.222.254-.371.254zM45.974 132.395a.405.405 0 0 1-.371-.235.46.46 0 0 1 .167-.606l46.927-26.537a.415.415 0 0 1 .575.176.46.46 0 0 1-.167.606l-46.927 26.537a.36.36 0 0 1-.204.059z" fill="#fff"/></svg>