<svg width="167" height="176" fill="none" xmlns="http://www.w3.org/2000/svg"><path d="M73.62 169.8a.965.965 0 0 1-.389-.097l-38.41-20.495a.803.803 0 0 1-.297-.273L5.726 106.89a.984.984 0 0 1-.148-.684l5.548-29.9c.055-.255.204-.49.427-.607.222-.137.482-.137.723-.039l42.455 17.991a.737.737 0 0 1 .39.333l31.804 50.805a.954.954 0 0 1 .037.919l-12.599 23.643a.848.848 0 0 1-.742.449zm-37.834-22.078 37.5 20.025 11.95-22.43L53.86 95.196 12.592 77.713l-5.289 28.473 28.483 41.536zM78.538 36.217c-.074 0-.167-.02-.241-.04L35.415 22.684a.858.858 0 0 1-.575-.665.92.92 0 0 1 .26-.86L49.387 7.665a.91.91 0 0 1 .538-.234l46.297-1.565c.074 0 .148 0 .222.02l40.544 10.345c.446.117.724.586.631 1.056l-3.414 15.507c-.093.391-.408.665-.78.685l-54.831 2.698c-.037.04-.056.04-.056.04zM37.326 21.433l41.305 12.984 54.052-2.66 3.08-14.001-39.616-10.11L50.278 9.21 37.326 21.433z" fill="#fff"/><path d="M73.62 169.8c-.407 0-.76-.312-.834-.743-.074-.489.241-.938.705-1.017l47.057-7.861 17.349-21.57-51.565 7.549a.86.86 0 0 1-.947-.763c-.056-.489.26-.939.724-.997l53.755-7.862c.353-.058.687.137.854.45a.924.924 0 0 1-.093.998l-18.982 23.603a.908.908 0 0 1-.52.313l-47.354 7.9h-.148zM11.96 77.361a.77.77 0 0 1-.352-.078c-.426-.195-.612-.743-.408-1.173l23.677-54.638c.185-.45.705-.646 1.113-.43.427.195.613.742.408 1.173L12.723 76.853a.817.817 0 0 1-.761.508zM54.416 95.352a.698.698 0 0 1-.334-.078c-.427-.195-.631-.723-.446-1.173L77.74 34.965c.186-.45.687-.665 1.114-.47.426.196.63.724.445 1.174L55.195 94.805a.85.85 0 0 1-.78.547z" fill="#fff"/><path d="M139.976 138.296a.69.69 0 0 1-.334-.078c-.427-.195-.631-.723-.446-1.173l21.914-54.462v-20.71L136.06 17.56c-.241-.43-.111-.977.297-1.212a.805.805 0 0 1 1.151.313l25.18 44.528a.95.95 0 0 1 .111.45v21.14a.81.81 0 0 1-.074.351l-21.97 54.638c-.148.313-.445.528-.779.528z" fill="#fff"/><path d="M161.945 83.658a.862.862 0 0 1-.723-.43l-28.594-50.14c-.242-.43-.112-.978.297-1.213a.804.804 0 0 1 1.15.313l28.594 50.14c.241.43.111.978-.297 1.213a.828.828 0 0 1-.427.117zM120.993 161.45c-.037 0-.092 0-.13-.019a.457.457 0 0 1-.278-.509l3.878-21.394c.037-.234.26-.41.501-.352.223.04.371.274.334.528l-3.34 18.383 9.649-19.712c.111-.215.371-.313.575-.196a.468.468 0 0 1 .186.606l-10.985 22.431a.454.454 0 0 1-.39.234z" fill="#fff"/><path d="M120.993 161.45a.406.406 0 0 1-.371-.234l-9.964-19.36a.461.461 0 0 1 .167-.607.414.414 0 0 1 .575.176l8.87 17.229-2.301-18.03a.453.453 0 0 1 .371-.509c.223-.039.445.137.482.391l2.617 20.436a.468.468 0 0 1-.297.489c-.075.019-.112.019-.149.019z" fill="#fff"/><path d="M120.993 161.45c-.074 0-.167-.019-.222-.078l-25.069-17.15a.441.441 0 0 1-.13-.606.408.408 0 0 1 .575-.137l21.84 14.94-14.38-15.429a.454.454 0 0 1 0-.626.399.399 0 0 1 .593 0l17.09 18.324a.44.44 0 0 1 .019.586.382.382 0 0 1-.316.176z" fill="#fff"/><path d="M120.993 161.45c-.037 0-.074 0-.111-.019l-37.705-10.228a.44.44 0 0 1-.297-.547c.056-.235.297-.392.52-.313l33.437 9.073-28.223-14.119c-.204-.097-.297-.371-.204-.586a.42.42 0 0 1 .556-.215l32.194 16.113a.443.443 0 0 1 .223.548.421.421 0 0 1-.39.293z" fill="#fff"/><path d="M77.017 163.015c-.223 0-.409-.196-.427-.431 0-.254.167-.449.408-.469l38.095-1.349-34.792-4.029c-.223-.019-.39-.254-.371-.489.018-.234.222-.43.464-.391l40.636 4.713c.223.02.39.235.371.47 0 .234-.185.41-.408.43l-43.976 1.545zM49.128 92.654a.407.407 0 0 1-.205-.059.461.461 0 0 1-.166-.606L74.252 42.65 43.45 89.896a.422.422 0 0 1-.594.118.476.476 0 0 1-.111-.626l35.422-54.345a.423.423 0 0 1 .575-.137c.186.117.26.391.149.587L49.499 92.38c-.075.196-.223.274-.371.274z" fill="#fff"/><path d="M37.864 87.882a.43.43 0 0 1-.26-.098.454.454 0 0 1-.055-.625l34.625-44.372-39.71 42.553a.4.4 0 0 1-.593 0 .453.453 0 0 1 0-.626l46.37-49.71a.395.395 0 0 1 .575-.02c.167.157.186.43.038.607L38.18 87.706a.383.383 0 0 1-.316.176z" fill="#fff"/><path d="M25.803 82.778a.416.416 0 0 1-.315-.156.454.454 0 0 1 .056-.626L70.54 41.868 19.717 80.001a.424.424 0 0 1-.594-.097.48.48 0 0 1 .093-.626l59.062-44.313a.4.4 0 0 1 .576.098.448.448 0 0 1-.056.606L26.063 82.68a.43.43 0 0 1-.26.098z" fill="#fff"/><path d="M12.536 77.146a.446.446 0 0 1-.371-.215c-.111-.215-.056-.489.148-.606l54.925-34.437-52.03 27.925c-.204.117-.464.02-.575-.196a.468.468 0 0 1 .185-.606l63.516-34.105a.427.427 0 0 1 .557.176.48.48 0 0 1-.149.606L12.74 77.069a.27.27 0 0 1-.204.078z" fill="#fff"/><path d="M18.51 61.834a.42.42 0 0 1-.389-.274.463.463 0 0 1 .223-.586L69.52 38.759 21.832 54.442a.401.401 0 0 1-.52-.293c-.073-.235.056-.489.28-.548l56.835-18.695c.204-.078.445.04.52.274a.457.457 0 0 1-.242.567L18.678 61.815c-.056 0-.111.02-.167.02z" fill="#fff"/><path d="M24.523 47.95a.407.407 0 0 1-.408-.352.445.445 0 0 1 .315-.528l45.832-10.325L27.27 41.75a.416.416 0 0 1-.464-.391c-.018-.255.149-.47.371-.49l51.306-5.964c.242-.039.427.137.464.372a.452.452 0 0 1-.334.508L24.597 47.97c-.018-.039-.037-.02-.074-.02z" fill="#fff"/><path d="M78.538 35.767c-.018 0-.018 0 0 0L30.052 35.2a.407.407 0 0 1-.408-.45c0-.254.186-.41.427-.43l42.4.489-39.58-6.297a.442.442 0 0 1-.352-.509c.037-.235.241-.41.482-.371l45.591 7.255c.223.039.372.234.353.469-.037.235-.223.41-.427.41z" fill="#fff"/></svg>