<svg width="167" height="176" fill="none" xmlns="http://www.w3.org/2000/svg"><path d="M77.954 164.638a.748.748 0 0 1-.445-.137l-64.648-41.829a.894.894 0 0 1-.408-.704L5.57 19.771a.894.894 0 0 1 .78-.959l78.081-7.079 74.742 9.27c.445.058.779.489.742.958l-8.795 104.388a.883.883 0 0 1-.464.723l-72.33 37.469a.96.96 0 0 1-.37.097zm-63.83-43.237 63.867 41.321 71.476-36.999 8.684-103.019-73.758-9.171-77.08 7 6.81 100.868z" fill="#fff"/><path d="M78.752 116.747h-.018a.824.824 0 0 1-.631-.333L5.773 20.299a.93.93 0 0 1 .13-1.252c.371-.313.89-.235 1.188.137l71.698 95.294 79.659-93.143a.802.802 0 0 1 1.188-.059.91.91 0 0 1 .056 1.252l-80.328 93.925a.81.81 0 0 1-.612.294z" fill="#fff"/><path d="M77.954 164.638c-.018 0-.018 0 0 0-.482 0-.853-.41-.853-.899l.798-47.892c0-.489.315-.919.853-.88.464 0 .835.411.835.9l-.798 47.891c0 .489-.39.88-.835.88zM131.765 136.322a.43.43 0 0 1-.389-.254l-23.733-54.287a.45.45 0 0 1 .167-.567c.186-.117.427-.058.557.137l32.862 49.554a.464.464 0 0 1-.112.626.409.409 0 0 1-.593-.118l-30.153-45.466 21.747 49.749c.093.215 0 .489-.204.587-.019.039-.074.039-.149.039z" fill="#fff"/><path d="M148.094 127.874a.423.423 0 0 1-.315-.137l-40.043-45.838a.47.47 0 0 1 0-.606c.148-.177.39-.196.575-.04l43.012 35.513a.457.457 0 0 1 .074.626c-.148.196-.408.235-.594.078l-38.911-32.13 36.518 41.81a.454.454 0 0 1-.019.626.591.591 0 0 1-.297.098z" fill="#fff"/><path d="M151.954 106.852a.408.408 0 0 1-.204-.059l-43.903-24.816a.458.458 0 0 1-.185-.567.432.432 0 0 1 .519-.254L152.9 96.409c.223.078.334.332.278.567a.442.442 0 0 1-.538.293l-40.247-13.728 39.765 22.47a.461.461 0 0 1 .167.606.407.407 0 0 1-.371.235z" fill="#fff"/><path d="M153.475 88.645h-.055l-45.443-6.61c-.222-.038-.371-.234-.371-.469a.452.452 0 0 1 .408-.43l46.166-2.073c.223.02.427.176.446.43 0 .255-.167.45-.408.47l-41.491 1.858 40.804 5.925c.223.039.39.254.353.508-.019.235-.186.391-.409.391z" fill="#fff"/><path d="M107.606 82.036a.419.419 0 0 1-.408-.313.472.472 0 0 1 .241-.548l48.207-20.924c.223-.098.464.02.557.234a.462.462 0 0 1-.223.587L112.134 80.1l42.752-9.68a.427.427 0 0 1 .501.332.445.445 0 0 1-.316.528l-47.335 10.716c-.074.04-.111.04-.13.04z" fill="#fff"/><path d="M108.033 82.036a.472.472 0 0 1-.353-.196.454.454 0 0 1 .093-.606l49.469-41.184c.186-.157.446-.117.594.078a.458.458 0 0 1-.074.626L113.173 77.87l43.178-26.85a.394.394 0 0 1 .576.157c.111.215.055.489-.149.606l-48.541 30.194a.36.36 0 0 1-.204.059z" fill="#fff"/><path d="M108.033 82.036a.361.361 0 0 1-.297-.137.453.453 0 0 1 .018-.626l50.212-49.945a.4.4 0 0 1 .594.02.453.453 0 0 1-.019.625L108.33 81.918a.41.41 0 0 1-.297.118zM113.136 145.963c-.037 0-.093 0-.13-.02a.46.46 0 0 1-.279-.567l9.315-30.956c.056-.215.279-.352.464-.313a.434.434 0 0 1 .353.43v26.146c0 .254-.186.45-.427.45s-.427-.196-.427-.45v-23.271l-8.48 28.218a.385.385 0 0 1-.389.333z" fill="#fff"/><path d="M90.702 157.579a.428.428 0 0 1-.26-.098.457.457 0 0 1-.074-.626l31.749-42.572c.129-.176.371-.235.556-.098.186.117.241.371.149.587l-17.869 35.395a.415.415 0 0 1-.576.176.461.461 0 0 1-.167-.606l15.624-30.976-28.798 38.642a.391.391 0 0 1-.334.176z" fill="#fff"/><path d="M78.028 159.808a.36.36 0 0 1-.296-.137c-.167-.176-.149-.45.018-.626l39.728-40.069-39.264 30.389a.424.424 0 0 1-.594-.097.48.48 0 0 1 .093-.626l44.496-34.457c.186-.137.427-.117.575.078.149.176.13.45-.037.606l-44.422 44.802a.414.414 0 0 1-.297.137z" fill="#fff"/><path d="M78.362 139.236a.407.407 0 0 1-.37-.235.467.467 0 0 1 .185-.606l39.913-21.942-39.598 12.966c-.222.078-.464-.059-.538-.294a.46.46 0 0 1 .279-.567l44.088-14.451a.432.432 0 0 1 .519.254.48.48 0 0 1-.185.567l-44.088 24.229a.3.3 0 0 1-.204.079z" fill="#fff"/><path d="M78.752 120.228c-.204 0-.39-.176-.427-.391-.018-.255.149-.47.371-.489l39.208-4.694-35.46-2.718c-.185-.02-.333-.137-.37-.313a.46.46 0 0 1 .167-.489l28.983-22.058c.186-.157.446-.098.594.097.13.196.093.47-.093.626l-28.056 21.335 38.819 2.992c.222.02.389.196.389.43 0 .235-.148.431-.371.45l-43.698 5.222h-.056z" fill="#fff"/><path d="M82.482 111.936a.42.42 0 0 1-.39-.293.443.443 0 0 1 .223-.548l31.767-15.722c.204-.118.464 0 .557.215.092.215 0 .489-.204.586L86.471 110l30.654-7.861c.223-.078.464.078.501.332.056.235-.074.489-.315.528l-34.736 8.898c-.038.039-.075.039-.093.039z" fill="#fff"/><path d="M82.482 111.936a.435.435 0 0 1-.427-.411c-.019-.254.148-.469.39-.488l37.111-3.462c.222-.039.445.157.464.411.018.254-.149.469-.39.489l-37.111 3.461h-.037z" fill="#fff"/></svg>