<svg width="167" height="176" fill="none" xmlns="http://www.w3.org/2000/svg"><path d="M100.48 157.286a.852.852 0 0 1-.612-.274l-12.989-14.686-76.022-18.499c-.39-.098-.668-.489-.65-.92l2.877-60.759L5.587 23.82a.842.842 0 0 1 .167-.723.77.77 0 0 1 .631-.333L43.83 21.59l46.556-2.034.427.02 14.51.704h41.027l14.77.88c.315.02.594.215.724.508a.964.964 0 0 1-.093.92l-26.497 36.53v53.875a.801.801 0 0 1-.075.352l-9.5 23.173a.96.96 0 0 1-.26.352l-24.438 20.221a.681.681 0 0 1-.501.195zm.093-2.092 23.659-19.575 9.333-22.783V58.824c0-.196.056-.391.167-.548l25.699-35.454-13.137-.782h-41.026l-14.158-.685-54.034 62.09 63.497 71.749zm-88.658-32.932 72.905 17.737-49.488-55.948c-.297-.333-.297-.86 0-1.213l53.495-61.443-44.941 1.955-36.443 1.134 7.31 37.41c.02.078.02.157.02.215l-2.858 60.153z" fill="#fff"/><path d="M100.48 157.286c-.426 0-.779-.332-.835-.782L90.683 82.76l-.76-62.304c0-.489.37-.9.834-.9.371-.02.854.391.854.88l.742 62.207 8.944 73.646c.056.489-.26.938-.724.997h-.093zM43.904 75.192a.803.803 0 0 1-.296-.059L13.622 62.911c-.427-.176-.65-.684-.483-1.154.167-.45.668-.684 1.095-.508L44.22 73.47c.427.176.65.684.482 1.154-.148.352-.463.567-.797.567zM47.226 132.646c-.39 0-.724-.274-.816-.684L35.127 83.64c-.112-.47.167-.958.612-1.076.445-.117.91.176 1.02.646l11.282 48.321c.112.47-.167.959-.612 1.076-.074.039-.13.039-.204.039zM63.276 52.918a.812.812 0 0 1-.705-.41L44.24 22.88a.916.916 0 0 1 .24-1.232c.39-.274.91-.157 1.17.254L63.982 51.53c.26.41.148.958-.242 1.232a.737.737 0 0 1-.464.156z" fill="#fff"/><path d="M91.518 83.542a.84.84 0 0 1-.816-.665.903.903 0 0 1 .593-1.095l24.457-6.864 18.091-16.779a.801.801 0 0 1 1.188.079c.315.371.278.938-.074 1.251l-18.24 16.916a.843.843 0 0 1-.335.195l-24.641 6.923c-.075.04-.149.04-.223.04z" fill="#fff"/><path d="M124.9 137.066a.854.854 0 0 1-.835-.763l-8.74-60.427a.984.984 0 0 1 .056-.469l7.273-18.304-9.537 2.034a.874.874 0 0 1-1.002-.704c-.093-.49.204-.959.668-1.056l11.096-2.366c.297-.079.612.058.816.312a.925.925 0 0 1 .13.9l-7.812 19.614 8.721 60.192c.075.489-.241.939-.705 1.017-.037.02-.074.02-.129.02z" fill="#fff"/><path d="M105.064 79.748a.903.903 0 0 1-.316-.058c-.427-.176-.649-.704-.464-1.154l7.534-19.653-20.894-5.965a.903.903 0 0 1-.594-1.095c.13-.47.576-.763 1.04-.626l21.802 6.219c.242.059.427.235.539.47a.895.895 0 0 1 .018.723L105.843 79.2a.85.85 0 0 1-.779.547z" fill="#fff"/><path d="M112.968 59.156a.846.846 0 0 1-.816-.704l-7.682-37.097c-.093-.489.185-.958.649-1.056.464-.117.91.196 1.002.685l7.682 37.097c.093.489-.185.958-.649 1.056-.074 0-.13.02-.186.02zM124.046 56.79a.703.703 0 0 1-.464-.156.915.915 0 0 1-.241-1.232l21.766-34.75c.259-.411.779-.529 1.169-.255a.916.916 0 0 1 .241 1.232l-21.766 34.75a.791.791 0 0 1-.705.411zM84.04 141.172a.358.358 0 0 1-.241-.078l-42.121-31.68a.457.457 0 0 1-.093-.626.403.403 0 0 1 .594-.097l36.796 27.671-40.229-39.405c-.167-.176-.185-.45-.018-.626a.416.416 0 0 1 .593-.02l45.035 44.099c.167.156.185.43.037.606a.493.493 0 0 1-.353.156z" fill="#fff"/><path d="M83.54 140.781c-.056 0-.112 0-.15-.039l-37.983-15.781a.457.457 0 0 1-.24-.567c.092-.235.333-.352.537-.255L77.416 137.3 43.7 117.882a.462.462 0 0 1-.167-.607.415.415 0 0 1 .576-.176l39.634 22.822a.461.461 0 0 1 .186.586.439.439 0 0 1-.39.274zM115.807 144.145c-.185 0-.352-.137-.408-.333l-15.327-63.575c-.055-.234.074-.47.279-.528.204-.078.445.04.519.274l21.024 58.843c.074.234-.019.489-.242.567-.222.078-.464-.02-.538-.254l-18.351-51.373 13.453 55.812c.055.234-.075.489-.316.547-.018.02-.056.02-.093.02z" fill="#fff"/><path d="M108.292 150.363c-.204 0-.389-.176-.426-.391l-7.256-64.67-2.505 48.263a.435.435 0 0 1-.427.411h-.018a.42.42 0 0 1-.39-.469l2.784-53.426c.018-.235.185-.41.408-.41h.018c.223 0 .39.175.427.39l7.812 69.794a.423.423 0 0 1-.371.489c-.019.019-.037.019-.056.019z" fill="#fff"/><path d="M94.617 108.573h-.093a.444.444 0 0 1-.315-.528l5.27-25.11-6.18 11.44a.394.394 0 0 1-.575.157.439.439 0 0 1-.148-.606l7.57-13.982a.404.404 0 0 1 .52-.196.466.466 0 0 1 .26.509l-5.864 27.984c-.074.195-.26.332-.445.332z" fill="#fff"/><path d="M123.007 123.455a.421.421 0 0 1-.39-.293c-.427-.978-14.881-28.395-22.508-42.808a.455.455 0 0 1 .13-.586.394.394 0 0 1 .557.078l19.854 24.405c.149.196.13.47-.037.626a.416.416 0 0 1-.594-.039l-17.126-21.061c20.485 38.818 20.522 39.052 20.541 39.15a.453.453 0 0 1-.353.508c-.037.02-.056.02-.074.02z" fill="#fff"/><path d="M118.387 91.54a.362.362 0 0 1-.205-.058L100.276 80.53c-.185-.118-.259-.333-.185-.548.074-.196.26-.332.464-.274l16.792 3.305c.223.04.39.274.334.528-.037.235-.241.41-.501.352l-14.399-2.816 15.791 9.66a.44.44 0 0 1 .149.607.365.365 0 0 1-.334.195zM125.716 67.311c-.074 0-.167-.02-.223-.078-.074-.059-.148-.098-.13-.372h-.074l-.074-13.532c0-.254.186-.45.427-.45s.427.196.427.45l.055 10.364c.928-3.305 2.895-9.836 6.829-22.801a.434.434 0 0 1 .538-.294.46.46 0 0 1 .278.567c-2.95 9.72-7.366 24.386-7.626 25.657v.04a.427.427 0 0 1-.149.332.367.367 0 0 1-.278.117z" fill="#fff"/><path d="M125.716 67.311a.429.429 0 0 1-.26-.098l-4.509-3.813a.477.477 0 0 1-.074-.626.42.42 0 0 1 .594-.078l4.119 3.48 23.733-45.055a.414.414 0 0 1 .575-.176.462.462 0 0 1 .167.606l-23.974 45.525a.389.389 0 0 1-.297.216c-.018.019-.037.019-.074.019z" fill="#fff"/><path d="M119.129 68.719a.407.407 0 0 1-.408-.352.44.44 0 0 1 .334-.528l6.438-1.369 31.229-44.939a.424.424 0 0 1 .594-.097c.186.137.223.43.093.625l-31.322 45.076a.426.426 0 0 1-.26.176l-6.587 1.408h-.111z" fill="#fff"/></svg>