<svg width="167" height="176" fill="none" xmlns="http://www.w3.org/2000/svg"><path d="M63.854 129.491a.808.808 0 0 1-.605-.274.923.923 0 0 1-.166-.939l26.592-68.464a.892.892 0 0 1 .33-.41l36.557-24.953a.77.77 0 0 1 .862-.02c.276.157.441.47.422.802l-1.578 71.495a.875.875 0 0 1-.569.821l-61.551 21.922c-.11.02-.202.02-.294.02zm27.252-68.758-25.784 66.411 59.276-21.1 1.523-69.208-35.015 23.897z" fill="#fff"/><path d="M62.588 175.427h-.018c-.46-.02-.826-.431-.808-.919l1.248-45.526-31.693-32.11a.94.94 0 0 1-.257-.567l-5.542-67.271c-.019-.313.11-.626.348-.802a.787.787 0 0 1 .826-.078l64.084 31.19c.422.196.606.744.404 1.174-.184.45-.698.645-1.101.43L27.316 30.383l5.377 65.433 31.73 32.149a.887.887 0 0 1 .257.665l-1.266 45.917c0 .489-.367.88-.826.88zM123.46 167.663h-.036c-.459-.02-.826-.43-.808-.919l1.945-60.094c.019-.372.239-.685.551-.802l34.978-13.435c.441-.176.918.079 1.065.528.165.47-.074.978-.496 1.135l-34.446 13.219-1.927 59.488c0 .508-.367.88-.826.88zM136.747 19.276h-.037l-49.641-1.917a.553.553 0 0 1-.294-.078L56.55 3.67c-.422-.196-.624-.705-.44-1.174.183-.45.679-.665 1.1-.47L87.29 15.56l49.475 1.897c.459.02.826.43.808.919 0 .508-.367.9-.826.9z" fill="#fff"/><path d="M142.766 73.562a.815.815 0 0 1-.752-.528l-15.636-37.175-39.346-18.46L26.51 29.815a.866.866 0 0 1-.936-.548l-4.9-13.141c-.165-.45.036-.978.459-1.154a.823.823 0 0 1 1.082.49l4.662 12.476 60.083-12.34c.165-.04.33-.02.495.059l39.879 18.714a.823.823 0 0 1 .422.45l15.764 37.488c.183.45 0 .978-.422 1.174a.64.64 0 0 1-.331.078z" fill="#fff"/><path d="M62.588 175.427a.794.794 0 0 1-.66-.352L27.756 127.77l-14.04-1.31a.851.851 0 0 1-.752-.783l-5.542-53.23v-.059c0-.078 0-.156.037-.254L20.636 15.6a.894.894 0 0 1 .532-.626L56.624 2.047c.11-.04.22-.059.33-.04l39.878 2.915 40.172 12.633a.87.87 0 0 1 .587.743l5.983 54.012 17.434 20.358c.147.175.22.39.22.625l-1.064 41.028c0 .254-.11.489-.294.645l-35.877 32.482a.95.95 0 0 1-.441.215l-60.872 7.764h-.092zm-33.51-48.752 33.895 46.913 60.157-7.665 35.4-32.052 1.028-40.284-17.397-20.3a1.176 1.176 0 0 1-.221-.488l-5.945-53.719L96.538 6.662 57.01 3.768 22.141 16.479 9.185 72.056l23.27 23.525c.201.196.293.47.256.763l-3.633 30.331zm-14.535-1.917 12.92 1.213 3.542-29.392L9.33 74.676l5.212 50.082z" fill="#fff"/><path d="M63.212 152.332c-.147 0-.275-.079-.367-.216L31.519 96.461a.484.484 0 0 1 .128-.606c.184-.137.422-.098.569.098l31.638 44.528a.46.46 0 0 1-.073.626c-.184.156-.44.117-.587-.079l-26.959-37.957 27.344 48.576c.11.215.055.489-.147.606a.338.338 0 0 1-.22.079z" fill="#fff"/><path d="M54.275 163.478a.416.416 0 0 1-.386-.293L31.5 96.383c-.073-.215.019-.47.22-.567.202-.098.44 0 .533.215l31.05 65.922a.441.441 0 0 1-.183.587c-.202.117-.459.019-.569-.196l-27.968-59.39 20.095 59.937c.074.235-.036.489-.257.568-.036.019-.091.019-.146.019z" fill="#fff"/><path d="M43.08 147.971a.418.418 0 0 1-.404-.352l-10.13-46.425 1.615 33.362a.433.433 0 0 1-.404.469c-.238-.02-.422-.176-.44-.43l-1.854-38.368a.441.441 0 0 1 .368-.47c.183-.02.422.118.458.333l11.195 51.294c.055.235-.092.489-.312.528-.018.059-.055.059-.092.059zM63.854 129.06a.446.446 0 0 1-.33-.156.452.452 0 0 1 .037-.606l62.395-59.703c.165-.157.441-.157.587.039.147.176.147.47-.036.626L69.91 123.428l55.808-42.865c.183-.157.44-.098.587.097a.483.483 0 0 1-.092.626l-62.139 47.716c-.055.019-.128.058-.22.058z" fill="#fff"/><path d="M64.808 128.552a.422.422 0 0 1-.367-.254.48.48 0 0 1 .166-.587l60.945-36.588a.408.408 0 0 1 .569.176.464.464 0 0 1-.165.606l-52.65 31.621 52.118-25.168c.22-.098.459 0 .551.215.091.215 0 .49-.202.587l-60.781 29.353c-.073.019-.129.039-.184.039zM105.861 88.874a.506.506 0 0 1-.165-.04c-.22-.097-.312-.351-.22-.586l21.141-53.23a.427.427 0 0 1 .514-.255.46.46 0 0 1 .275.529l-10.552 43.1c-.055.235-.276.391-.514.313-.22-.059-.349-.313-.294-.548l9.103-37.175-18.903 47.598c-.073.176-.22.294-.385.294z" fill="#fff"/><path d="M77.581 115.919a.39.39 0 0 1-.238-.078.506.506 0 0 1-.129-.626l49.403-80.275a.415.415 0 0 1 .569-.137c.202.117.257.39.147.586L94.777 99.551a.408.408 0 0 1-.57.176.464.464 0 0 1-.164-.606l27.876-54.932-44.007 71.515a.345.345 0 0 1-.33.215zM63.854 129.06a.465.465 0 0 1-.22-.058.444.444 0 0 1-.129-.606l44.999-76.952-29.895 40.363c-.147.196-.404.235-.587.078a.46.46 0 0 1-.074-.626l34.556-46.64a.412.412 0 0 1 .569-.097.453.453 0 0 1 .11.606l-48.962 83.737a.47.47 0 0 1-.367.195z" fill="#fff"/><path d="M105.861 69.983c-.037 0-.073 0-.128-.02a.439.439 0 0 1-.276-.547l6.956-24.68c.055-.195.238-.351.44-.312.202.02.349.196.367.41l.936 11.832c.018.254-.147.47-.385.489-.257.039-.441-.157-.459-.411l-.734-9.524-6.332 22.43a.394.394 0 0 1-.385.333z" fill="#fff"/><path d="M118.983 48.648c-.074 0-.129-.02-.184-.04l-6.166-3.343a.44.44 0 0 1-.22-.43.459.459 0 0 1 .293-.392l10.332-3.422a.397.397 0 0 1 .514.294c.073.234-.055.489-.275.547l-9.341 3.11 5.248 2.855a.464.464 0 0 1 .184.606.472.472 0 0 1-.385.215z" fill="#fff"/><path d="M85.307 73.796c-.11 0-.22-.039-.293-.137a.457.457 0 0 1 0-.625l27.509-28.493a.392.392 0 0 1 .587 0 .457.457 0 0 1 0 .626L85.6 73.66a.355.355 0 0 1-.293.137zM159.338 134.732a.4.4 0 0 1-.367-.255L143.06 99.962a.441.441 0 0 1 .183-.587.406.406 0 0 1 .551.196l14.369 31.152-7.12-33.949a.445.445 0 0 1 .312-.528c.22-.058.44.098.495.333l7.892 37.605c.055.215-.074.45-.276.508-.036.04-.091.04-.128.04z" fill="#fff"/><path d="M159.338 134.732a.425.425 0 0 1-.257-.098l-32.336-28.199a.459.459 0 0 1-.055-.626.394.394 0 0 1 .587-.059l29.198 25.481-21.27-28.14a.479.479 0 0 1 .055-.626.41.41 0 0 1 .588.059l23.802 31.484c.128.176.128.43-.037.587a.324.324 0 0 1-.275.137z" fill="#fff"/><path d="M159.338 134.732c-.037 0-.074 0-.11-.02l-34.501-9.406a.44.44 0 0 1-.294-.548c.055-.234.275-.391.514-.313l30.941 8.429-30.941-16.994a.464.464 0 0 1-.184-.606c.11-.215.367-.313.569-.196l34.208 18.793a.458.458 0 0 1 .202.548c-.074.195-.239.313-.404.313z" fill="#fff"/><path d="M124.231 143.61a.42.42 0 0 1-.404-.333c-.055-.234.092-.489.312-.528l31.932-8.076-31.528-.704a.416.416 0 0 1-.404-.45c0-.254.239-.469.422-.43l34.795.782c.202 0 .386.176.404.391.018.215-.11.43-.312.489l-35.107 8.878c-.055-.019-.073-.019-.11-.019z" fill="#fff"/><path d="M123.901 153.622a.42.42 0 0 1-.367-.254c-.11-.215-.019-.489.183-.587l35.437-18.89a.39.39 0 0 1 .551.195.441.441 0 0 1-.184.587l-35.437 18.891a.296.296 0 0 1-.183.058zM138.802 35.565c-.44 0-4.202-1.369-51.806-18.675a.474.474 0 0 1-.276-.548c.055-.234.257-.371.478-.313l50.613 10.795c.221.04.367.274.331.528-.037.235-.257.41-.496.352l-44.392-9.465c13.525 4.909 45.126 16.407 45.475 16.524l-.129.411.239.372c0 .02 0 .02-.037.02zM139.683 45.304a.354.354 0 0 1-.202-.059l-11.561-6.981a.464.464 0 0 1-.165-.606.408.408 0 0 1 .569-.176l11.561 6.981a.464.464 0 0 1 .165.606.4.4 0 0 1-.367.235zM140.949 56.666a.433.433 0 0 1-.293-.118l-9.029-9.347a.457.457 0 0 1 0-.626.392.392 0 0 1 .587 0l9.029 9.348a.457.457 0 0 1 0 .625.401.401 0 0 1-.294.118z" fill="#fff"/></svg>