<svg width="167" height="176" fill="none" xmlns="http://www.w3.org/2000/svg"><path d="M59.5 152.872c-.056 0-.13 0-.186-.019a.899.899 0 0 1-.612-.587L44.544 108.54l-26.59-39.913a.892.892 0 0 1-.074-.86.828.828 0 0 1 .65-.528l139.537-20.456c.371-.058.705.137.872.49a.926.926 0 0 1-.148 1.016L60.112 152.618a.83.83 0 0 1-.612.254zM20.125 68.803l25.867 38.837a.55.55 0 0 1 .11.235l13.75 42.494 95.933-101.434-135.66 19.868z" fill="#fff"/><path d="M59.5 152.872a.783.783 0 0 1-.501-.176.939.939 0 0 1-.334-.84l7.46-55.949L18.25 68.881a.887.887 0 0 1-.445-.821c0-.332.204-.645.482-.782L52.096 50.89 78.668 2.392c.018-.039.037-.058.056-.097a.964.964 0 0 1 .13-.157.665.665 0 0 1 .37-.176h.038a.82.82 0 0 1 .482.078c.111.059.186.157.26.255l27.332 41.145 50.805 3.265c.297.02.557.196.687.47.13.273.13.606-.019.86l-26.553 47.95 14.399 43.59a.925.925 0 0 1-.167.899c-.018.039-.055.059-.092.098a1.015 1.015 0 0 1-.316.176.5.5 0 0 1-.167.02h-.111l-51.9-3.97-34.142 15.918c-.019.137-.149.156-.26.156zm8.22-56.046-7.162 53.7 32.954-15.371a.897.897 0 0 1 .409-.078l48.151 3.676L67.72 96.826zm.241-1.877 76.004 42.885L79.855 5.775 67.961 94.95zM85.72 13.93l55.425 114.146-10.52-31.836a.941.941 0 0 1 .074-.744l26.052-47.05-49.841-3.207a.873.873 0 0 1-.649-.372L85.719 13.93zM20.552 68.177 66.384 94.05 77.963 7.281l-24.53 44.782a.988.988 0 0 1-.372.372l-32.51 15.742z" fill="#fff"/><path d="M88.41 174.735a.834.834 0 0 1-.706-.391l-17.553-27.162c-.26-.411-.167-.959.223-1.232a.811.811 0 0 1 1.169.234L87.87 171.47 108.71 26.113l-10.613 5.202a.824.824 0 0 1-1.114-.43c-.204-.45-.018-.978.408-1.174l12.043-5.886a.8.8 0 0 1 .854.098.961.961 0 0 1 .334.84L89.226 174.013a.932.932 0 0 1-.65.743c-.036-.02-.11-.02-.166-.02z" fill="#fff"/><path d="M10.124 130.403a.791.791 0 0 1-.594-.254.893.893 0 0 1-.13-1.076l22.118-41.008a.822.822 0 0 1 1.15-.332c.409.234.557.782.316 1.212l-20.578 38.153 32.51-19.731C61.8 97.022 65.752 94.89 66.921 94.597v-.04c1.41-.469 20.523-12.046 33.92-20.24l-29.41-13.18-48.19-22.098 7.534 23.31c.148.47-.093.979-.52 1.135-.426.156-.927-.098-1.076-.548L21.034 37.73a.917.917 0 0 1 .223-.938.82.82 0 0 1 .91-.157l49.932 22.9 30.951 13.865c.297.136.501.43.519.762.019.333-.148.665-.426.822C74.159 92.739 68.555 95.868 67.182 96.24v.058c-1.188.352-13.768 7.92-21.432 12.613l-35.2 21.355a.776.776 0 0 1-.426.137z" fill="#fff"/><path d="M53.32 133.767h-.055l-43.197-3.364c-.464-.039-.816-.469-.78-.958a.868.868 0 0 1 .91-.822l43.197 3.364c.464.039.817.469.78.958-.038.47-.409.822-.854.822zM59.222 40.584h-.056l-37.427-2.268c-.463-.02-.816-.45-.797-.939.018-.489.408-.88.89-.84l37.427 2.268c.464.02.816.45.798.938-.019.49-.39.841-.835.841zM115.575 45.806a.865.865 0 0 1-.817-.626l-5.77-20.299c-.13-.47.111-.977.556-1.114.446-.157.91.117 1.058.586l5.771 20.299c.13.47-.112.978-.557 1.115-.093.039-.167.039-.241.039zM137.693 115.815a.858.858 0 0 1-.761-.509.914.914 0 0 1 .409-1.193l10.02-5.006-45.146-34.183a.912.912 0 0 1-.186-1.232c.279-.41.798-.489 1.169-.196l46.315 35.063c.241.176.371.489.353.802a.865.865 0 0 1-.483.724l-11.3 5.651a.983.983 0 0 1-.39.079z" fill="#fff"/><path d="M148.993 110.163a.836.836 0 0 1-.705-.391l-13.36-20.905c-.259-.41-.167-.958.223-1.232a.814.814 0 0 1 1.169.235l13.36 20.905c.26.41.167.958-.223 1.232a.79.79 0 0 1-.464.156zM88.41 174.735a.83.83 0 0 1-.427-.117.921.921 0 0 1-.316-1.212l20.059-36.765c.241-.43.742-.567 1.15-.332a.921.921 0 0 1 .316 1.212l-20.059 36.765a.8.8 0 0 1-.723.449zM41.445 57.5a.442.442 0 0 1-.297-.117l-19.65-19.634c-.167-.176-.185-.45-.018-.626s.427-.196.593-.02l19.65 19.634c.168.176.186.45.02.626a.361.361 0 0 1-.298.137zM60.52 62.428a.414.414 0 0 1-.334-.176l-7.83-10.365a.457.457 0 0 1 .074-.625c.186-.157.446-.118.594.078l7.83 10.364a.457.457 0 0 1-.074.626.43.43 0 0 1-.26.098zM78.111 81.319c-.185 0-.334-.118-.408-.313L71.32 60.472a.467.467 0 0 1 .26-.567.416.416 0 0 1 .538.274l6.272 20.142 24.196-6.57c.223-.079.464.078.52.313.055.234-.075.488-.297.547L78.241 81.28c-.056.04-.093.04-.13.04z" fill="#fff"/><path d="M90.34 69.116a.389.389 0 0 1-.316-.156.454.454 0 0 1 .055-.626l15.049-13.279a.402.402 0 0 1 .594.06c.148.195.13.468-.056.625L90.618 69.018a.533.533 0 0 1-.279.098zM102.066 49.99a.439.439 0 0 1-.296-.117.474.474 0 0 1-.019-.625l4.936-5.456a.417.417 0 0 1 .594-.02c.167.176.167.45.018.626l-4.954 5.456c-.056.098-.167.137-.279.137zM102.066 37.436a.393.393 0 0 1-.241-.078c-.204-.137-.241-.411-.13-.626l7.738-12.36c.13-.214.39-.253.594-.136.204.137.241.41.13.626l-7.738 12.359a.417.417 0 0 1-.353.215zM85.274 95.868H67.052a.431.431 0 0 1-.39-.254.434.434 0 0 1 .056-.47l11.06-14.549a.42.42 0 0 1 .593-.078c.186.156.204.43.074.626l-10.52 13.825H85.07l17.293-20.807a.417.417 0 0 1 .594-.039c.167.157.186.45.037.626L85.57 95.71a.332.332 0 0 1-.296.157z" fill="#fff"/><path d="M97.26 112.51a.391.391 0 0 1-.334-.176L84.922 95.711a.457.457 0 0 1 .074-.625c.186-.157.446-.118.594.078l12.005 16.622a.457.457 0 0 1-.074.626.428.428 0 0 1-.26.098zM99.988 93.56a.423.423 0 0 1-.408-.332c-.056-.235.074-.489.315-.528l20.653-5.32c.222-.077.445.079.501.333.055.235-.074.49-.316.528l-20.652 5.32h-.093zM131.44 96.415h-6.829c-.241 0-.426-.195-.426-.45 0-.254.185-.449.426-.449h6.829c.241 0 .427.195.427.45-.019.254-.205.45-.427.45zM148.993 109.713h-.055l-13.861-2.092a.443.443 0 0 1-.353-.509c.037-.234.241-.41.483-.371l13.861 2.092a.443.443 0 0 1 .352.509.428.428 0 0 1-.427.371zM45.324 108.599a.443.443 0 0 1-.372-.235.467.467 0 0 1 .093-.548l17.034-15.37a.416.416 0 0 1 .594.039c.148.195.13.47-.037.626L46.993 107.23l19.02-5.241c.223-.078.464.078.52.313.055.234-.075.489-.297.547l-20.801 5.73c-.056 0-.074.02-.111.02z" fill="#fff"/><path d="M10.124 129.953a.406.406 0 0 1-.371-.234.475.475 0 0 1 .13-.568l32.546-25.324a.423.423 0 0 1 .594.098.48.48 0 0 1-.093.626l-30.246 23.505 34.792-13.2c.223-.097.464.04.538.274.074.235-.037.489-.26.567l-37.5 14.237c-.038 0-.093.019-.13.019zM93.846 136.407c-.185 0-.352-.137-.408-.333L89.3 120.175c-.055-.234.074-.488.297-.547a.418.418 0 0 1 .52.313l4.137 15.899c.056.234-.074.488-.296.547-.037.02-.075.02-.112.02zM88.41 174.305a.443.443 0 0 1-.427-.371l-4.62-33.186a.455.455 0 0 1 .352-.509.44.44 0 0 1 .482.372l4.62 33.186a.453.453 0 0 1-.352.508h-.055z" fill="#fff"/></svg>